<?xml version="1.0" encoding="UTF-8"?>
<!DOCTYPE svg PUBLIC "-//W3C//DTD SVG 1.1//EN" "http://www.w3.org/Graphics/SVG/1.1/DTD/svg11.dtd">
<svg xmlns="http://www.w3.org/2000/svg" version="1.1" width="183px" height="166px" style="shape-rendering:geometricPrecision; text-rendering:geometricPrecision; image-rendering:optimizeQuality; fill-rule:evenodd; clip-rule:evenodd" xmlns:xlink="http://www.w3.org/1999/xlink">
<g><path style="opacity:0.78" fill="#100f0c" d="M 80.5,-0.5 C 87.5,-0.5 94.5,-0.5 101.5,-0.5C 135.987,8.34123 154.654,30.6746 157.5,66.5C 156.526,88.1134 147.859,105.78 131.5,119.5C 129.833,120.167 128.167,120.833 126.5,121.5C 126.833,120.833 127.167,120.167 127.5,119.5C 130.447,118.219 132.781,116.219 134.5,113.5C 135.167,113.5 135.5,113.167 135.5,112.5C 136.833,111.833 137.833,110.833 138.5,109.5C 139.167,109.5 139.5,109.167 139.5,108.5C 140.167,108.5 140.5,108.167 140.5,107.5C 141.167,107.5 141.5,107.167 141.5,106.5C 142.364,105.312 143.364,104.145 144.5,103C 138.261,104.303 135.428,101.803 136,95.5C 137.113,94.695 138.279,94.0283 139.5,93.5C 138.37,88.9275 140.037,85.7608 144.5,84C 142.384,82.8293 141.718,81.3293 142.5,79.5C 145.032,82.2289 148.032,84.2289 151.5,85.5C 148.564,85.1335 145.564,85.6335 142.5,87C 143.252,87.6708 143.586,88.5041 143.5,89.5C 146.702,87.1685 148.869,88.1685 150,92.5C 154.084,83.244 155.751,73.5773 155,63.5C 150.668,64.832 147.168,67.332 144.5,71C 143.5,71.6667 142.5,71.6667 141.5,71C 142.833,69.1598 142.666,68.6598 141,69.5C 140.099,76.3718 137.933,82.7052 134.5,88.5C 138.997,75.3939 139.664,62.0606 136.5,48.5C 139.319,54.0371 140.652,60.0371 140.5,66.5C 141.552,66.6495 142.552,66.4828 143.5,66C 146.64,63.772 149.306,61.1053 151.5,58C 152.448,57.5172 153.448,57.3505 154.5,57.5C 154.007,48.6879 151.34,40.6879 146.5,33.5C 146.068,32.2905 145.401,31.2905 144.5,30.5C 143.593,34.4307 142.426,34.4307 141,30.5C 138.305,32.6944 135.472,34.6944 132.5,36.5C 132.167,36 131.833,35.5 131.5,35C 133.951,32.6024 136.618,30.4358 139.5,28.5C 138.068,26.703 138.401,25.3697 140.5,24.5C 140.167,23.5 139.5,22.8333 138.5,22.5C 137.5,20.8333 136.167,19.5 134.5,18.5C 134.5,17.8333 134.167,17.5 133.5,17.5C 133.5,16.8333 133.167,16.5 132.5,16.5C 132.5,15.8333 132.167,15.5 131.5,15.5C 129.777,13.7819 127.777,12.4486 125.5,11.5C 125.158,10.6618 124.492,10.3284 123.5,10.5C 123.5,9.83333 123.167,9.5 122.5,9.5C 122.158,8.66175 121.492,8.32842 120.5,8.5C 119.22,7.06873 117.553,6.40206 115.5,6.5C 83.4615,-4.98892 57.2949,3.01108 37,30.5C 31.5392,39.0491 28.3725,48.3824 27.5,58.5C 28.9305,58.4208 30.2638,58.7542 31.5,59.5C 32.1476,57.8508 33.1476,56.5175 34.5,55.5C 35.439,57.0534 36.6057,58.3867 38,59.5C 42.4189,59.2694 42.5855,60.7694 38.5,64C 40.0368,65.1096 40.7035,66.6096 40.5,68.5C 37.1592,67.8429 35.1592,69.1763 34.5,72.5C 33.561,70.9466 32.3943,69.6133 31,68.5C 26.5811,68.7306 26.4145,67.2306 30.5,64C 28.9512,62.786 27.7845,61.286 27,59.5C 25.1088,84.7093 34.2754,104.709 54.5,119.5C 54.8333,120.167 55.1667,120.833 55.5,121.5C 53.8333,120.833 52.1667,120.167 50.5,119.5C 28.8057,100.583 20.9723,76.9164 27,48.5C 35.8325,22.161 53.6658,5.82765 80.5,-0.5 Z M 115.5,6.5 C 117.553,6.40206 119.22,7.06873 120.5,8.5C 118.029,11.3906 115.529,14.3906 113,17.5C 111.189,16.9221 109.355,16.4221 107.5,16C 108.191,14.9326 108.691,13.7659 109,12.5C 110.832,13.8583 112.665,14.1916 114.5,13.5C 113.221,11.8539 111.555,10.6872 109.5,10C 111.138,8.19874 112.972,8.03207 115,9.5C 116.683,8.82352 116.85,7.82352 115.5,6.5 Z M 115.5,6.5 C 113.105,5.63651 110.771,5.63651 108.5,6.5C 107.26,10.0558 105.927,13.5558 104.5,17C 107.731,18.466 111.065,19.6326 114.5,20.5C 115.892,19.3947 117.059,18.0614 118,16.5C 119.062,19.029 119.895,21.6957 120.5,24.5C 120.983,21.1771 122.483,18.5104 125,16.5C 125.494,14.8659 125.66,13.1992 125.5,11.5C 127.777,12.4486 129.777,13.7819 131.5,15.5C 126.152,16.8436 125.152,19.8436 128.5,24.5C 127.193,26.8067 125.86,26.64 124.5,24C 125.923,22.588 125.756,21.4213 124,20.5C 121.106,25.7829 122.606,28.2829 128.5,28C 131.113,25.2047 131.113,22.3714 128.5,19.5C 129.325,18.6143 130.325,18.281 131.5,18.5C 131.238,19.9778 131.571,21.3112 132.5,22.5C 134.111,21.6798 134.778,20.3464 134.5,18.5C 136.167,19.5 137.5,20.8333 138.5,22.5C 139.5,22.8333 140.167,23.5 140.5,24.5C 138.401,25.3697 138.068,26.703 139.5,28.5C 136.618,30.4358 133.951,32.6024 131.5,35C 131.833,35.5 132.167,36 132.5,36.5C 135.472,34.6944 138.305,32.6944 141,30.5C 142.426,34.4307 143.593,34.4307 144.5,30.5C 145.401,31.2905 146.068,32.2905 146.5,33.5C 142.681,36.8982 138.681,39.8982 134.5,42.5C 134.167,42.5 133.833,42.5 133.5,42.5C 133.672,41.5084 133.338,40.8417 132.5,40.5C 132.262,38.5956 131.262,37.2623 129.5,36.5C 128.92,34.2512 127.587,32.5846 125.5,31.5C 125.167,30.5 124.5,29.8333 123.5,29.5C 123.027,28.0937 122.027,27.427 120.5,27.5C 120.5,26.8333 120.167,26.5 119.5,26.5C 119.027,25.0937 118.027,24.427 116.5,24.5C 114.421,22.127 111.754,20.7936 108.5,20.5C 107.791,19.596 106.791,19.2627 105.5,19.5C 102.493,17.8255 99.1595,17.1588 95.5,17.5C 95.7509,12.4932 96.0843,7.49322 96.5,2.5C 95.5,2.5 94.5,2.5 93.5,2.5C 93.8266,7.21369 93.4933,11.8804 92.5,16.5C 92.2226,12.0858 91.5559,7.4191 90.5,2.5C 89.6816,5.10707 89.1816,7.77374 89,10.5C 87.9417,6.94726 85.775,4.61392 82.5,3.5C 82.5,6.5 82.5,9.5 82.5,12.5C 81.087,9.78139 80.4203,6.78139 80.5,3.5C 79.325,3.28099 78.325,3.61432 77.5,4.5C 78.681,8.07159 79.3476,11.7383 79.5,15.5C 78.1779,15.67 77.0113,15.3366 76,14.5C 75.2837,11.2796 74.117,8.27963 72.5,5.5C 71.6451,10.7413 72.9785,15.408 76.5,19.5C 74.4471,19.4021 72.7804,20.0687 71.5,21.5C 70.1667,21.8333 68.8333,22.1667 67.5,22.5C 68.355,21.4693 69.0217,20.3026 69.5,19C 68.1205,15.2804 66.2872,11.7804 64,8.5C 63.5,9 63,9.5 62.5,10C 64.1667,13 65.8333,16 67.5,19C 66.4071,20.3654 65.0738,20.6987 63.5,20C 62.2921,17.7497 60.9587,15.583 59.5,13.5C 58.635,12.4173 57.635,12.2506 56.5,13C 58.2235,16.959 60.5568,20.459 63.5,23.5C 61.742,23.1231 60.0754,22.4565 58.5,21.5C 58.1285,17.6188 56.1285,15.7855 52.5,16C 51.0158,17.5737 49.3492,18.907 47.5,20C 49.6445,22.9789 51.9778,25.8122 54.5,28.5C 53.1667,30.1667 51.8333,31.8333 50.5,33.5C 49.5,33.1667 48.8333,32.5 48.5,31.5C 49.5,30.1667 50.5,28.8333 51.5,27.5C 51,27.1667 50.5,26.8333 50,26.5C 48.2326,27.34 46.8993,28.6734 46,30.5C 44.4108,28.0885 44.9108,25.9218 47.5,24C 46.9747,23.3076 46.3081,22.8076 45.5,22.5C 43.7123,24.5765 42.0456,26.7432 40.5,29C 51.4767,36.0209 50.8101,37.1876 38.5,32.5C 39.7399,35.4124 41.7399,37.7457 44.5,39.5C 41.5,39.5 38.5,39.5 35.5,39.5C 35.5,40.5 35.5,41.5 35.5,42.5C 38.5729,43.199 41.5729,44.199 44.5,45.5C 45.4287,46.6888 45.762,48.0222 45.5,49.5C 44.0762,51.5145 43.4095,53.8478 43.5,56.5C 43.5,56.8333 43.5,57.1667 43.5,57.5C 42.8353,60.3138 42.502,63.3138 42.5,66.5C 42.3164,71.1071 42.983,75.4405 44.5,79.5C 45.0966,84.0169 46.7633,88.0169 49.5,91.5C 49.427,93.0269 50.0937,94.0269 51.5,94.5C 51.7376,96.4044 52.7376,97.7377 54.5,98.5C 55.5,100.167 56.8333,101.5 58.5,102.5C 59.5846,104.587 61.2512,105.92 63.5,106.5C 63.9731,107.906 64.9731,108.573 66.5,108.5C 73.7166,113.684 81.8832,116.017 91,115.5C 101.003,116.277 109.836,113.611 117.5,107.5C 119.027,107.573 120.027,106.906 120.5,105.5C 121.167,105.5 121.5,105.167 121.5,104.5C 124.833,103.167 127.167,100.833 128.5,97.5C 129.167,97.5 129.5,97.1667 129.5,96.5C 130.906,96.0269 131.573,95.0269 131.5,93.5C 132.906,93.0269 133.573,92.0269 133.5,90.5C 134.338,90.1583 134.672,89.4916 134.5,88.5C 137.933,82.7052 140.099,76.3718 141,69.5C 142.666,68.6598 142.833,69.1598 141.5,71C 142.5,71.6667 143.5,71.6667 144.5,71C 147.168,67.332 150.668,64.832 155,63.5C 155.751,73.5773 154.084,83.244 150,92.5C 148.869,88.1685 146.702,87.1685 143.5,89.5C 143.586,88.5041 143.252,87.6708 142.5,87C 145.564,85.6335 148.564,85.1335 151.5,85.5C 148.032,84.2289 145.032,82.2289 142.5,79.5C 141.718,81.3293 142.384,82.8293 144.5,84C 140.037,85.7608 138.37,88.9275 139.5,93.5C 138.279,94.0283 137.113,94.695 136,95.5C 135.428,101.803 138.261,104.303 144.5,103C 143.364,104.145 142.364,105.312 141.5,106.5C 141.631,105.624 141.298,104.957 140.5,104.5C 139.5,105.167 138.5,105.833 137.5,106.5C 135.5,104.833 133.5,103.167 131.5,101.5C 130.702,101.957 130.369,102.624 130.5,103.5C 127.325,104.182 125.825,106.182 126,109.5C 125.465,107.729 124.631,107.396 123.5,108.5C 124.18,109.86 124.847,111.193 125.5,112.5C 123.742,112.123 122.075,111.456 120.5,110.5C 119.328,110.919 118.328,111.585 117.5,112.5C 118.711,113.72 118.711,114.887 117.5,116C 115.924,115.848 114.591,115.015 113.5,113.5C 112.893,113.624 112.56,113.957 112.5,114.5C 109.762,113.965 107.928,114.965 107,117.5C 104.599,116.398 102.099,116.231 99.5,117C 96.9488,117.002 94.9488,117.836 93.5,119.5C 92.1667,119.5 90.8333,119.5 89.5,119.5C 89.38,118.414 88.7133,117.747 87.5,117.5C 86.2867,117.747 85.62,118.414 85.5,119.5C 82.5,119.5 79.5,119.5 76.5,119.5C 76.7828,118.711 77.2828,118.044 78,117.5C 79.1827,118.731 80.3493,118.731 81.5,117.5C 79.5485,115.467 77.3818,115.134 75,116.5C 73.742,113.945 71.9086,113.278 69.5,114.5C 68.8333,113.833 68.1667,113.167 67.5,112.5C 66.1936,113.912 65.3603,115.579 65,117.5C 64.6667,115.167 64.3333,112.833 64,110.5C 61.9307,108.915 59.764,107.581 57.5,106.5C 56.6522,105.375 55.6522,105.375 54.5,106.5C 55.1378,103.144 53.8044,101.144 50.5,100.5C 50.7067,97.8732 49.54,96.2065 47,95.5C 45.1397,97.2009 42.973,98.2009 40.5,98.5C 39.4251,102.938 41.0917,104.938 45.5,104.5C 44.4251,108.938 46.0917,110.938 50.5,110.5C 49.5878,114.204 50.5878,114.538 53.5,111.5C 53.4606,112.583 53.1272,113.583 52.5,114.5C 54.1487,115.648 55.6487,116.981 57,118.5C 57.3826,117.944 57.8826,117.611 58.5,117.5C 58.5,118.167 58.5,118.833 58.5,119.5C 57.1667,119.5 55.8333,119.5 54.5,119.5C 34.2754,104.709 25.1088,84.7093 27,59.5C 27.7845,61.286 28.9512,62.786 30.5,64C 26.4145,67.2306 26.5811,68.7306 31,68.5C 32.3943,69.6133 33.561,70.9466 34.5,72.5C 35.1592,69.1763 37.1592,67.8429 40.5,68.5C 40.7035,66.6096 40.0368,65.1096 38.5,64C 42.5855,60.7694 42.4189,59.2694 38,59.5C 36.6057,58.3867 35.439,57.0534 34.5,55.5C 33.1476,56.5175 32.1476,57.8508 31.5,59.5C 30.2638,58.7542 28.9305,58.4208 27.5,58.5C 28.3725,48.3824 31.5392,39.0491 37,30.5C 57.2949,3.01108 83.4615,-4.98892 115.5,6.5 Z M 80.5,17.5 C 81.4408,15.9505 82.1075,14.2838 82.5,12.5C 83.1614,13.7175 83.8281,15.0508 84.5,16.5C 85.3142,14.2338 85.8142,11.9005 86,9.5C 87.3767,11.7538 88.8767,13.9205 90.5,16C 87.2432,17.0429 83.9099,17.5429 80.5,17.5 Z M 119.5,11.5 C 124.552,13.663 124.552,14.8297 119.5,15C 118.829,14.0138 118.829,12.8471 119.5,11.5 Z M 52.5,18.5 C 56.1569,18.974 56.3236,20.3074 53,22.5C 51.2317,21.3181 51.0651,19.9848 52.5,18.5 Z M 62.5,25.5 C 61.5,26.8333 60.5,28.1667 59.5,29.5C 58.8333,29.5 58.1667,29.5 57.5,29.5C 57.1412,27.629 56.1412,26.129 54.5,25C 54.8333,24.6667 55.1667,24.3333 55.5,24C 57.8307,24.1571 60.1641,24.6571 62.5,25.5 Z M 63.5,23.5 C 64.1667,23.5 64.8333,23.5 65.5,23.5C 65.1667,24.1667 64.8333,24.8333 64.5,25.5C 63.8333,25.5 63.1667,25.5 62.5,25.5C 62.8333,24.8333 63.1667,24.1667 63.5,23.5 Z M 146.5,33.5 C 151.34,40.6879 154.007,48.6879 154.5,57.5C 153.448,57.3505 152.448,57.5172 151.5,58C 149.306,61.1053 146.64,63.772 143.5,66C 142.552,66.4828 141.552,66.6495 140.5,66.5C 140.652,60.0371 139.319,54.0371 136.5,48.5C 136.371,46.7839 136.038,45.1172 135.5,43.5C 137.267,42.7435 139.1,42.0769 141,41.5C 143.787,42.5174 146.62,42.6841 149.5,42C 147.623,40.8147 145.623,39.8147 143.5,39C 145.607,37.7365 146.607,35.9032 146.5,33.5 Z M 45.5,37.5 C 47.2161,37.6287 48.8828,37.962 50.5,38.5C 50.2172,39.2891 49.7172,39.9558 49,40.5C 47.8549,39.3636 46.6883,38.3636 45.5,37.5 Z M 47.5,44.5 C 46.5266,44.0133 45.5266,43.5133 44.5,43C 46.1575,42.2748 47.1575,42.7748 47.5,44.5 Z M 33.5,58.5 C 35.2252,58.8425 35.7252,59.8425 35,61.5C 33.9614,60.7562 33.4614,59.7562 33.5,58.5 Z M 154.5,58.5 C 155.688,60.4959 155.021,61.3293 152.5,61C 153.381,60.2917 154.047,59.4584 154.5,58.5 Z M 29.5,60.5 C 31.6859,60.5106 32.5192,61.5106 32,63.5C 30.955,62.6266 30.1217,61.6266 29.5,60.5 Z M 37.5,60.5 C 39.6569,61.0533 39.4903,62.0533 37,63.5C 36.5304,62.4232 36.6971,61.4232 37.5,60.5 Z M 30.5,66.5 C 30.7828,65.7109 31.2828,65.0442 32,64.5C 32.5281,65.816 32.0281,66.4827 30.5,66.5 Z M 36.5,64.5 C 37.6266,65.1217 38.6266,65.955 39.5,67C 37.5106,67.5192 36.5106,66.6859 36.5,64.5 Z M 33.5,66.5 C 35.337,66.6395 35.6704,67.3061 34.5,68.5C 33.7025,68.0431 33.3691,67.3764 33.5,66.5 Z M 37.5,82.5 C 40.694,82.1756 41.694,83.3422 40.5,86C 38.8659,86.4935 37.1992,86.6602 35.5,86.5C 35.5271,84.8007 36.1938,83.4674 37.5,82.5 Z M 143.5,89.5 C 143.952,92.6741 144.952,93.0075 146.5,90.5C 147.521,91.0016 147.688,91.6683 147,92.5C 144.427,93.9825 142.26,93.4825 140.5,91C 141.244,89.9614 142.244,89.4614 143.5,89.5 Z M 148.5,94.5 C 148.008,96.8185 147.008,98.8185 145.5,100.5C 145.703,98.6096 145.037,97.1096 143.5,96C 145.247,95.6481 146.914,95.1481 148.5,94.5 Z M 137.5,96.5 C 141.029,95.8894 142.862,97.2227 143,100.5C 139.603,101.539 137.77,100.206 137.5,96.5 Z M 46.5,103.5 C 46.3379,101.473 46.5045,99.4727 47,97.5C 47.8238,98.8084 48.3238,100.308 48.5,102C 47.9558,102.717 47.2891,103.217 46.5,103.5 Z M 42.5,99.5 C 44.4646,99.9483 44.7979,100.948 43.5,102.5C 42.6143,101.675 42.281,100.675 42.5,99.5 Z M 54.5,106.5 C 53.8333,107.833 52.8333,108.833 51.5,109.5C 51.631,108.761 51.4643,108.094 51,107.5C 49.9887,108.337 48.8221,108.67 47.5,108.5C 47.1826,104.828 48.8493,103.162 52.5,103.5C 52.2852,105.179 52.9519,106.179 54.5,106.5 Z M 128.5,106.5 C 131.833,106.5 133.5,108.167 133.5,111.5C 129.849,111.838 128.183,110.172 128.5,106.5 Z M 135.5,107.5 C 136.5,108.167 137.5,108.833 138.5,109.5C 137.833,110.833 136.833,111.833 135.5,112.5C 135.5,110.833 135.5,109.167 135.5,107.5 Z M 57.5,109.5 C 60.3422,109.528 61.5088,110.862 61,113.5C 59.3732,112.468 58.2066,111.134 57.5,109.5 Z M 58.5,117.5 C 57.657,115.827 56.3237,114.66 54.5,114C 54.8333,113.667 55.1667,113.333 55.5,113C 57.2785,113.044 58.9452,113.711 60.5,115C 59.9341,115.995 59.2674,116.828 58.5,117.5 Z M 128.5,112.5 C 130.423,114.19 132.423,114.523 134.5,113.5C 132.781,116.219 130.447,118.219 127.5,119.5C 126.833,119.5 126.167,119.5 125.5,119.5C 125.167,118.167 124.833,116.833 124.5,115.5C 126.17,115.751 127.67,116.418 129,117.5C 129.384,115.803 129.218,114.137 128.5,112.5 Z M 62.5,119.5 C 61.8333,119.5 61.1667,119.5 60.5,119.5C 61.7498,114.36 62.4165,114.36 62.5,119.5 Z M 74.5,119.5 C 72.5,119.5 70.5,119.5 68.5,119.5C 70.4781,114.18 72.4781,114.18 74.5,119.5 Z M 114.5,119.5 C 112.5,119.5 110.5,119.5 108.5,119.5C 108.415,118.005 109.081,117.005 110.5,116.5C 112.483,116.815 113.816,117.815 114.5,119.5 Z M 120.5,119.5 C 119.167,119.5 117.833,119.5 116.5,119.5C 118.032,117.219 119.366,117.219 120.5,119.5 Z"/></g>
<g><path style="opacity:0.767" fill="#000000" d="M 115.5,6.5 C 116.85,7.82352 116.683,8.82352 115,9.5C 112.972,8.03207 111.138,8.19874 109.5,10C 111.555,10.6872 113.221,11.8539 114.5,13.5C 112.665,14.1916 110.832,13.8583 109,12.5C 108.691,13.7659 108.191,14.9326 107.5,16C 109.355,16.4221 111.189,16.9221 113,17.5C 115.529,14.3906 118.029,11.3906 120.5,8.5C 120.842,9.33825 121.508,9.67158 122.5,9.5C 123.167,9.5 123.5,9.83333 123.5,10.5C 123.842,11.3382 124.508,11.6716 125.5,11.5C 125.66,13.1992 125.494,14.8659 125,16.5C 122.483,18.5104 120.983,21.1771 120.5,24.5C 119.895,21.6957 119.062,19.029 118,16.5C 117.059,18.0614 115.892,19.3947 114.5,20.5C 111.065,19.6326 107.731,18.466 104.5,17C 105.927,13.5558 107.26,10.0558 108.5,6.5C 110.771,5.63651 113.105,5.63651 115.5,6.5 Z M 119.5,11.5 C 118.829,12.8471 118.829,14.0138 119.5,15C 124.552,14.8297 124.552,13.663 119.5,11.5 Z"/></g>
<g><path style="opacity:0.725" fill="#010000" d="M 82.5,12.5 C 82.1075,14.2838 81.4408,15.9505 80.5,17.5C 77.8333,17.8333 77.8333,18.1667 80.5,18.5C 80.1583,19.3382 79.4916,19.6716 78.5,19.5C 77.8333,19.5 77.1667,19.5 76.5,19.5C 72.9785,15.408 71.6451,10.7413 72.5,5.5C 74.117,8.27963 75.2837,11.2796 76,14.5C 77.0113,15.3366 78.1779,15.67 79.5,15.5C 79.3476,11.7383 78.681,8.07159 77.5,4.5C 78.325,3.61432 79.325,3.28099 80.5,3.5C 80.4203,6.78139 81.087,9.78139 82.5,12.5 Z"/></g>
<g><path style="opacity:0.735" fill="#000000" d="M 97.5,2.5 C 98.4584,2.9528 99.2917,3.61947 100,4.5C 100.333,7.16667 100.667,9.83333 101,12.5C 102.167,10.1667 103.333,7.83333 104.5,5.5C 105.365,4.41728 106.365,4.25061 107.5,5C 100.719,20.7898 97.3856,19.9564 97.5,2.5 Z"/></g>
<g><path style="opacity:0.657" fill="#080d07" d="M 105.5,19.5 C 97.2004,18.6287 88.8671,18.2953 80.5,18.5C 80.5,18.1667 80.5,17.8333 80.5,17.5C 83.9099,17.5429 87.2432,17.0429 90.5,16C 88.8767,13.9205 87.3767,11.7538 86,9.5C 85.8142,11.9005 85.3142,14.2338 84.5,16.5C 83.8281,15.0508 83.1614,13.7175 82.5,12.5C 82.5,9.5 82.5,6.5 82.5,3.5C 85.775,4.61392 87.9417,6.94726 89,10.5C 89.1816,7.77374 89.6816,5.10707 90.5,2.5C 91.5559,7.4191 92.2226,12.0858 92.5,16.5C 93.4933,11.8804 93.8266,7.21369 93.5,2.5C 94.5,2.5 95.5,2.5 96.5,2.5C 96.0843,7.49322 95.7509,12.4932 95.5,17.5C 99.1595,17.1588 102.493,17.8255 105.5,19.5 Z"/></g>
<g><path style="opacity:0.745" fill="#000000" d="M 67.5,22.5 C 66.5084,22.3284 65.8417,22.6618 65.5,23.5C 64.8333,23.5 64.1667,23.5 63.5,23.5C 60.5568,20.459 58.2235,16.959 56.5,13C 57.635,12.2506 58.635,12.4173 59.5,13.5C 60.9587,15.583 62.2921,17.7497 63.5,20C 65.0738,20.6987 66.4071,20.3654 67.5,19C 65.8333,16 64.1667,13 62.5,10C 63,9.5 63.5,9 64,8.5C 66.2872,11.7804 68.1205,15.2804 69.5,19C 69.0217,20.3026 68.355,21.4693 67.5,22.5 Z"/></g>
<g><path style="opacity:0.763" fill="#010100" d="M 63.5,23.5 C 63.1667,24.1667 62.8333,24.8333 62.5,25.5C 60.1641,24.6571 57.8307,24.1571 55.5,24C 55.1667,24.3333 54.8333,24.6667 54.5,25C 56.1412,26.129 57.1412,27.629 57.5,29.5C 56.8333,29.5 56.5,29.8333 56.5,30.5C 55.8333,30.5 55.5,30.8333 55.5,31.5C 54.6618,31.8417 54.3284,32.5084 54.5,33.5C 53.8333,33.5 53.5,33.8333 53.5,34.5C 52.8333,34.5 52.5,34.8333 52.5,35.5C 51.8333,35.5 51.5,35.8333 51.5,36.5C 50.6618,36.8417 50.3284,37.5084 50.5,38.5C 50.8333,38.5 51.1667,38.5 51.5,38.5C 50.5514,40.7772 49.2181,42.7772 47.5,44.5C 47.5979,46.5529 46.9313,48.2196 45.5,49.5C 45.762,48.0222 45.4287,46.6888 44.5,45.5C 41.5729,44.199 38.5729,43.199 35.5,42.5C 35.5,41.5 35.5,40.5 35.5,39.5C 38.5,39.5 41.5,39.5 44.5,39.5C 41.7399,37.7457 39.7399,35.4124 38.5,32.5C 50.8101,37.1876 51.4767,36.0209 40.5,29C 42.0456,26.7432 43.7123,24.5765 45.5,22.5C 46.3081,22.8076 46.9747,23.3076 47.5,24C 44.9108,25.9218 44.4108,28.0885 46,30.5C 46.8993,28.6734 48.2326,27.34 50,26.5C 50.5,26.8333 51,27.1667 51.5,27.5C 50.5,28.8333 49.5,30.1667 48.5,31.5C 48.8333,32.5 49.5,33.1667 50.5,33.5C 51.8333,31.8333 53.1667,30.1667 54.5,28.5C 51.9778,25.8122 49.6445,22.9789 47.5,20C 49.3492,18.907 51.0158,17.5737 52.5,16C 56.1285,15.7855 58.1285,17.6188 58.5,21.5C 60.0754,22.4565 61.742,23.1231 63.5,23.5 Z M 52.5,18.5 C 51.0651,19.9848 51.2317,21.3181 53,22.5C 56.3236,20.3074 56.1569,18.974 52.5,18.5 Z M 45.5,37.5 C 47.2161,37.6287 48.8828,37.962 50.5,38.5C 50.2172,39.2891 49.7172,39.9558 49,40.5C 47.8549,39.3636 46.6883,38.3636 45.5,37.5 Z M 47.5,44.5 C 47.1575,42.7748 46.1575,42.2748 44.5,43C 45.5266,43.5133 46.5266,44.0133 47.5,44.5 Z"/></g>
<g><path style="opacity:0.766" fill="#000000" d="M 131.5,15.5 C 132.167,15.5 132.5,15.8333 132.5,16.5C 133.167,16.5 133.5,16.8333 133.5,17.5C 134.167,17.5 134.5,17.8333 134.5,18.5C 134.778,20.3464 134.111,21.6798 132.5,22.5C 131.571,21.3112 131.238,19.9778 131.5,18.5C 130.325,18.281 129.325,18.6143 128.5,19.5C 131.113,22.3714 131.113,25.2047 128.5,28C 122.606,28.2829 121.106,25.7829 124,20.5C 125.756,21.4213 125.923,22.588 124.5,24C 125.86,26.64 127.193,26.8067 128.5,24.5C 125.152,19.8436 126.152,16.8436 131.5,15.5 Z"/></g>
<g><path style="opacity:1" fill="#18ce62" d="M 80.5,18.5 C 88.8671,18.2953 97.2004,18.6287 105.5,19.5C 106.791,19.2627 107.791,19.596 108.5,20.5C 110.849,22.341 113.515,23.6743 116.5,24.5C 116.973,25.9063 117.973,26.573 119.5,26.5C 120.167,26.5 120.5,26.8333 120.5,27.5C 120.973,28.9063 121.973,29.573 123.5,29.5C 124.5,29.8333 125.167,30.5 125.5,31.5C 126.08,33.7488 127.413,35.4154 129.5,36.5C 129.738,38.4044 130.738,39.7377 132.5,40.5C 133.338,40.8417 133.672,41.5084 133.5,42.5C 133.992,44.8185 134.992,46.8185 136.5,48.5C 139.664,62.0606 138.997,75.3939 134.5,88.5C 134.672,89.4916 134.338,90.1583 133.5,90.5C 132.094,90.9731 131.427,91.9731 131.5,93.5C 130.094,93.9731 129.427,94.9731 129.5,96.5C 129.5,97.1667 129.167,97.5 128.5,97.5C 125.833,99.5 123.5,101.833 121.5,104.5C 121.5,105.167 121.167,105.5 120.5,105.5C 118.973,105.427 117.973,106.094 117.5,107.5C 100.661,116.412 83.6611,116.746 66.5,108.5C 66.0269,107.094 65.0269,106.427 63.5,106.5C 62.4154,104.413 60.7488,103.08 58.5,102.5C 56.8333,101.5 55.5,100.167 54.5,98.5C 54.2624,96.5956 53.2624,95.2623 51.5,94.5C 51.573,92.9731 50.9063,91.9731 49.5,91.5C 46.7633,88.0169 45.0966,84.0169 44.5,79.5C 43.6979,72.1958 43.3646,64.8625 43.5,57.5C 43.5,57.1667 43.5,56.8333 43.5,56.5C 45.1628,54.5615 45.8294,52.2282 45.5,49.5C 46.9313,48.2196 47.5979,46.5529 47.5,44.5C 49.2181,42.7772 50.5514,40.7772 51.5,38.5C 52.9063,38.0269 53.573,37.0269 53.5,35.5C 53.5,35.1667 53.5,34.8333 53.5,34.5C 54.1667,34.5 54.5,34.1667 54.5,33.5C 54.8333,33.5 55.1667,33.5 55.5,33.5C 57.1667,32.5 58.5,31.1667 59.5,29.5C 61.7488,28.9202 63.4154,27.5869 64.5,25.5C 66.0269,25.573 67.0269,24.9063 67.5,23.5C 67.5,23.1667 67.5,22.8333 67.5,22.5C 68.8333,22.1667 70.1667,21.8333 71.5,21.5C 74.1522,21.5905 76.4855,20.9238 78.5,19.5C 79.4916,19.6716 80.1583,19.3382 80.5,18.5 Z"/></g>
<g><path style="opacity:1" fill="#24582d" d="M 76.5,19.5 C 77.1667,19.5 77.8333,19.5 78.5,19.5C 76.4855,20.9238 74.1522,21.5905 71.5,21.5C 72.7804,20.0687 74.4471,19.4021 76.5,19.5 Z"/></g>
<g><path style="opacity:0.149" fill="#14130b" d="M 108.5,20.5 C 111.754,20.7936 114.421,22.127 116.5,24.5C 113.515,23.6743 110.849,22.341 108.5,20.5 Z"/></g>
<g><path style="opacity:0.75" fill="#000000" d="M 138.5,22.5 C 136.116,25.391 133.449,28.2243 130.5,31C 129.365,31.7494 128.365,31.5827 127.5,30.5C 130.317,28.1833 132.984,25.6833 135.5,23C 136.448,22.5172 137.448,22.3505 138.5,22.5 Z"/></g>
<g><path style="opacity:1" fill="#20311c" d="M 65.5,23.5 C 66.1667,23.5 66.8333,23.5 67.5,23.5C 67.0269,24.9063 66.0269,25.573 64.5,25.5C 64.8333,24.8333 65.1667,24.1667 65.5,23.5 Z"/></g>
<g><path style="opacity:0.369" fill="#17170f" d="M 116.5,24.5 C 118.027,24.427 119.027,25.0937 119.5,26.5C 117.973,26.573 116.973,25.9063 116.5,24.5 Z"/></g>
<g><path style="opacity:1" fill="#f6c022" d="M 124.5,74.5 C 124.67,75.8221 124.337,76.9887 123.5,78C 126.336,80.0074 129.003,82.1741 131.5,84.5C 131.038,86.2906 129.871,87.2906 128,87.5C 117.107,84.4394 115.607,87.2727 123.5,96C 122.601,97.2362 121.434,98.0696 120,98.5C 117.172,96.7486 114.505,94.7486 112,92.5C 109.216,95.869 109.049,99.5356 111.5,103.5C 109.76,105.211 107.76,106.044 105.5,106C 99.9412,95.5898 96.6078,96.4231 95.5,108.5C 93.5,108.5 91.5,108.5 89.5,108.5C 89.3841,105.14 89.0508,101.807 88.5,98.5C 87.1266,98.3433 85.7932,98.51 84.5,99C 82.8495,101.813 80.8495,104.313 78.5,106.5C 76.7094,106.038 75.7094,104.871 75.5,103C 75.8613,100.551 76.528,98.2177 77.5,96C 75.9556,94.8129 74.2889,94.4795 72.5,95C 70.2406,96.7146 68.0739,98.5479 66,100.5C 64.647,99.3147 63.4803,97.9814 62.5,96.5C 69.5267,87.1833 67.5267,84.85 56.5,89.5C 55.2801,89.1131 54.6135,88.2798 54.5,87C 56.5345,84.4598 58.8678,82.1265 61.5,80C 61.0426,79.586 60.7093,79.086 60.5,78.5C 56.8927,77.5108 53.226,77.1774 49.5,77.5C 49.5,75.8333 49.5,74.1667 49.5,72.5C 52.8774,72.0405 56.2107,71.3739 59.5,70.5C 59.5,69.1667 59.5,67.8333 59.5,66.5C 56.4781,66.196 53.4781,65.696 50.5,65C 49.5939,63.3005 49.2606,61.4672 49.5,59.5C 52.8333,59.5 56.1667,59.5 59.5,59.5C 59.33,58.1779 59.6634,57.0113 60.5,56C 57.8333,54 55.1667,52 52.5,50C 53.1189,48.2429 54.2856,47.0762 56,46.5C 67.5317,50.4343 69.3651,47.7676 61.5,38.5C 62.4803,37.0186 63.647,35.6853 65,34.5C 74.0641,43.6024 76.8974,42.1024 73.5,30C 74.7287,29.2189 76.062,28.7189 77.5,28.5C 79.622,30.0502 81.2886,32.0502 82.5,34.5C 84.0453,35.4519 85.712,35.7852 87.5,35.5C 88.0508,32.1933 88.3841,28.8599 88.5,25.5C 90.5,25.5 92.5,25.5 94.5,25.5C 95.2263,37.2205 98.2263,38.0538 103.5,28C 104.5,27.3333 105.5,27.3333 106.5,28C 106.908,31.4787 107.242,34.9787 107.5,38.5C 108.167,38.8333 108.833,39.1667 109.5,39.5C 111.884,37.1153 114.55,35.1153 117.5,33.5C 119.046,34.2116 120.046,35.3783 120.5,37C 118.733,39.7071 117.566,42.5405 117,45.5C 117.667,46.1667 118.333,46.8333 119,47.5C 122.61,44.4898 126.277,44.1565 130,46.5C 130.667,47.1667 130.667,47.8333 130,48.5C 127.815,49.9284 125.815,51.5951 124,53.5C 123.333,54.5 123.333,55.5 124,56.5C 127.459,57.1334 130.959,57.8 134.5,58.5C 134.833,59.1667 135.167,59.8333 135.5,60.5C 132.407,62.3089 129.074,63.3089 125.5,63.5C 125.343,64.8734 125.51,66.2068 126,67.5C 128.761,68.7958 131.595,69.9625 134.5,71C 135.337,72.0113 135.67,73.1779 135.5,74.5C 131.833,74.5 128.167,74.5 124.5,74.5 Z"/></g>
<g><path style="opacity:0.38" fill="#161d12" d="M 120.5,27.5 C 122.027,27.427 123.027,28.0937 123.5,29.5C 121.973,29.573 120.973,28.9063 120.5,27.5 Z"/></g>
<g><path style="opacity:0.875" fill="#26592d" d="M 62.5,25.5 C 63.1667,25.5 63.8333,25.5 64.5,25.5C 63.4154,27.5869 61.7488,28.9202 59.5,29.5C 60.5,28.1667 61.5,26.8333 62.5,25.5 Z"/></g>
<g><path style="opacity:0.918" fill="#162817" d="M 57.5,29.5 C 58.1667,29.5 58.8333,29.5 59.5,29.5C 58.5,31.1667 57.1667,32.5 55.5,33.5C 55.5,32.8333 55.5,32.1667 55.5,31.5C 56.1667,31.5 56.5,31.1667 56.5,30.5C 57.1667,30.5 57.5,30.1667 57.5,29.5 Z"/></g>
<g><path style="opacity:1" fill="#1d3b20" d="M 125.5,31.5 C 127.587,32.5846 128.92,34.2512 129.5,36.5C 127.413,35.4154 126.08,33.7488 125.5,31.5 Z"/></g>
<g><path style="opacity:0.692" fill="#000000" d="M 146.5,33.5 C 146.607,35.9032 145.607,37.7365 143.5,39C 145.623,39.8147 147.623,40.8147 149.5,42C 146.62,42.6841 143.787,42.5174 141,41.5C 139.1,42.0769 137.267,42.7435 135.5,43.5C 135.5,42.8333 135.167,42.5 134.5,42.5C 138.681,39.8982 142.681,36.8982 146.5,33.5 Z"/></g>
<g><path style="opacity:0.988" fill="#1d3b1f" d="M 52.5,35.5 C 52.8333,35.5 53.1667,35.5 53.5,35.5C 53.573,37.0269 52.9063,38.0269 51.5,38.5C 51.5,37.8333 51.5,37.1667 51.5,36.5C 52.1667,36.5 52.5,36.1667 52.5,35.5 Z"/></g>
<g><path style="opacity:1" fill="#20331d" d="M 129.5,36.5 C 131.262,37.2623 132.262,38.5956 132.5,40.5C 130.738,39.7377 129.738,38.4044 129.5,36.5 Z"/></g>
<g><path style="opacity:1" fill="#f7fcf6" d="M 99.5,53.5 C 95.2981,56.3609 90.6314,57.1942 85.5,56C 83.6763,55.34 82.343,54.1733 81.5,52.5C 82.4217,47.4973 83.9217,47.4973 86,52.5C 87.5857,49.0809 89.7524,46.0809 92.5,43.5C 95.3327,46.5043 97.6661,49.8376 99.5,53.5 Z"/></g>
<g><path style="opacity:0.812" fill="#170a09" d="M 133.5,42.5 C 133.833,42.5 134.167,42.5 134.5,42.5C 135.167,42.5 135.5,42.8333 135.5,43.5C 136.038,45.1172 136.371,46.7839 136.5,48.5C 134.992,46.8185 133.992,44.8185 133.5,42.5 Z"/></g>
<g><path style="opacity:1" fill="#1ad464" d="M 81.5,52.5 C 82.343,54.1733 83.6763,55.34 85.5,56C 90.6314,57.1942 95.2981,56.3609 99.5,53.5C 107.224,61.1996 115.557,68.1996 124.5,74.5C 119.311,83.0633 111.978,88.0633 102.5,89.5C 104.289,88.1228 106.289,87.1228 108.5,86.5C 109.386,85.675 109.719,84.675 109.5,83.5C 106.428,83.8174 103.428,83.4841 100.5,82.5C 99.6171,81.452 98.9504,80.2853 98.5,79C 99.3656,71.1041 97.699,70.6041 93.5,77.5C 89.7906,79.2152 86.7906,78.3819 84.5,75C 82.9262,74.3013 81.5929,74.6346 80.5,76C 85.2192,83.0254 83.2192,85.8587 74.5,84.5C 74.5,85.5 74.5,86.5 74.5,87.5C 68.3342,84.833 64.0008,80.333 61.5,74C 66.4172,66.4138 72.0839,59.4138 78.5,53C 79.448,52.5172 80.448,52.3505 81.5,52.5 Z"/></g>
<g><path style="opacity:0.906" fill="#1c1e14" d="M 45.5,49.5 C 45.8294,52.2282 45.1628,54.5615 43.5,56.5C 43.4095,53.8478 44.0762,51.5145 45.5,49.5 Z"/></g>
<g><path style="opacity:0.722" fill="#150505" d="M 43.5,57.5 C 43.3646,64.8625 43.6979,72.1958 44.5,79.5C 42.983,75.4405 42.3164,71.1071 42.5,66.5C 42.502,63.3138 42.8353,60.3138 43.5,57.5 Z"/></g>
<g><path style="opacity:0.694" fill="#000000" d="M 42.5,87.5 C 44.5128,88.4752 45.8461,90.1419 46.5,92.5C 46.1667,92.8333 45.8333,93.1667 45.5,93.5C 44.0295,92.6195 43.1962,91.2861 43,89.5C 41.8595,91.0778 41.3595,92.7445 41.5,94.5C 40.2807,93.7366 39.2807,92.7366 38.5,91.5C 37.109,92.6446 35.7757,92.6446 34.5,91.5C 38.2006,90.2632 38.0339,88.9298 34,87.5C 33.1567,81.808 35.6567,79.6413 41.5,81C 43.6838,82.8976 44.0171,85.0642 42.5,87.5 Z M 37.5,82.5 C 36.1938,83.4674 35.5271,84.8007 35.5,86.5C 37.1992,86.6602 38.8659,86.4935 40.5,86C 41.694,83.3422 40.694,82.1756 37.5,82.5 Z"/></g>
<g><path style="opacity:1" fill="#3cb151" d="M 74.5,87.5 C 77.5192,88.0454 79.6858,89.3787 81,91.5C 78.3829,90.7807 76.2162,89.4474 74.5,87.5 Z"/></g>
<g><path style="opacity:0.404" fill="#16120b" d="M 133.5,90.5 C 133.573,92.0269 132.906,93.0269 131.5,93.5C 131.427,91.9731 132.094,90.9731 133.5,90.5 Z"/></g>
<g><path style="opacity:0.282" fill="#140e08" d="M 49.5,91.5 C 50.9063,91.9731 51.573,92.9731 51.5,94.5C 50.0937,94.0269 49.427,93.0269 49.5,91.5 Z"/></g>
<g><path style="opacity:0.373" fill="#16120b" d="M 131.5,93.5 C 131.573,95.0269 130.906,96.0269 129.5,96.5C 129.427,94.9731 130.094,93.9731 131.5,93.5 Z"/></g>
<g><path style="opacity:0.712" fill="#000000" d="M 50.5,100.5 C 53.8044,101.144 55.1378,103.144 54.5,106.5C 52.9519,106.179 52.2852,105.179 52.5,103.5C 48.8493,103.162 47.1826,104.828 47.5,108.5C 48.8221,108.67 49.9887,108.337 51,107.5C 51.4643,108.094 51.631,108.761 51.5,109.5C 50.8333,109.5 50.5,109.833 50.5,110.5C 46.0917,110.938 44.4251,108.938 45.5,104.5C 41.0917,104.938 39.4251,102.938 40.5,98.5C 42.973,98.2009 45.1397,97.2009 47,95.5C 49.54,96.2065 50.7067,97.8732 50.5,100.5 Z M 46.5,103.5 C 47.2891,103.217 47.9558,102.717 48.5,102C 48.3238,100.308 47.8238,98.8084 47,97.5C 46.5045,99.4727 46.3379,101.473 46.5,103.5 Z M 42.5,99.5 C 42.281,100.675 42.6143,101.675 43.5,102.5C 44.7979,100.948 44.4646,99.9483 42.5,99.5 Z"/></g>
<g><path style="opacity:0.18" fill="#15150e" d="M 51.5,94.5 C 53.2624,95.2623 54.2624,96.5956 54.5,98.5C 52.7376,97.7377 51.7376,96.4044 51.5,94.5 Z"/></g>
<g><path style="opacity:0.747" fill="#060606" d="M 141.5,106.5 C 140.833,106.5 140.5,106.833 140.5,107.5C 139.833,107.5 139.5,107.833 139.5,108.5C 138.833,108.5 138.5,108.833 138.5,109.5C 137.5,108.833 136.5,108.167 135.5,107.5C 135.5,109.167 135.5,110.833 135.5,112.5C 134.833,112.5 134.5,112.833 134.5,113.5C 132.423,114.523 130.423,114.19 128.5,112.5C 129.218,114.137 129.384,115.803 129,117.5C 127.67,116.418 126.17,115.751 124.5,115.5C 124.833,116.833 125.167,118.167 125.5,119.5C 124.833,119.5 124.167,119.5 123.5,119.5C 123.167,116.833 122.833,116.833 122.5,119.5C 122.062,120.506 121.396,120.506 120.5,119.5C 119.366,117.219 118.032,117.219 116.5,119.5C 115.833,119.5 115.167,119.5 114.5,119.5C 113.816,117.815 112.483,116.815 110.5,116.5C 109.081,117.005 108.415,118.005 108.5,119.5C 108.5,120.167 108.5,120.833 108.5,121.5C 107.833,120.833 107.167,120.167 106.5,119.5C 104.833,118.167 103.167,118.167 101.5,119.5C 102.952,120.302 104.618,120.802 106.5,121C 101.003,123.125 101.337,124.459 107.5,125C 105.75,126.319 103.75,126.819 101.5,126.5C 101.552,124.097 101.219,121.764 100.5,119.5C 100.167,118.167 99.8333,118.167 99.5,119.5C 97.8356,120.949 97.0023,122.949 97,125.5C 96.5045,123.527 96.3379,121.527 96.5,119.5C 95.5,119.5 94.5,119.5 93.5,119.5C 94.9488,117.836 96.9488,117.002 99.5,117C 102.099,116.231 104.599,116.398 107,117.5C 107.928,114.965 109.762,113.965 112.5,114.5C 112.56,113.957 112.893,113.624 113.5,113.5C 114.591,115.015 115.924,115.848 117.5,116C 118.711,114.887 118.711,113.72 117.5,112.5C 118.328,111.585 119.328,110.919 120.5,110.5C 122.075,111.456 123.742,112.123 125.5,112.5C 124.847,111.193 124.18,109.86 123.5,108.5C 124.631,107.396 125.465,107.729 126,109.5C 125.825,106.182 127.325,104.182 130.5,103.5C 130.369,102.624 130.702,101.957 131.5,101.5C 133.5,103.167 135.5,104.833 137.5,106.5C 138.5,105.833 139.5,105.167 140.5,104.5C 141.298,104.957 141.631,105.624 141.5,106.5 Z M 128.5,106.5 C 128.183,110.172 129.849,111.838 133.5,111.5C 133.5,108.167 131.833,106.5 128.5,106.5 Z M 114.5,119.5 C 112.5,119.5 110.5,119.5 108.5,119.5C 108.415,118.005 109.081,117.005 110.5,116.5C 112.483,116.815 113.816,117.815 114.5,119.5 Z M 120.5,119.5 C 119.167,119.5 117.833,119.5 116.5,119.5C 118.032,117.219 119.366,117.219 120.5,119.5 Z"/></g>
<g><path style="opacity:0.212" fill="#0f0306" d="M 128.5,97.5 C 127.167,100.833 124.833,103.167 121.5,104.5C 123.5,101.833 125.833,99.5 128.5,97.5 Z"/></g>
<g><path style="opacity:1" fill="#1d2216" d="M 58.5,102.5 C 60.7488,103.08 62.4154,104.413 63.5,106.5C 61.2512,105.92 59.5846,104.587 58.5,102.5 Z"/></g>
<g><path style="opacity:0.719" fill="#000000" d="M 57.5,106.5 C 59.764,107.581 61.9307,108.915 64,110.5C 64.3333,112.833 64.6667,115.167 65,117.5C 65.3603,115.579 66.1936,113.912 67.5,112.5C 68.1667,113.167 68.8333,113.833 69.5,114.5C 71.9086,113.278 73.742,113.945 75,116.5C 77.3818,115.134 79.5485,115.467 81.5,117.5C 80.3493,118.731 79.1827,118.731 78,117.5C 77.2828,118.044 76.7828,118.711 76.5,119.5C 77.6085,120.29 78.9419,120.79 80.5,121C 78.8659,121.494 77.1992,121.66 75.5,121.5C 75.6716,120.508 75.3382,119.842 74.5,119.5C 72.4781,114.18 70.4781,114.18 68.5,119.5C 68.5,120.5 68.5,121.5 68.5,122.5C 67.596,121.791 67.2627,120.791 67.5,119.5C 65.8762,119.36 64.7096,120.027 64,121.5C 63.7216,120.584 63.2216,119.918 62.5,119.5C 62.4165,114.36 61.7498,114.36 60.5,119.5C 59.8333,119.5 59.1667,119.5 58.5,119.5C 58.5,118.833 58.5,118.167 58.5,117.5C 57.8826,117.611 57.3826,117.944 57,118.5C 55.6487,116.981 54.1487,115.648 52.5,114.5C 53.1272,113.583 53.4606,112.583 53.5,111.5C 50.5878,114.538 49.5878,114.204 50.5,110.5C 51.1667,110.5 51.5,110.167 51.5,109.5C 52.8333,108.833 53.8333,107.833 54.5,106.5C 55.6522,105.375 56.6522,105.375 57.5,106.5 Z M 57.5,109.5 C 58.2066,111.134 59.3732,112.468 61,113.5C 61.5088,110.862 60.3422,109.528 57.5,109.5 Z M 58.5,117.5 C 59.2674,116.828 59.9341,115.995 60.5,115C 58.9452,113.711 57.2785,113.044 55.5,113C 55.1667,113.333 54.8333,113.667 54.5,114C 56.3237,114.66 57.657,115.827 58.5,117.5 Z M 62.5,119.5 C 61.8333,119.5 61.1667,119.5 60.5,119.5C 61.7498,114.36 62.4165,114.36 62.5,119.5 Z M 74.5,119.5 C 72.5,119.5 70.5,119.5 68.5,119.5C 70.4781,114.18 72.4781,114.18 74.5,119.5 Z"/></g>
<g><path style="opacity:0.333" fill="#140104" d="M 120.5,105.5 C 120.027,106.906 119.027,107.573 117.5,107.5C 117.973,106.094 118.973,105.427 120.5,105.5 Z"/></g>
<g><path style="opacity:0.945" fill="#1a120e" d="M 63.5,106.5 C 65.0269,106.427 66.0269,107.094 66.5,108.5C 64.9731,108.573 63.9731,107.906 63.5,106.5 Z"/></g>
<g><path style="opacity:0.991" fill="#190408" d="M 117.5,107.5 C 109.836,113.611 101.003,116.277 91,115.5C 81.8832,116.017 73.7166,113.684 66.5,108.5C 83.6611,116.746 100.661,116.412 117.5,107.5 Z"/></g>
<g><path style="opacity:0.797" fill="#000000" d="M 89.5,119.5 C 89.5,120.167 89.1667,120.5 88.5,120.5C 87.6522,119.375 86.6522,119.375 85.5,120.5C 85.5,120.167 85.5,119.833 85.5,119.5C 85.62,118.414 86.2867,117.747 87.5,117.5C 88.7133,117.747 89.38,118.414 89.5,119.5 Z"/></g>
<g><path style="opacity:1" fill="#f9f9f9" d="M -0.5,119.5 C 16.5,119.5 33.5,119.5 50.5,119.5C 52.1667,120.167 53.8333,120.833 55.5,121.5C 58.9136,124.54 62.9136,126.54 67.5,127.5C 68.6002,128.558 69.9336,129.392 71.5,130C 70.552,130.483 69.552,130.649 68.5,130.5C 58.0149,129.283 47.6815,129.283 37.5,130.5C 35.1016,130.259 33.1016,130.926 31.5,132.5C 30.0413,132.433 28.7079,132.766 27.5,133.5C 28.8271,127.326 26.4938,125.159 20.5,127C 19.944,127.383 19.6107,127.883 19.5,128.5C 20.5832,128.461 21.5832,128.127 22.5,127.5C 23.2975,127.957 23.6309,128.624 23.5,129.5C 21.9925,131.181 20.9925,133.181 20.5,135.5C 20.5,136.167 20.5,136.833 20.5,137.5C 20.6596,139.153 21.3263,140.486 22.5,141.5C 23.9238,143.515 24.5905,145.848 24.5,148.5C 21.5624,150.934 18.7291,153.601 16,156.5C 16.3052,154.557 16.3052,152.557 16,150.5C 14.5203,154.072 13.8537,157.738 14,161.5C 16.4626,158.035 19.2959,154.869 22.5,152C 24.1933,151.516 25.5267,152.016 26.5,153.5C 26.281,154.675 26.6143,155.675 27.5,156.5C 33.1783,154.442 38.845,152.775 44.5,151.5C 52.8496,151.979 61.1829,152.645 69.5,153.5C 70.5,153.5 71.5,153.5 72.5,153.5C 77.7658,154.918 83.2658,155.585 89,155.5C 94.0896,155.656 98.9229,154.99 103.5,153.5C 104.167,153.5 104.833,153.5 105.5,153.5C 116.087,151.904 126.754,151.237 137.5,151.5C 141.495,152.053 145.161,153.386 148.5,155.5C 149.172,156.267 150.005,156.934 151,157.5C 152.527,155.779 153.527,153.779 154,151.5C 156.95,153.387 159.784,155.387 162.5,157.5C 162.685,159.196 163.519,160.529 165,161.5C 165.497,159.19 165.663,156.857 165.5,154.5C 165.5,152.167 165.5,149.833 165.5,147.5C 169.58,147.583 173.413,148.583 177,150.5C 177.008,148.179 176.175,146.179 174.5,144.5C 171.597,146.104 168.263,147.104 164.5,147.5C 163.911,150.64 163.244,153.64 162.5,156.5C 159.708,154.21 157.041,151.71 154.5,149C 155.936,144.859 157.269,140.692 158.5,136.5C 157.469,135.3 156.635,133.966 156,132.5C 155.768,133.737 155.268,134.737 154.5,135.5C 153.508,135.672 152.842,135.338 152.5,134.5C 152.231,132.571 152.731,130.905 154,129.5C 154.333,130.167 154.667,130.833 155,131.5C 156.098,130.033 157.598,129.199 159.5,129C 157.635,127.699 155.635,127.365 153.5,128C 152.421,129.859 151.088,131.359 149.5,132.5C 147.574,130.707 145.241,129.707 142.5,129.5C 137.5,128.167 132.5,128.167 127.5,129.5C 121.539,129.613 115.872,130.613 110.5,132.5C 109.167,132.5 107.833,132.5 106.5,132.5C 104.473,132.662 102.473,132.495 100.5,132C 104.795,131.431 108.795,130.264 112.5,128.5C 117.753,127.207 122.419,124.874 126.5,121.5C 128.167,120.833 129.833,120.167 131.5,119.5C 148.5,119.5 165.5,119.5 182.5,119.5C 182.5,134.833 182.5,150.167 182.5,165.5C 121.5,165.5 60.5,165.5 -0.5,165.5C -0.5,150.167 -0.5,134.833 -0.5,119.5 Z"/></g>
<g><path style="opacity:0.999" fill="#e8e8e8" d="M 54.5,119.5 C 55.8333,119.5 57.1667,119.5 58.5,119.5C 59.1667,119.5 59.8333,119.5 60.5,119.5C 61.1667,119.5 61.8333,119.5 62.5,119.5C 63.2216,119.918 63.7216,120.584 64,121.5C 64.7096,120.027 65.8762,119.36 67.5,119.5C 67.2627,120.791 67.596,121.791 68.5,122.5C 68.5,121.5 68.5,120.5 68.5,119.5C 70.5,119.5 72.5,119.5 74.5,119.5C 75.3382,119.842 75.6716,120.508 75.5,121.5C 77.1992,121.66 78.8659,121.494 80.5,121C 78.9419,120.79 77.6085,120.29 76.5,119.5C 79.5,119.5 82.5,119.5 85.5,119.5C 85.5,119.833 85.5,120.167 85.5,120.5C 83.3683,126.688 85.0349,128.688 90.5,126.5C 89.8555,125.268 89.6888,123.935 90,122.5C 87.9068,123.234 87.4068,122.567 88.5,120.5C 89.1667,120.5 89.5,120.167 89.5,119.5C 90.8333,119.5 92.1667,119.5 93.5,119.5C 94.5,119.5 95.5,119.5 96.5,119.5C 96.3379,121.527 96.5045,123.527 97,125.5C 97.0023,122.949 97.8356,120.949 99.5,119.5C 99.8333,119.5 100.167,119.5 100.5,119.5C 101.219,121.764 101.552,124.097 101.5,126.5C 103.75,126.819 105.75,126.319 107.5,125C 101.337,124.459 101.003,123.125 106.5,121C 104.618,120.802 102.952,120.302 101.5,119.5C 103.167,119.5 104.833,119.5 106.5,119.5C 107.167,120.167 107.833,120.833 108.5,121.5C 108.5,120.833 108.5,120.167 108.5,119.5C 110.5,119.5 112.5,119.5 114.5,119.5C 115.167,119.5 115.833,119.5 116.5,119.5C 117.833,119.5 119.167,119.5 120.5,119.5C 121.396,120.506 122.062,120.506 122.5,119.5C 122.833,119.5 123.167,119.5 123.5,119.5C 124.167,119.5 124.833,119.5 125.5,119.5C 126.167,119.5 126.833,119.5 127.5,119.5C 127.167,120.167 126.833,120.833 126.5,121.5C 122.419,124.874 117.753,127.207 112.5,128.5C 107.35,129.377 102.35,130.377 97.5,131.5C 87.2234,132.11 77.2234,130.777 67.5,127.5C 62.9136,126.54 58.9136,124.54 55.5,121.5C 55.1667,120.833 54.8333,120.167 54.5,119.5 Z"/></g>
<g><path style="opacity:1" fill="#0f0f0f" d="M 75.5,121.5 C 75.5,122.5 75.5,123.5 75.5,124.5C 79.1716,125.045 78.8383,125.378 74.5,125.5C 74.2322,123.901 74.5655,122.568 75.5,121.5 Z"/></g>
<g><path style="opacity:1" fill="#565656" d="M 88.5,120.5 C 87.4068,122.567 87.9068,123.234 90,122.5C 89.6888,123.935 89.8555,125.268 90.5,126.5C 85.0349,128.688 83.3683,126.688 85.5,120.5C 86.6522,119.375 87.6522,119.375 88.5,120.5 Z"/></g>
<g><path style="opacity:1" fill="#1f1f1f" d="M 68.5,122.5 C 70.2259,122.185 71.8925,122.019 73.5,122C 71.8516,123.677 70.1849,123.844 68.5,122.5 Z"/></g>
<g><path style="opacity:1" fill="#2c2c2c" d="M 108.5,121.5 C 110.876,124.401 112.709,124.068 114,120.5C 114.611,124.088 113.111,125.254 109.5,124C 108.748,123.329 108.414,122.496 108.5,121.5 Z"/></g>
<g><path style="opacity:1" fill="#eeeeee" d="M 25.5,134.5 C 24.8333,134.5 24.1667,134.5 23.5,134.5C 22.9035,133.065 22.9035,131.398 23.5,129.5C 24.2216,129.082 24.7216,128.416 25,127.5C 26.8068,129.706 26.9735,132.039 25.5,134.5 Z"/></g>
<g><path style="opacity:1" fill="#342e2c" d="M 152.5,134.5 C 150.973,134.573 149.973,133.906 149.5,132.5C 151.088,131.359 152.421,129.859 153.5,128C 155.635,127.365 157.635,127.699 159.5,129C 157.598,129.199 156.098,130.033 155,131.5C 154.667,130.833 154.333,130.167 154,129.5C 152.731,130.905 152.231,132.571 152.5,134.5 Z"/></g>
<g><path style="opacity:1" fill="#2c2c2e" d="M 37.5,130.5 C 47.6815,129.283 58.0149,129.283 68.5,130.5C 68.5,130.833 68.5,131.167 68.5,131.5C 58.1876,130.695 47.8542,130.362 37.5,130.5 Z"/></g>
<g><path style="opacity:1" fill="#756439" d="M 127.5,129.5 C 132.5,128.167 137.5,128.167 142.5,129.5C 142.5,129.833 142.5,130.167 142.5,130.5C 137.833,130.5 133.167,130.5 128.5,130.5C 128.5,129.833 128.167,129.5 127.5,129.5 Z"/></g>
<g><path style="opacity:1" fill="#565048" d="M 27.5,133.5 C 27.1583,134.338 26.4916,134.672 25.5,134.5C 26.9735,132.039 26.8068,129.706 25,127.5C 24.7216,128.416 24.2216,129.082 23.5,129.5C 23.6309,128.624 23.2975,127.957 22.5,127.5C 21.5832,128.127 20.5832,128.461 19.5,128.5C 19.6107,127.883 19.944,127.383 20.5,127C 26.4938,125.159 28.8271,127.326 27.5,133.5 Z"/></g>
<g><path style="opacity:1" fill="#313435" d="M 37.5,130.5 C 35.7857,131.738 33.7857,132.405 31.5,132.5C 33.1016,130.926 35.1016,130.259 37.5,130.5 Z"/></g>
<g><path style="opacity:1" fill="#616163" d="M 67.5,127.5 C 77.2234,130.777 87.2234,132.11 97.5,131.5C 97.5,131.833 97.5,132.167 97.5,132.5C 89.7342,132.869 82.0675,132.202 74.5,130.5C 73.2867,130.747 72.62,131.414 72.5,132.5C 70.901,132.768 69.5676,132.434 68.5,131.5C 68.5,131.167 68.5,130.833 68.5,130.5C 69.552,130.649 70.552,130.483 71.5,130C 69.9336,129.392 68.6002,128.558 67.5,127.5 Z"/></g>
<g><path style="opacity:1" fill="#3d3c38" d="M 127.5,129.5 C 128.167,129.5 128.5,129.833 128.5,130.5C 122.479,131.003 116.479,131.669 110.5,132.5C 115.872,130.613 121.539,129.613 127.5,129.5 Z"/></g>
<g><path style="opacity:1" fill="#494541" d="M 19.5,128.5 C 16.5375,131.964 13.3709,135.297 10,138.5C 9.33333,137.833 9.33333,137.167 10,136.5C 12.7663,133.223 15.933,130.557 19.5,128.5 Z"/></g>
<g><path style="opacity:1" fill="#f0ba1f" d="M 37.5,130.5 C 47.8542,130.362 58.1876,130.695 68.5,131.5C 69.5676,132.434 70.901,132.768 72.5,132.5C 73.1667,132.833 73.8333,133.167 74.5,133.5C 81.9751,134.743 89.3085,134.743 96.5,133.5C 97.1667,133.5 97.8333,133.5 98.5,133.5C 101.385,133.806 104.052,133.473 106.5,132.5C 107.833,132.5 109.167,132.5 110.5,132.5C 116.479,131.669 122.479,131.003 128.5,130.5C 133.167,130.5 137.833,130.5 142.5,130.5C 144.746,131.455 147.079,132.122 149.5,132.5C 149.973,133.906 150.973,134.573 152.5,134.5C 152.842,135.338 153.508,135.672 154.5,135.5C 155.355,136.531 156.022,137.697 156.5,139C 154.798,143.773 153.298,148.606 152,153.5C 151.29,154.973 150.124,155.64 148.5,155.5C 145.161,153.386 141.495,152.053 137.5,151.5C 130.679,150.345 123.679,150.179 116.5,151C 112.57,151.242 108.903,152.075 105.5,153.5C 104.833,153.5 104.167,153.5 103.5,153.5C 93.1708,154.745 82.8374,154.745 72.5,153.5C 71.5,153.5 70.5,153.5 69.5,153.5C 61.3066,150.701 52.9733,150.034 44.5,151.5C 38.9945,150.898 33.8278,151.898 29,154.5C 28.0979,154.257 27.2646,153.923 26.5,153.5C 26.5979,151.447 25.9313,149.78 24.5,148.5C 24.5905,145.848 23.9238,143.515 22.5,141.5C 22.7709,139.62 22.1042,138.287 20.5,137.5C 20.5,136.833 20.5,136.167 20.5,135.5C 21.791,135.737 22.791,135.404 23.5,134.5C 24.1667,134.5 24.8333,134.5 25.5,134.5C 26.4916,134.672 27.1583,134.338 27.5,133.5C 28.7079,132.766 30.0413,132.433 31.5,132.5C 33.7857,132.405 35.7857,131.738 37.5,130.5 Z"/></g>
<g><path style="opacity:1" fill="#202328" d="M 142.5,130.5 C 142.5,130.167 142.5,129.833 142.5,129.5C 145.241,129.707 147.574,130.707 149.5,132.5C 147.079,132.122 144.746,131.455 142.5,130.5 Z"/></g>
<g><path style="opacity:1" fill="#484745" d="M 161.5,131.5 C 161.56,130.957 161.893,130.624 162.5,130.5C 167.618,135.111 167.285,135.444 161.5,131.5 Z"/></g>
<g><path style="opacity:1" fill="#ededec" d="M 97.5,132.5 C 98.1667,132.5 98.5,132.833 98.5,133.5C 97.8333,133.5 97.1667,133.5 96.5,133.5C 88.9653,133.28 81.6319,133.28 74.5,133.5C 73.8333,133.167 73.1667,132.833 72.5,132.5C 72.62,131.414 73.2867,130.747 74.5,130.5C 82.0675,132.202 89.7342,132.869 97.5,132.5 Z"/></g>
<g><path style="opacity:1" fill="#7f7f7f" d="M 112.5,128.5 C 108.795,130.264 104.795,131.431 100.5,132C 102.473,132.495 104.473,132.662 106.5,132.5C 104.052,133.473 101.385,133.806 98.5,133.5C 98.5,132.833 98.1667,132.5 97.5,132.5C 97.5,132.167 97.5,131.833 97.5,131.5C 102.35,130.377 107.35,129.377 112.5,128.5 Z"/></g>
<g><path style="opacity:1" fill="#4f4f4e" d="M 23.5,129.5 C 22.9035,131.398 22.9035,133.065 23.5,134.5C 22.791,135.404 21.791,135.737 20.5,135.5C 20.9925,133.181 21.9925,131.181 23.5,129.5 Z"/></g>
<g><path style="opacity:1" fill="#737372" d="M 74.5,133.5 C 81.6319,133.28 88.9653,133.28 96.5,133.5C 89.3085,134.743 81.9751,134.743 74.5,133.5 Z"/></g>
<g><path style="opacity:1" fill="#5a5a57" d="M 172.5,141.5 C 169.984,140.4 168.984,138.733 169.5,136.5C 170.952,137.94 171.952,139.606 172.5,141.5 Z"/></g>
<g><path style="opacity:1" fill="#34373a" d="M 20.5,137.5 C 22.1042,138.287 22.7709,139.62 22.5,141.5C 21.3263,140.486 20.6596,139.153 20.5,137.5 Z"/></g>
<g><path style="opacity:1" fill="#957213" d="M 29.5,139.5 C 31.9767,140.12 31.9767,141.12 29.5,142.5C 30.1667,142.833 30.8333,143.167 31.5,143.5C 29.633,145.036 28.9663,146.703 29.5,148.5C 27.5484,145.272 27.5484,142.272 29.5,139.5 Z"/></g>
<g><path style="opacity:1" fill="#54400c" d="M 43.5,140.5 C 44.5,140.5 45.5,140.5 46.5,140.5C 46.5432,144.893 46.0432,145.226 45,141.5C 43.9568,145.226 43.4568,144.893 43.5,140.5 Z"/></g>
<g><path style="opacity:1" fill="#7e600e" d="M 143.5,141.5 C 147.195,140.874 148.029,141.874 146,144.5C 145.667,143.833 145.333,143.167 145,142.5C 142.602,146.402 142.102,146.068 143.5,141.5 Z"/></g>
<g><path style="opacity:1" fill="#916f12" d="M 52.5,136.5 C 55.0009,136.511 55.1676,137.178 53,138.5C 52.5045,140.473 52.3379,142.473 52.5,144.5C 51.1667,144.5 49.8333,144.5 48.5,144.5C 48.3118,142.897 48.8118,141.563 50,140.5C 50.3333,141.167 50.6667,141.833 51,142.5C 51.3153,140.414 51.8153,138.414 52.5,136.5 Z"/></g>
<g><path style="opacity:1" fill="#9f7913" d="M 132.5,138.5 C 133.376,138.369 134.043,138.702 134.5,139.5C 133.289,140.72 133.289,141.887 134.5,143C 133.975,143.692 133.308,144.192 132.5,144.5C 130.833,144.5 129.167,144.5 127.5,144.5C 126.808,143.975 126.308,143.308 126,142.5C 123.76,145.167 122.26,144.667 121.5,141C 123,138.833 124.167,139 125,141.5C 125.333,140.833 125.667,140.167 126,139.5C 127,140.5 128,141.5 129,142.5C 129.569,138.639 130.402,138.639 131.5,142.5C 132.429,141.311 132.762,139.978 132.5,138.5 Z"/></g>
<g><path style="opacity:1" fill="#51514f" d="M 172.5,141.5 C 173.906,141.973 174.573,142.973 174.5,144.5C 173.094,144.027 172.427,143.027 172.5,141.5 Z"/></g>
<g><path style="opacity:1" fill="#7b5e0c" d="M 106.5,143.5 C 107.568,142.566 108.901,142.232 110.5,142.5C 110.543,146.893 110.043,147.226 109,143.5C 108.23,144.598 107.397,144.598 106.5,143.5 Z"/></g>
<g><path style="opacity:1" fill="#80620f" d="M 89.5,141.5 C 90.559,143.726 90.3923,146.059 89,148.5C 88.4436,146.115 88.6103,143.782 89.5,141.5 Z"/></g>
<g><path style="opacity:1" fill="#1a1917" d="M 4.5,144.5 C 8.7352,145.436 13.0685,145.769 17.5,145.5C 17.6495,146.552 17.4828,147.552 17,148.5C 15.9914,147.342 14.6581,146.675 13,146.5C 9.78841,147.459 6.62174,147.459 3.5,146.5C 3.86273,145.817 4.19607,145.15 4.5,144.5 Z"/></g>
<g><path style="opacity:1" fill="#b78c17" d="M 56.5,139.5 C 57.9403,140.363 59.2736,140.363 60.5,139.5C 61.5904,140.727 62.9238,141.56 64.5,142C 63.9103,143.509 63.2436,145.009 62.5,146.5C 61.4763,145.147 60.143,144.48 58.5,144.5C 58.1667,140.5 57.8333,140.5 57.5,144.5C 53.561,144.822 52.7277,143.489 55,140.5C 56.0875,142.932 56.5875,142.598 56.5,139.5 Z"/></g>
<g><path style="opacity:1" fill="#3f382b" d="M 44.5,151.5 C 52.9733,150.034 61.3066,150.701 69.5,153.5C 61.1829,152.645 52.8496,151.979 44.5,151.5 Z"/></g>
<g><path style="opacity:1" fill="#44413b" d="M 162.5,156.5 C 162.5,156.833 162.5,157.167 162.5,157.5C 159.784,155.387 156.95,153.387 154,151.5C 153.527,153.779 152.527,155.779 151,157.5C 150.005,156.934 149.172,156.267 148.5,155.5C 150.124,155.64 151.29,154.973 152,153.5C 153.298,148.606 154.798,143.773 156.5,139C 156.022,137.697 155.355,136.531 154.5,135.5C 155.268,134.737 155.768,133.737 156,132.5C 156.635,133.966 157.469,135.3 158.5,136.5C 157.269,140.692 155.936,144.859 154.5,149C 157.041,151.71 159.708,154.21 162.5,156.5 Z"/></g>
<g><path style="opacity:1" fill="#504e4b" d="M 137.5,151.5 C 126.754,151.237 116.087,151.904 105.5,153.5C 108.903,152.075 112.57,151.242 116.5,151C 123.679,150.179 130.679,150.345 137.5,151.5 Z"/></g>
<g><path style="opacity:1" fill="#46413e" d="M 44.5,151.5 C 38.845,152.775 33.1783,154.442 27.5,156.5C 26.6143,155.675 26.281,154.675 26.5,153.5C 27.2646,153.923 28.0979,154.257 29,154.5C 33.8278,151.898 38.9945,150.898 44.5,151.5 Z"/></g>
<g><path style="opacity:1" fill="#312d28" d="M 72.5,153.5 C 82.8374,154.745 93.1708,154.745 103.5,153.5C 98.9229,154.99 94.0896,155.656 89,155.5C 83.2658,155.585 77.7658,154.918 72.5,153.5 Z"/></g>
<g><path style="opacity:1" fill="#8b8986" d="M 174.5,144.5 C 176.175,146.179 177.008,148.179 177,150.5C 173.413,148.583 169.58,147.583 165.5,147.5C 165.5,149.833 165.5,152.167 165.5,154.5C 164.9,155.9 163.9,156.9 162.5,157.5C 162.5,157.167 162.5,156.833 162.5,156.5C 163.244,153.64 163.911,150.64 164.5,147.5C 168.263,147.104 171.597,146.104 174.5,144.5 Z"/></g>
<g><path style="opacity:1" fill="#39342f" d="M 24.5,148.5 C 25.9313,149.78 26.5979,151.447 26.5,153.5C 25.5267,152.016 24.1933,151.516 22.5,152C 19.2959,154.869 16.4626,158.035 14,161.5C 13.8537,157.738 14.5203,154.072 16,150.5C 16.3052,152.557 16.3052,154.557 16,156.5C 18.7291,153.601 21.5624,150.934 24.5,148.5 Z"/></g>
<g><path style="opacity:1" fill="#39322b" d="M 165.5,154.5 C 165.663,156.857 165.497,159.19 165,161.5C 163.519,160.529 162.685,159.196 162.5,157.5C 163.9,156.9 164.9,155.9 165.5,154.5 Z"/></g>
</svg>
