<?xml version="1.0" encoding="UTF-8"?>
<!DOCTYPE svg PUBLIC "-//W3C//DTD SVG 1.1//EN" "http://www.w3.org/Graphics/SVG/1.1/DTD/svg11.dtd">
<svg xmlns="http://www.w3.org/2000/svg" version="1.1" width="760px" height="193px" style="shape-rendering:geometricPrecision; text-rendering:geometricPrecision; image-rendering:optimizeQuality; fill-rule:evenodd; clip-rule:evenodd" xmlns:xlink="http://www.w3.org/1999/xlink">
<g><path style="opacity:1" fill="#838282" d="M 93.5,-0.5 C 101.5,-0.5 109.5,-0.5 117.5,-0.5C 149.285,5.6151 170.618,23.9484 181.5,54.5C 181.5,55.1667 181.5,55.8333 181.5,56.5C 178.988,50.47 176.154,44.47 173,38.5C 172.23,37.4019 171.397,37.4019 170.5,38.5C 169.617,35.2957 167.95,32.6291 165.5,30.5C 166.429,28.6783 165.762,27.3449 163.5,26.5C 161.614,22.3718 159.947,22.0384 158.5,25.5C 158.972,22.6421 157.972,20.6421 155.5,19.5C 156.738,19.19 156.738,18.69 155.5,18C 149.992,13.743 143.992,10.243 137.5,7.5C 136.893,7.62358 136.56,7.95691 136.5,8.5C 135.508,8.67158 134.842,8.33825 134.5,7.5C 135.738,7.18999 135.738,6.68999 134.5,6C 105.025,-3.57774 78.0255,0.922258 53.5,19.5C 64.6861,8.57362 78.0194,1.90695 93.5,-0.5 Z"/></g>
<g><path style="opacity:1" fill="#1f1f1f" d="M 155.5,19.5 C 157.972,20.6421 158.972,22.6421 158.5,25.5C 158.44,26.0431 158.107,26.3764 157.5,26.5C 157.302,23.2148 155.635,21.5482 152.5,21.5C 153.934,24.6984 154.434,28.0317 154,31.5C 149.859,34.5842 147.026,33.5842 145.5,28.5C 145.453,26.9996 146.119,25.9996 147.5,25.5C 147.749,26.5821 147.915,27.9154 148,29.5C 149.11,31.0368 150.61,31.7035 152.5,31.5C 152.429,28.6887 151.762,26.022 150.5,23.5C 150.981,20.6857 152.648,19.3524 155.5,19.5 Z"/></g>
<g><path style="opacity:1" fill="#191919" d="M 165.5,30.5 C 167.95,32.6291 169.617,35.2957 170.5,38.5C 169.469,37.645 168.303,36.9783 167,36.5C 164.248,37.5863 161.748,39.0863 159.5,41C 158.5,41.6667 157.5,41.6667 156.5,41C 159.833,38.6667 163.167,36.3333 166.5,34C 165.833,33 165.167,32 164.5,31C 164.728,30.6012 165.062,30.4346 165.5,30.5 Z"/></g>
<g><path style="opacity:1" fill="#1d1d1d" d="M 47.5,27.5 C 48.3764,27.3691 49.0431,27.7025 49.5,28.5C 48.5197,29.9814 47.353,31.3147 46,32.5C 45.6992,35.0915 46.8659,35.9248 49.5,35C 50.6184,33.9264 51.6184,32.7598 52.5,31.5C 53.1081,33.6841 52.4414,35.6841 50.5,37.5C 51.3279,38.4147 52.3279,39.0814 53.5,39.5C 55.1667,38.1667 56.8333,36.8333 58.5,35.5C 58.8333,35.6667 59.1667,35.8333 59.5,36C 57.9966,38.839 55.9966,40.839 53.5,42C 50.0607,39.8614 46.894,37.3614 44,34.5C 43.7003,32.9343 44.2003,31.601 45.5,30.5C 46.4013,29.7095 47.0679,28.7095 47.5,27.5 Z"/></g>
<g><path style="opacity:1" fill="#f1f0f0" d="M 134.5,7.5 C 133.033,6.7084 131.7,6.7084 130.5,7.5C 129.165,11.1722 127.832,14.8389 126.5,18.5C 127.946,20.8348 130.113,22.1681 133,22.5C 133.5,22.1667 134,21.8333 134.5,21.5C 132.1,20.9146 130.1,19.7479 128.5,18C 128.78,16.605 129.447,15.4383 130.5,14.5C 132.412,16.1561 134.412,16.4895 136.5,15.5C 134.345,14.5896 132.345,13.4229 130.5,12C 130.998,10.8419 131.831,10.0085 133,9.5C 134.789,10.4091 136.623,10.5758 138.5,10C 137.956,9.28281 137.289,8.78281 136.5,8.5C 136.56,7.95691 136.893,7.62358 137.5,7.5C 143.992,10.243 149.992,13.743 155.5,18C 156.738,18.69 156.738,19.19 155.5,19.5C 152.648,19.3524 150.981,20.6857 150.5,23.5C 151.762,26.022 152.429,28.6887 152.5,31.5C 150.61,31.7035 149.11,31.0368 148,29.5C 147.915,27.9154 147.749,26.5821 147.5,25.5C 146.119,25.9996 145.453,26.9996 145.5,28.5C 147.026,33.5842 149.859,34.5842 154,31.5C 154.434,28.0317 153.934,24.6984 152.5,21.5C 155.635,21.5482 157.302,23.2148 157.5,26.5C 158.107,26.3764 158.44,26.0431 158.5,25.5C 159.947,22.0384 161.614,22.3718 163.5,26.5C 165.762,27.3449 166.429,28.6783 165.5,30.5C 165.062,30.4346 164.728,30.6012 164.5,31C 165.167,32 165.833,33 166.5,34C 163.167,36.3333 159.833,38.6667 156.5,41C 157.5,41.6667 158.5,41.6667 159.5,41C 161.748,39.0863 164.248,37.5863 167,36.5C 168.303,36.9783 169.469,37.645 170.5,38.5C 171.397,37.4019 172.23,37.4019 173,38.5C 176.154,44.47 178.988,50.47 181.5,56.5C 181.841,60.7087 182.508,64.8754 183.5,69C 183.624,71.7374 182.624,72.5707 180.5,71.5C 181.843,69.2159 181.176,68.3826 178.5,69C 175.436,73.7863 171.269,77.2863 166,79.5C 165.819,76.3054 165.319,73.3054 164.5,70.5C 164.231,65.7363 162.898,61.403 160.5,57.5C 160.206,54.2459 158.873,51.5792 156.5,49.5C 156.573,47.9731 155.906,46.9731 154.5,46.5C 154.262,44.5956 153.262,43.2623 151.5,42.5C 149.167,38.1667 145.833,34.8333 141.5,32.5C 141.027,31.0937 140.027,30.427 138.5,30.5C 137.341,28.7497 135.674,27.7497 133.5,27.5C 132.508,27.6716 131.842,27.3382 131.5,26.5C 130.22,25.0687 128.553,24.4021 126.5,24.5C 123.497,22.7383 120.163,21.5717 116.5,21C 104.438,19.3612 92.7717,20.6946 81.5,25C 79.4156,25.6972 77.7489,26.8639 76.5,28.5C 73.8021,28.8449 71.8021,30.1782 70.5,32.5C 67.5,33.5 65.5,35.5 64.5,38.5C 61.8333,39.1667 60.1667,40.8333 59.5,43.5C 57.7376,44.2623 56.7376,45.5956 56.5,47.5C 54.7497,48.6594 53.7497,50.326 53.5,52.5C 50.6657,56.6642 48.999,61.3308 48.5,66.5C 48.5,66.8333 48.5,67.1667 48.5,67.5C 46.9972,77.4463 47.4972,87.4463 50,97.5C 50.6082,99.0664 51.4415,100.4 52.5,101.5C 52.461,104.089 53.461,106.089 55.5,107.5C 55.427,109.027 56.0937,110.027 57.5,110.5C 57.427,112.027 58.0937,113.027 59.5,113.5C 61.8333,117.833 65.1667,121.167 69.5,123.5C 82.1074,134.419 96.774,138.586 113.5,136C 122.094,135.357 129.76,132.524 136.5,127.5C 139.674,126.99 142.008,125.323 143.5,122.5C 147.167,120.833 149.833,118.167 151.5,114.5C 153.262,113.738 154.262,112.404 154.5,110.5C 156.25,109.341 157.25,107.674 157.5,105.5C 159.226,103.058 160.726,100.391 162,97.5C 163.204,92.0348 164.37,86.7015 165.5,81.5C 166.15,81.1961 166.817,80.8627 167.5,80.5C 167.833,81.8333 168.167,83.1667 168.5,84.5C 172.271,79.3841 177.271,76.3841 183.5,75.5C 183.816,87.5841 181.816,99.2508 177.5,110.5C 155.378,148.833 122.712,162.333 79.5,151C 66.4057,146.057 55.0723,138.557 45.5,128.5C 32.3066,111.914 26.3066,92.9137 27.5,71.5C 30.7864,72.2419 32.1197,74.0753 31.5,77C 32.4368,77.6917 33.1034,77.525 33.5,76.5C 35.4258,77.2423 37.2591,78.2423 39,79.5C 39.7848,77.751 40.6182,76.0843 41.5,74.5C 44.2974,74.0334 45.6308,72.3667 45.5,69.5C 43.5,69.8333 41.5,70.1667 39.5,70.5C 37.917,63.9265 36.2503,63.9265 34.5,70.5C 32.9411,69.9264 31.4411,69.2598 30,68.5C 28.8932,69.7119 28.3932,69.3786 28.5,67.5C 30.4434,53.2807 35.9434,40.614 45,29.5C 45.3988,29.7284 45.5654,30.0618 45.5,30.5C 44.2003,31.601 43.7003,32.9343 44,34.5C 46.894,37.3614 50.0607,39.8614 53.5,42C 55.9966,40.839 57.9966,38.839 59.5,36C 59.1667,35.8333 58.8333,35.6667 58.5,35.5C 56.8333,36.8333 55.1667,38.1667 53.5,39.5C 52.3279,39.0814 51.3279,38.4147 50.5,37.5C 52.4414,35.6841 53.1081,33.6841 52.5,31.5C 51.6184,32.7598 50.6184,33.9264 49.5,35C 46.8659,35.9248 45.6992,35.0915 46,32.5C 47.353,31.3147 48.5197,29.9814 49.5,28.5C 49.0431,27.7025 48.3764,27.3691 47.5,27.5C 49.0908,24.5691 51.0908,21.9024 53.5,19.5C 78.0255,0.922258 105.025,-3.57774 134.5,6C 135.738,6.68999 135.738,7.18999 134.5,7.5 Z"/></g>
<g><path style="opacity:1" fill="#345431" d="M 64.5,38.5 C 63.1667,40.5 61.5,42.1667 59.5,43.5C 60.1667,40.8333 61.8333,39.1667 64.5,38.5 Z"/></g>
<g><path style="opacity:1" fill="#1e1d1d" d="M 39.5,38.5 C 44.5004,39.5008 49.167,41.3341 53.5,44C 50.4108,43.6151 47.4108,42.9484 44.5,42C 47.0196,43.7632 49.3529,45.7632 51.5,48C 48.5,48.3333 45.5,48.6667 42.5,49C 45.2179,50.0718 47.8845,51.2384 50.5,52.5C 45.766,52.5835 41.266,51.2501 37,48.5C 36.8333,48.1667 36.6667,47.8333 36.5,47.5C 38.1667,47.1667 39.8333,46.8333 41.5,46.5C 43.9035,46.8093 46.2368,46.976 48.5,47C 46.1667,45.3333 43.8333,43.6667 41.5,42C 40.1772,41.1841 39.5106,40.0174 39.5,38.5 Z"/></g>
<g><path style="opacity:1" fill="#2f6037" d="M 70.5,32.5 C 68.8333,34.8333 66.8333,36.8333 64.5,38.5C 65.5,35.5 67.5,33.5 70.5,32.5 Z"/></g>
<g><path style="opacity:1" fill="#52624b" d="M 141.5,32.5 C 145.833,34.8333 149.167,38.1667 151.5,42.5C 147.833,39.5 144.5,36.1667 141.5,32.5 Z"/></g>
<g><path style="opacity:1" fill="#1c1c1b" d="M 163.5,26.5 C 161.131,31.5771 157.464,34.5771 152.5,35.5C 155.895,32.0985 159.562,29.0985 163.5,26.5 Z"/></g>
<g><path style="opacity:1" fill="#454b3d" d="M 138.5,30.5 C 140.027,30.427 141.027,31.0937 141.5,32.5C 139.973,32.573 138.973,31.9063 138.5,30.5 Z"/></g>
<g><path style="opacity:1" fill="#2e452a" d="M 76.5,28.5 C 74.8525,30.3264 72.8525,31.6597 70.5,32.5C 71.8021,30.1782 73.8021,28.8449 76.5,28.5 Z"/></g>
<g><path style="opacity:1" fill="#2e462d" d="M 133.5,27.5 C 135.674,27.7497 137.341,28.7497 138.5,30.5C 136.326,30.2503 134.659,29.2503 133.5,27.5 Z"/></g>
<g><path style="opacity:1" fill="#213a22" d="M 126.5,24.5 C 128.553,24.4021 130.22,25.0687 131.5,26.5C 129.447,26.5979 127.78,25.9313 126.5,24.5 Z"/></g>
<g><path style="opacity:1" fill="#16d365" d="M 126.5,24.5 C 127.78,25.9313 129.447,26.5979 131.5,26.5C 131.842,27.3382 132.508,27.6716 133.5,27.5C 134.659,29.2503 136.326,30.2503 138.5,30.5C 138.973,31.9063 139.973,32.573 141.5,32.5C 144.5,36.1667 147.833,39.5 151.5,42.5C 151.738,44.4044 152.738,45.7377 154.5,46.5C 154.427,48.0269 155.094,49.0269 156.5,49.5C 156.896,52.721 158.229,55.3877 160.5,57.5C 165.144,73.8619 164.144,89.8619 157.5,105.5C 155.75,106.659 154.75,108.326 154.5,110.5C 152.738,111.262 151.738,112.596 151.5,114.5C 148.5,116.833 145.833,119.5 143.5,122.5C 140.883,123.786 138.55,125.453 136.5,127.5C 113.312,139.265 90.9789,137.932 69.5,123.5C 66.5,119.833 63.1667,116.5 59.5,113.5C 59.573,111.973 58.9063,110.973 57.5,110.5C 57.573,108.973 56.9063,107.973 55.5,107.5C 55.0075,105.181 54.0075,103.181 52.5,101.5C 49.1059,90.4435 47.7726,79.1102 48.5,67.5C 48.5,67.1667 48.5,66.8333 48.5,66.5C 50.6971,62.0891 52.3638,57.4225 53.5,52.5C 55.2503,51.3406 56.2503,49.674 56.5,47.5C 58.2624,46.7377 59.2624,45.4044 59.5,43.5C 61.5,42.1667 63.1667,40.5 64.5,38.5C 66.8333,36.8333 68.8333,34.8333 70.5,32.5C 72.8525,31.6597 74.8525,30.3264 76.5,28.5C 92.5997,20.7284 109.266,19.3951 126.5,24.5 Z"/></g>
<g><path style="opacity:1" fill="#f8c120" d="M 145.5,89.5 C 145.762,88.0222 145.429,86.6888 144.5,85.5C 140.032,82.8633 135.698,80.03 131.5,77C 126.558,71.7791 121.558,66.9458 116.5,62.5C 113.258,59.0082 110.258,55.3416 107.5,51.5C 104.361,54.4392 101.694,57.7725 99.5,61.5C 96.5113,57.2963 94.5113,57.6296 93.5,62.5C 90.5794,62.1459 88.2461,63.1459 86.5,65.5C 83.0753,69.5824 80.0753,73.9158 77.5,78.5C 73.4078,80.2575 70.7411,83.2575 69.5,87.5C 75.0478,97.3861 83.0478,104.386 93.5,108.5C 93.4312,111.084 92.2645,113.084 90,114.5C 89.7216,113.584 89.2216,112.918 88.5,112.5C 83.7335,111.976 79.7335,113.809 76.5,118C 74.2484,117.95 72.5818,116.784 71.5,114.5C 73.375,111.249 75.375,108.082 77.5,105C 76.4711,103.302 74.9711,102.468 73,102.5C 69.4589,103.578 65.9589,104.412 62.5,105C 61.4829,103.951 61.3162,102.784 62,101.5C 63.8962,99.4701 66.0629,97.8034 68.5,96.5C 69.6139,95.277 69.7805,93.9437 69,92.5C 64.9341,91.5363 60.7675,91.203 56.5,91.5C 56.5792,90.0695 56.2458,88.7362 55.5,87.5C 58.954,85.5493 62.6206,84.0493 66.5,83C 67.3802,81.6439 67.7135,80.1439 67.5,78.5C 63.5,77.8333 59.5,77.1667 55.5,76.5C 55.5,74.5 55.5,72.5 55.5,70.5C 71.1312,71.6245 72.4646,67.9578 59.5,59.5C 60.0736,57.9411 60.7402,56.4411 61.5,55C 64.9589,55.5884 68.4589,56.4217 72,57.5C 74.7791,57.3896 76.1125,56.0563 76,53.5C 74.0227,50.6884 71.856,48.0217 69.5,45.5C 70.9448,43.9373 72.6115,42.604 74.5,41.5C 77.319,44.075 80.319,46.4083 83.5,48.5C 85.2303,47.9744 86.5637,46.9744 87.5,45.5C 85.5628,41.9494 85.2295,38.2828 86.5,34.5C 87.4461,34.0133 88.4461,33.6799 89.5,33.5C 91.963,35.7317 93.963,38.3984 95.5,41.5C 97.0745,42.6309 98.7412,42.7975 100.5,42C 101.888,38.2834 102.888,34.45 103.5,30.5C 105.5,30.5 107.5,30.5 109.5,30.5C 110.114,34.1352 110.448,37.8019 110.5,41.5C 112.199,41.6602 113.866,41.4935 115.5,41C 117.312,37.8655 119.479,35.0322 122,32.5C 122.873,32.7355 123.707,33.0688 124.5,33.5C 125.603,36.6394 125.603,39.806 124.5,43C 125.105,45.8015 126.771,46.8015 129.5,46C 132.176,43.186 135.176,41.186 138.5,40C 139.687,41.0195 140.687,42.1861 141.5,43.5C 133.547,55.2173 136.213,58.2173 149.5,52.5C 151.312,52.9515 152.312,54.1182 152.5,56C 150.59,59.0486 148.09,61.5486 145,63.5C 144.333,64.5 144.333,65.5 145,66.5C 149.401,67.4667 153.901,67.8 158.5,67.5C 158.5,69.1667 158.5,70.8333 158.5,72.5C 155.157,73.2239 151.824,74.0572 148.5,75C 147.24,76.8138 147.24,78.6471 148.5,80.5C 151.727,81.9094 155.06,82.9094 158.5,83.5C 158.5,84.8333 158.5,86.1667 158.5,87.5C 154.092,87.925 149.758,88.5916 145.5,89.5 Z"/></g>
<g><path style="opacity:1" fill="#1a1919" d="M 56.5,19.5 C 60.8004,19.8153 62.467,22.1486 61.5,26.5C 63.6957,26.5652 65.6957,27.2319 67.5,28.5C 67,28.8333 66.5,29.1667 66,29.5C 63.6813,28.1287 61.1813,27.4621 58.5,27.5C 58.5494,30.0991 59.5494,32.2658 61.5,34C 57.1687,32.1765 53.8353,29.0098 51.5,24.5C 52.8818,22.4514 54.5484,20.7847 56.5,19.5 Z"/></g>
<g><path style="opacity:1" fill="#e9e9e9" d="M 56.5,21.5 C 60.4153,23.1983 60.4153,25.1983 56.5,27.5C 55.1667,26.8333 54.1667,25.8333 53.5,24.5C 54.7701,23.7124 55.7701,22.7124 56.5,21.5 Z"/></g>
<g><path style="opacity:1" fill="#364c36" d="M 126.5,24.5 C 109.266,19.3951 92.5997,20.7284 76.5,28.5C 77.7489,26.8639 79.4156,25.6972 81.5,25C 92.7717,20.6946 104.438,19.3612 116.5,21C 120.163,21.5717 123.497,22.7383 126.5,24.5 Z"/></g>
<g><path style="opacity:1" fill="#1c1c1b" d="M 68.5,11.5 C 71.4359,14.5208 73.7692,18.0208 75.5,22C 73.9495,26.2452 71.1161,27.4118 67,25.5C 65.1667,22.5 63.3333,19.5 61.5,16.5C 62.1667,15.1667 62.8333,15.1667 63.5,16.5C 65.0426,19.086 66.7093,21.586 68.5,24C 70.9248,24.9859 72.5915,24.3193 73.5,22C 71.4069,18.6492 69.7402,15.1492 68.5,11.5 Z"/></g>
<g><path style="opacity:1" fill="#1b1b1a" d="M 142.5,11.5 C 145.626,12.3882 147.959,14.2215 149.5,17C 149.208,20.1206 147.541,21.6206 144.5,21.5C 144.808,23.924 144.474,26.2573 143.5,28.5C 142.792,25.6336 142.125,22.8003 141.5,20C 139.233,20.6336 137.233,21.6336 135.5,23C 137.468,18.8888 139.801,15.0555 142.5,11.5 Z"/></g>
<g><path style="opacity:1" fill="#f0f0f0" d="M 142.5,14.5 C 145.524,14.3642 147.024,15.6975 147,18.5C 144.507,19.9455 142.673,19.2789 141.5,16.5C 141.863,15.8165 142.196,15.1499 142.5,14.5 Z"/></g>
<g><path style="opacity:1" fill="#191818" d="M 95.5,3.5 C 97.3684,6.15776 98.3684,9.32442 98.5,13C 97.3452,18.4907 94.5119,19.6574 90,16.5C 89.1654,12.8212 88.332,9.15457 87.5,5.5C 88.1667,4.16667 88.8333,4.16667 89.5,5.5C 90.2435,8.44299 90.7435,11.443 91,14.5C 94.1886,17.4929 96.0219,16.8263 96.5,12.5C 95.8384,9.5318 95.505,6.5318 95.5,3.5 Z"/></g>
<g><path style="opacity:1" fill="#252524" d="M 118.5,4.5 C 120.26,7.70063 121.094,11.3673 121,15.5C 122.92,12.6612 124.587,9.66117 126,6.5C 126.893,5.28882 127.726,5.28882 128.5,6.5C 126.192,10.795 123.526,14.795 120.5,18.5C 119.808,17.9747 119.308,17.3081 119,16.5C 118.501,12.5138 118.334,8.51383 118.5,4.5 Z"/></g>
<g><path style="opacity:1" fill="#1b1b1b" d="M 113.5,3.5 C 114.376,3.36912 115.043,3.70245 115.5,4.5C 114.888,8.81985 114.222,13.1532 113.5,17.5C 112.82,12.8798 112.82,8.21313 113.5,3.5 Z"/></g>
<g><path style="opacity:1" fill="#1c1c1c" d="M 108.5,3.5 C 109.486,7.97005 109.819,12.6367 109.5,17.5C 107.108,14.4022 104.942,11.0689 103,7.5C 102.824,10.8818 102.324,14.2152 101.5,17.5C 100.167,12.5 100.167,7.5 101.5,2.5C 103.916,5.66281 106.082,8.99614 108,12.5C 108.498,9.51838 108.665,6.51838 108.5,3.5 Z"/></g>
<g><path style="opacity:1" fill="#1c1c1c" d="M 134.5,7.5 C 134.842,8.33825 135.508,8.67158 136.5,8.5C 137.289,8.78281 137.956,9.28281 138.5,10C 136.623,10.5758 134.789,10.4091 133,9.5C 131.831,10.0085 130.998,10.8419 130.5,12C 132.345,13.4229 134.345,14.5896 136.5,15.5C 134.412,16.4895 132.412,16.1561 130.5,14.5C 129.447,15.4383 128.78,16.605 128.5,18C 130.1,19.7479 132.1,20.9146 134.5,21.5C 134,21.8333 133.5,22.1667 133,22.5C 130.113,22.1681 127.946,20.8348 126.5,18.5C 127.832,14.8389 129.165,11.1722 130.5,7.5C 131.7,6.7084 133.033,6.7084 134.5,7.5 Z"/></g>
<g><path style="opacity:1" fill="#5e5e5d" d="M 108.5,3.5 C 108.56,2.95691 108.893,2.62358 109.5,2.5C 110.814,7.6523 110.814,12.6523 109.5,17.5C 109.819,12.6367 109.486,7.97005 108.5,3.5 Z"/></g>
<g><path style="opacity:1" fill="#275028" d="M 151.5,42.5 C 153.262,43.2623 154.262,44.5956 154.5,46.5C 152.738,45.7377 151.738,44.4044 151.5,42.5 Z"/></g>
<g><path style="opacity:1" fill="#2d4e2d" d="M 59.5,43.5 C 59.2624,45.4044 58.2624,46.7377 56.5,47.5C 56.7376,45.5956 57.7376,44.2623 59.5,43.5 Z"/></g>
<g><path style="opacity:1" fill="#1d1d1d" d="M 170.5,40.5 C 171.376,40.3691 172.043,40.7025 172.5,41.5C 171.167,43.1667 169.833,44.8333 168.5,46.5C 170.833,47.1667 173.167,47.8333 175.5,48.5C 172.522,49.6488 169.522,49.6488 166.5,48.5C 164.726,48.8868 163.059,49.5535 161.5,50.5C 160.479,49.9984 160.312,49.3317 161,48.5C 165.579,47.4148 168.745,44.7481 170.5,40.5 Z"/></g>
<g><path style="opacity:1" fill="#24301e" d="M 154.5,46.5 C 155.906,46.9731 156.573,47.9731 156.5,49.5C 155.094,49.0269 154.427,48.0269 154.5,46.5 Z"/></g>
<g><path style="opacity:1" fill="#333b29" d="M 56.5,47.5 C 56.2503,49.674 55.2503,51.3406 53.5,52.5C 53.7497,50.326 54.7497,48.6594 56.5,47.5 Z"/></g>
<g><path style="opacity:1" fill="#f3faf3" d="M 116.5,62.5 C 116.047,63.4584 115.381,64.2917 114.5,65C 106.924,67.6641 99.9244,66.8307 93.5,62.5C 94.5113,57.6296 96.5113,57.2963 99.5,61.5C 101.694,57.7725 104.361,54.4392 107.5,51.5C 110.258,55.3416 113.258,59.0082 116.5,62.5 Z"/></g>
<g><path style="opacity:1" fill="#373630" d="M 156.5,49.5 C 158.873,51.5792 160.206,54.2459 160.5,57.5C 158.229,55.3877 156.896,52.721 156.5,49.5 Z"/></g>
<g><path style="opacity:1" fill="#374d37" d="M 53.5,52.5 C 52.3638,57.4225 50.6971,62.0891 48.5,66.5C 48.999,61.3308 50.6657,56.6642 53.5,52.5 Z"/></g>
<g><path style="opacity:1" fill="#16d364" d="M 93.5,62.5 C 99.9244,66.8307 106.924,67.6641 114.5,65C 115.381,64.2917 116.047,63.4584 116.5,62.5C 121.558,66.9458 126.558,71.7791 131.5,77C 135.698,80.03 140.032,82.8633 144.5,85.5C 145.429,86.6888 145.762,88.0222 145.5,89.5C 139.451,98.5205 131.118,104.02 120.5,106C 122.309,103.762 124.642,102.595 127.5,102.5C 127.67,101.178 127.337,100.011 126.5,99C 116.58,100.271 113.246,96.4374 116.5,87.5C 114.833,86.1667 113.167,86.1667 111.5,87.5C 110.367,90.4879 108.367,92.4879 105.5,93.5C 104.5,93.3333 103.5,93.1667 102.5,93C 100.65,90.9824 98.6499,89.1491 96.5,87.5C 92.7849,89.4647 92.6183,91.798 96,94.5C 96.6667,95.8333 96.6667,97.1667 96,98.5C 92.6064,99.4558 89.1064,99.7892 85.5,99.5C 85.238,100.978 85.5713,102.311 86.5,103.5C 89.5699,104.284 92.2366,105.617 94.5,107.5C 94.5,108.167 94.1667,108.5 93.5,108.5C 83.0478,104.386 75.0478,97.3861 69.5,87.5C 70.7411,83.2575 73.4078,80.2575 77.5,78.5C 80.0753,73.9158 83.0753,69.5824 86.5,65.5C 88.2461,63.1459 90.5794,62.1459 93.5,62.5 Z"/></g>
<g><path style="opacity:0.849" fill="#01af53" d="M 342.5,64.5 C 345.634,65.9009 348.634,67.5675 351.5,69.5C 352.497,77.1378 352.831,84.8045 352.5,92.5C 357.833,92.5 363.167,92.5 368.5,92.5C 368.5,84.8333 368.5,77.1667 368.5,69.5C 371.833,69.5 375.167,69.5 378.5,69.5C 378.666,77.1739 378.5,84.8406 378,92.5C 375.81,94.3884 373.977,96.5551 372.5,99C 364.5,99.6667 356.5,99.6667 348.5,99C 347.023,96.5551 345.19,94.3884 343,92.5C 342.5,83.1726 342.334,73.8393 342.5,64.5 Z"/></g>
<g><path style="opacity:0.913" fill="#01af53" d="M 408.5,64.5 C 411.139,66.1558 413.805,67.8224 416.5,69.5C 417.497,77.1378 417.831,84.8045 417.5,92.5C 423.167,92.5 428.833,92.5 434.5,92.5C 434.5,84.8333 434.5,77.1667 434.5,69.5C 437.5,69.5 440.5,69.5 443.5,69.5C 443.666,77.5069 443.5,85.5069 443,93.5C 441.167,95.3333 439.333,97.1667 437.5,99C 429.833,99.6667 422.167,99.6667 414.5,99C 412.667,97.1667 410.833,95.3333 409,93.5C 408.5,83.8391 408.334,74.1724 408.5,64.5 Z"/></g>
<g><path style="opacity:1" fill="#c9c9c9" d="M 41.5,74.5 C 39.4508,74.2942 39.1175,73.4609 40.5,72C 38.8016,72.4969 37.1349,72.3302 35.5,71.5C 34.438,73.0217 33.7713,74.6883 33.5,76.5C 33.1034,77.525 32.4368,77.6917 31.5,77C 32.1197,74.0753 30.7864,72.2419 27.5,71.5C 27.2322,69.901 27.5655,68.5676 28.5,67.5C 28.3932,69.3786 28.8932,69.7119 30,68.5C 31.4411,69.2598 32.9411,69.9264 34.5,70.5C 36.2503,63.9265 37.917,63.9265 39.5,70.5C 41.5,70.1667 43.5,69.8333 45.5,69.5C 45.6308,72.3667 44.2974,74.0334 41.5,74.5 Z"/></g>
<g><path style="opacity:0.88" fill="#01af53" d="M 215.5,69.5 C 219.182,69.3347 222.848,69.5014 226.5,70C 230.457,75.4127 234.29,80.9127 238,86.5C 242.167,81 246.333,75.5 250.5,70C 253.817,69.5017 257.15,69.335 260.5,69.5C 260.5,79.5 260.5,89.5 260.5,99.5C 257.5,99.5 254.5,99.5 251.5,99.5C 251.666,93.8236 251.499,88.1569 251,82.5C 248.361,86.6388 245.528,90.6388 242.5,94.5C 239.894,95.6517 237.227,95.8184 234.5,95C 231.789,91.0776 228.955,87.2443 226,83.5C 225.667,88.8333 225.333,94.1667 225,99.5C 222.084,101.041 219.251,102.707 216.5,104.5C 215.501,92.8523 215.168,81.1857 215.5,69.5 Z"/></g>
<g><path style="opacity:0.906" fill="#01af53" d="M 264.5,69.5 C 275.853,69.1678 287.186,69.5012 298.5,70.5C 296.684,72.8169 294.684,74.9835 292.5,77C 286.175,77.4995 279.842,77.6662 273.5,77.5C 273.5,78.8333 273.5,80.1667 273.5,81.5C 280.508,81.3337 287.508,81.5004 294.5,82C 292.833,83.6667 291.167,85.3333 289.5,87C 284.177,87.4994 278.844,87.666 273.5,87.5C 273.5,89.1667 273.5,90.8333 273.5,92.5C 281.507,92.3336 289.507,92.5003 297.5,93C 295.5,95 293.5,97 291.5,99C 282.506,99.4998 273.506,99.6664 264.5,99.5C 264.5,89.5 264.5,79.5 264.5,69.5 Z"/></g>
<g><path style="opacity:0.881" fill="#01af53" d="M 301.5,69.5 C 311.839,69.3335 322.172,69.5002 332.5,70C 334.506,73.0168 336.506,76.0168 338.5,79C 337.299,81.2339 335.965,83.4006 334.5,85.5C 338.174,89.3675 339.507,94.0342 338.5,99.5C 335.5,99.5 332.5,99.5 329.5,99.5C 330.186,95.713 329.186,92.5463 326.5,90C 321.177,89.5006 315.844,89.334 310.5,89.5C 310.665,92.8499 310.498,96.1832 310,99.5C 307.586,101.291 305.086,102.957 302.5,104.5C 301.501,92.8523 301.168,81.1857 301.5,69.5 Z M 310.5,77.5 C 316.206,77.1712 321.872,77.5046 327.5,78.5C 328.711,79.7202 328.711,80.8869 327.5,82C 321.843,82.4994 316.176,82.6661 310.5,82.5C 310.5,80.8333 310.5,79.1667 310.5,77.5 Z"/></g>
<g><path style="opacity:0.884" fill="#01af53" d="M 448.5,69.5 C 450.857,69.3367 453.19,69.5034 455.5,70C 461.389,75.5236 467.556,80.6903 474,85.5C 474.499,80.1771 474.666,74.8437 474.5,69.5C 477.833,69.5 481.167,69.5 484.5,69.5C 484.5,79.5 484.5,89.5 484.5,99.5C 481.813,99.6641 479.146,99.4974 476.5,99C 470.041,94.2096 463.874,89.0429 458,83.5C 457.667,88.8333 457.333,94.1667 457,99.5C 454.165,100.916 451.498,102.583 449,104.5C 448.5,92.8381 448.333,81.1714 448.5,69.5 Z"/></g>
<g><path style="opacity:0.816" fill="#01af53" d="M 487.5,69.5 C 490.833,69.5 494.167,69.5 497.5,69.5C 497.666,79.5056 497.5,89.5056 497,99.5C 494.084,101.041 491.251,102.707 488.5,104.5C 487.501,92.8523 487.168,81.1857 487.5,69.5 Z"/></g>
<g><path style="opacity:0.862" fill="#01af53" d="M 501.5,69.5 C 504.518,69.3354 507.518,69.502 510.5,70C 514.127,76.0855 517.627,82.2521 521,88.5C 524.88,82.577 528.38,76.4103 531.5,70C 534.833,69.3333 538.167,69.3333 541.5,70C 536.206,79.4201 531.04,88.9201 526,98.5C 522.875,99.7874 519.709,99.7874 516.5,98.5C 511.219,88.9368 506.219,79.2701 501.5,69.5 Z"/></g>
<g><path style="opacity:0.88" fill="#01af53" d="M 543.5,69.5 C 555.186,69.1678 566.852,69.5011 578.5,70.5C 576.684,72.8169 574.684,74.9835 572.5,77C 565.842,77.4996 559.175,77.6663 552.5,77.5C 552.5,78.8333 552.5,80.1667 552.5,81.5C 559.841,81.3337 567.174,81.5003 574.5,82C 572.833,83.6667 571.167,85.3333 569.5,87C 563.843,87.4994 558.176,87.6661 552.5,87.5C 552.5,89.1667 552.5,90.8333 552.5,92.5C 560.84,92.3336 569.173,92.5003 577.5,93C 575.5,95 573.5,97 571.5,99C 562.173,99.4998 552.839,99.6665 543.5,99.5C 543.5,89.5 543.5,79.5 543.5,69.5 Z"/></g>
<g><path style="opacity:0.89" fill="#01af53" d="M 581.5,69.5 C 591.506,69.3335 601.506,69.5002 611.5,70C 613.833,73 616.167,76 618.5,79C 616.833,81.3333 615.167,83.6667 613.5,86C 618.055,89.3344 619.722,93.8344 618.5,99.5C 615.167,99.5 611.833,99.5 608.5,99.5C 609.006,95.9929 608.34,92.8263 606.5,90C 601.177,89.5006 595.844,89.334 590.5,89.5C 590.665,92.8499 590.498,96.1832 590,99.5C 587.165,100.916 584.498,102.583 582,104.5C 581.5,92.8381 581.333,81.1714 581.5,69.5 Z M 590.5,77.5 C 595.844,77.334 601.177,77.5006 606.5,78C 609.167,79.3333 609.167,80.6667 606.5,82C 601.177,82.4994 595.844,82.666 590.5,82.5C 590.5,80.8333 590.5,79.1667 590.5,77.5 Z"/></g>
<g><path style="opacity:0.879" fill="#01af53" d="M 628.5,69.5 C 639.853,69.1678 651.186,69.5012 662.5,70.5C 660.684,72.8169 658.684,74.9835 656.5,77C 648.335,77.0317 640.335,77.6984 632.5,79C 633.167,79.6667 633.833,80.3333 634.5,81C 641.833,81.3333 649.167,81.6667 656.5,82C 658.694,84.6947 660.694,87.528 662.5,90.5C 660.5,93.1667 658.5,95.8333 656.5,98.5C 645.167,99.8333 633.833,99.8333 622.5,98.5C 623.982,96.5171 625.649,94.6837 627.5,93C 635.167,92.6667 642.833,92.3333 650.5,92C 651.833,90.6667 651.833,89.3333 650.5,88C 642.812,87.8315 635.145,87.3315 627.5,86.5C 625.455,84.2412 623.789,81.7412 622.5,79C 624.313,75.6926 626.313,72.526 628.5,69.5 Z"/></g>
<g><path style="opacity:0.816" fill="#01af53" d="M 665.5,69.5 C 668.833,69.5 672.167,69.5 675.5,69.5C 675.666,79.5056 675.5,89.5056 675,99.5C 672.084,101.041 669.251,102.707 666.5,104.5C 665.501,92.8523 665.168,81.1857 665.5,69.5 Z"/></g>
<g><path style="opacity:0.823" fill="#01af53" d="M 679.5,69.5 C 692.184,69.1676 704.851,69.5009 717.5,70.5C 715.684,72.8169 713.684,74.9835 711.5,77C 708.854,77.4974 706.187,77.6641 703.5,77.5C 703.666,84.8409 703.5,92.1742 703,99.5C 700.084,101.041 697.251,102.707 694.5,104.5C 693.502,95.5246 693.168,86.5246 693.5,77.5C 686.636,78.6297 681.97,75.9631 679.5,69.5 Z"/></g>
<g><path style="opacity:0.854" fill="#01af53" d="M 759.5,69.5 C 759.5,70.1667 759.5,70.8333 759.5,71.5C 754.535,75.9634 749.702,80.6301 745,85.5C 744.667,90.1667 744.333,94.8333 744,99.5C 741.502,101.417 738.835,103.084 736,104.5C 735.667,98.1667 735.333,91.8333 735,85.5C 729.985,80.6519 725.152,75.6519 720.5,70.5C 724.122,69.3414 727.789,69.1747 731.5,70C 734.333,72.8333 737.167,75.6667 740,78.5C 742.833,75.6667 745.667,72.8333 748.5,70C 752.152,69.5014 755.818,69.3347 759.5,69.5 Z"/></g>
<g><path style="opacity:1" fill="#8e8e8e" d="M 41.5,74.5 C 40.6182,76.0843 39.7848,77.751 39,79.5C 37.2591,78.2423 35.4258,77.2423 33.5,76.5C 33.7713,74.6883 34.438,73.0217 35.5,71.5C 37.1349,72.3302 38.8016,72.4969 40.5,72C 39.1175,73.4609 39.4508,74.2942 41.5,74.5 Z"/></g>
<g><path style="opacity:1" fill="#949393" d="M 181.5,54.5 C 187.858,74.0355 186.524,93.0355 177.5,111.5C 177.5,111.167 177.5,110.833 177.5,110.5C 181.816,99.2508 183.816,87.5841 183.5,75.5C 177.271,76.3841 172.271,79.3841 168.5,84.5C 168.167,83.1667 167.833,81.8333 167.5,80.5C 166.817,80.8627 166.15,81.1961 165.5,81.5C 164.577,77.9359 164.244,74.2693 164.5,70.5C 165.319,73.3054 165.819,76.3054 166,79.5C 171.269,77.2863 175.436,73.7863 178.5,69C 181.176,68.3826 181.843,69.2159 180.5,71.5C 182.624,72.5707 183.624,71.7374 183.5,69C 182.508,64.8754 181.841,60.7087 181.5,56.5C 181.5,55.8333 181.5,55.1667 181.5,54.5 Z"/></g>
<g><path style="opacity:1" fill="#7f7f7e" d="M 53.5,19.5 C 51.0908,21.9024 49.0908,24.5691 47.5,27.5C 47.0679,28.7095 46.4013,29.7095 45.5,30.5C 45.5654,30.0618 45.3988,29.7284 45,29.5C 35.9434,40.614 30.4434,53.2807 28.5,67.5C 27.5655,68.5676 27.2322,69.901 27.5,71.5C 26.3066,92.9137 32.3066,111.914 45.5,128.5C 45.5,128.833 45.5,129.167 45.5,129.5C 25.1735,104.931 20.6735,77.5976 32,47.5C 37.0391,36.3672 44.2058,27.0338 53.5,19.5 Z"/></g>
<g><path style="opacity:1" fill="#2e462e" d="M 48.5,67.5 C 47.7726,79.1102 49.1059,90.4435 52.5,101.5C 51.4415,100.4 50.6082,99.0664 50,97.5C 47.4972,87.4463 46.9972,77.4463 48.5,67.5 Z"/></g>
<g><path style="opacity:1" fill="#f8c42b" d="M 145.5,89.5 C 145.343,90.8734 145.51,92.2068 146,93.5C 148.921,95.3771 151.754,97.3771 154.5,99.5C 153.754,100.736 153.421,102.07 153.5,103.5C 149.028,102.942 144.695,102.109 140.5,101C 139.426,101.739 138.759,102.739 138.5,104C 140.093,107.262 142.093,110.262 144.5,113C 143.315,114.353 141.981,115.52 140.5,116.5C 136.979,113.752 133.312,111.586 129.5,110C 128.426,110.739 127.759,111.739 127.5,113C 128.659,116.451 129.159,119.951 129,123.5C 127.559,124.26 126.059,124.926 124.5,125.5C 121.748,122.996 119.748,119.996 118.5,116.5C 127.47,117.534 128.47,115.2 121.5,109.5C 121.167,109.667 120.833,109.833 120.5,110C 122.019,111.351 123.352,112.851 124.5,114.5C 124.291,115.086 123.957,115.586 123.5,116C 114.619,111.447 109.619,114.28 108.5,124.5C 107.178,124.67 106.011,124.337 105,123.5C 105.649,118.178 103.483,115.345 98.5,115C 97.944,115.383 97.6107,115.883 97.5,116.5C 89.5019,119.175 88.6685,117.509 95,111.5C 95.765,109.934 95.5983,108.601 94.5,107.5C 92.2366,105.617 89.5699,104.284 86.5,103.5C 85.5713,102.311 85.238,100.978 85.5,99.5C 89.1064,99.7892 92.6064,99.4558 96,98.5C 96.6667,97.1667 96.6667,95.8333 96,94.5C 92.6183,91.798 92.7849,89.4647 96.5,87.5C 98.6499,89.1491 100.65,90.9824 102.5,93C 103.5,93.1667 104.5,93.3333 105.5,93.5C 108.367,92.4879 110.367,90.4879 111.5,87.5C 113.167,86.1667 114.833,86.1667 116.5,87.5C 113.246,96.4374 116.58,100.271 126.5,99C 127.337,100.011 127.67,101.178 127.5,102.5C 124.642,102.595 122.309,103.762 120.5,106C 131.118,104.02 139.451,98.5205 145.5,89.5 Z"/></g>
<g><path style="opacity:1" fill="#2e352b" d="M 160.5,57.5 C 162.898,61.403 164.231,65.7363 164.5,70.5C 164.244,74.2693 164.577,77.9359 165.5,81.5C 164.37,86.7015 163.204,92.0348 162,97.5C 160.726,100.391 159.226,103.058 157.5,105.5C 164.144,89.8619 165.144,73.8619 160.5,57.5 Z"/></g>
<g><path style="opacity:1" fill="#191919" d="M 40.5,95.5 C 46.487,94.9773 48.487,97.4773 46.5,103C 43.3759,104.687 40.2092,104.854 37,103.5C 35.7801,99.7069 36.9468,97.0402 40.5,95.5 Z"/></g>
<g><path style="opacity:1" fill="#e3e3e3" d="M 39.5,97.5 C 41.5273,97.3379 43.5273,97.5045 45.5,98C 46.5171,99.0495 46.6838,100.216 46,101.5C 42.7517,104.259 39.9184,104.093 37.5,101C 37.9783,99.6974 38.645,98.5307 39.5,97.5 Z"/></g>
<g><path style="opacity:1" fill="#2f2f2f" d="M 167.5,94.5 C 170.555,97.6945 174.222,99.8612 178.5,101C 176.623,101.576 174.789,101.409 173,100.5C 171.128,101.068 169.295,101.735 167.5,102.5C 167.167,102.167 166.833,101.833 166.5,101.5C 167.665,100.416 168.998,99.5831 170.5,99C 168.859,97.871 167.859,96.371 167.5,94.5 Z"/></g>
<g><path style="opacity:1" fill="#393f33" d="M 52.5,101.5 C 54.0075,103.181 55.0075,105.181 55.5,107.5C 53.461,106.089 52.461,104.089 52.5,101.5 Z"/></g>
<g><path style="opacity:1" fill="#2c2b2b" d="M 165.5,109.5 C 163.399,105.169 164.733,103.336 169.5,104C 168.437,105.188 167.103,105.688 165.5,105.5C 165.5,106.833 165.5,108.167 165.5,109.5 Z"/></g>
<g><path style="opacity:1" fill="#2d2c2c" d="M 45.5,104.5 C 49.3232,104.167 50.8232,105.834 50,109.5C 49.0922,107.561 47.5922,106.561 45.5,106.5C 46.0522,108.331 46.0522,109.997 45.5,111.5C 44.3801,107.184 42.2134,106.518 39,109.5C 38.8333,109.167 38.6667,108.833 38.5,108.5C 40.7654,106.873 43.0987,105.539 45.5,104.5 Z"/></g>
<g><path style="opacity:1" fill="#2a2929" d="M 172.5,112.5 C 171.127,112.657 169.793,112.49 168.5,112C 170.058,111.79 171.391,111.29 172.5,110.5C 173.782,109.292 173.782,107.958 172.5,106.5C 171.833,107.167 171.167,107.833 170.5,108.5C 169.491,106.815 169.991,105.482 172,104.5C 176.438,106.843 176.605,109.509 172.5,112.5 Z"/></g>
<g><path style="opacity:1" fill="#333227" d="M 157.5,105.5 C 157.25,107.674 156.25,109.341 154.5,110.5C 154.75,108.326 155.75,106.659 157.5,105.5 Z"/></g>
<g><path style="opacity:1" fill="#35392d" d="M 55.5,107.5 C 56.9063,107.973 57.573,108.973 57.5,110.5C 56.0937,110.027 55.427,109.027 55.5,107.5 Z"/></g>
<g><path style="opacity:1" fill="#333e2f" d="M 57.5,110.5 C 58.9063,110.973 59.573,111.973 59.5,113.5C 58.0937,113.027 57.427,112.027 57.5,110.5 Z"/></g>
<g><path style="opacity:1" fill="#47413e" d="M 154.5,110.5 C 154.262,112.404 153.262,113.738 151.5,114.5C 151.738,112.596 152.738,111.262 154.5,110.5 Z"/></g>
<g><path style="opacity:1" fill="#808080" d="M 165.5,109.5 C 167.764,110.219 170.097,110.552 172.5,110.5C 171.391,111.29 170.058,111.79 168.5,112C 169.793,112.49 171.127,112.657 172.5,112.5C 171.5,113.167 170.5,113.833 169.5,114.5C 168.128,113.488 166.795,112.488 165.5,111.5C 165.5,110.833 165.5,110.167 165.5,109.5 Z"/></g>
<g><path style="opacity:1" fill="#3e4436" d="M 59.5,113.5 C 63.1667,116.5 66.5,119.833 69.5,123.5C 65.1667,121.167 61.8333,117.833 59.5,113.5 Z"/></g>
<g><path style="opacity:0.867" fill="#00ae52" d="M 661.5,116.5 C 662.489,121.975 662.822,127.642 662.5,133.5C 667.833,133.5 673.167,133.5 678.5,133.5C 678.335,130.15 678.502,126.817 679,123.5C 679.833,122.667 680.667,121.833 681.5,121C 687.5,120.333 693.5,120.333 699.5,121C 701.974,123.041 702.974,125.708 702.5,129C 703.209,132.935 701.876,135.935 698.5,138C 692.833,138.667 687.167,138.667 681.5,138C 680.333,136.833 679.167,135.667 678,134.5C 676.833,135.667 675.667,136.833 674.5,138C 668.509,138.499 662.509,138.666 656.5,138.5C 656.17,132.132 656.504,125.798 657.5,119.5C 658.901,118.479 660.235,117.479 661.5,116.5 Z M 684.5,124.5 C 688.5,124.5 692.5,124.5 696.5,124.5C 696.5,127.5 696.5,130.5 696.5,133.5C 692.5,133.5 688.5,133.5 684.5,133.5C 684.5,130.5 684.5,127.5 684.5,124.5 Z"/></g>
<g><path style="opacity:1" fill="#aa8e21" d="M 94.5,107.5 C 95.5983,108.601 95.765,109.934 95,111.5C 88.6685,117.509 89.5019,119.175 97.5,116.5C 97.1667,117.167 96.8333,117.833 96.5,118.5C 93.5451,120.09 90.8784,119.757 88.5,117.5C 88.5,115.833 88.5,114.167 88.5,112.5C 89.2216,112.918 89.7216,113.584 90,114.5C 92.2645,113.084 93.4312,111.084 93.5,108.5C 94.1667,108.5 94.5,108.167 94.5,107.5 Z"/></g>
<g><path style="opacity:1" fill="#595350" d="M 151.5,114.5 C 149.833,118.167 147.167,120.833 143.5,122.5C 145.833,119.5 148.5,116.833 151.5,114.5 Z"/></g>
<g><path style="opacity:1" fill="#202020" d="M 165.5,111.5 C 166.795,112.488 168.128,113.488 169.5,114.5C 172.014,120.493 170.014,122.659 163.5,121C 157.657,116.214 158.324,113.047 165.5,111.5 Z"/></g>
<g><path style="opacity:1" fill="#efefef" d="M 161.5,113.5 C 165.883,112.755 168.383,114.422 169,118.5C 167.412,120.968 165.578,121.134 163.5,119C 161.845,117.556 161.178,115.722 161.5,113.5 Z"/></g>
<g><path style="opacity:1" fill="#2e2d2c" d="M 50.5,113.5 C 55.0865,113.68 56.2531,115.68 54,119.5C 54.1484,118.175 53.9817,117.008 53.5,116C 52.365,115.251 51.365,115.417 50.5,116.5C 52.7133,123.128 50.88,124.794 45,121.5C 44.1163,119.359 44.6163,117.693 46.5,116.5C 47.0522,118.003 47.0522,119.669 46.5,121.5C 47.5,121.5 48.5,121.5 49.5,121.5C 49.2786,118.721 49.612,116.054 50.5,113.5 Z"/></g>
<g><path style="opacity:1" fill="#f2c333" d="M 88.5,117.5 C 90.8784,119.757 93.5451,120.09 96.5,118.5C 95.1979,121.441 93.1979,123.775 90.5,125.5C 88.8927,125.363 87.5594,124.696 86.5,123.5C 87.0505,121.343 87.7171,119.343 88.5,117.5 Z"/></g>
<g><path style="opacity:0.883" fill="#00ae52" d="M 221.5,120.5 C 227.509,120.334 233.509,120.501 239.5,121C 240.333,121.833 241.167,122.667 242,123.5C 242.667,127.5 242.667,131.5 242,135.5C 241.167,136.333 240.333,137.167 239.5,138C 233.833,138.667 228.167,138.667 222.5,138C 219.124,135.935 217.791,132.935 218.5,129C 218.051,125.561 219.051,122.728 221.5,120.5 Z M 224.5,124.5 C 228.5,124.5 232.5,124.5 236.5,124.5C 236.5,127.5 236.5,130.5 236.5,133.5C 232.5,133.5 228.5,133.5 224.5,133.5C 224.5,130.5 224.5,127.5 224.5,124.5 Z"/></g>
<g><path style="opacity:0.927" fill="#00ae52" d="M 245.5,120.5 C 252.841,120.334 260.174,120.5 267.5,121C 266.5,122 265.5,123 264.5,124C 260.179,124.499 255.846,124.666 251.5,124.5C 251.5,125.5 251.5,126.5 251.5,127.5C 255.846,127.334 260.179,127.501 264.5,128C 263.5,129 262.5,130 261.5,131C 258.183,131.498 254.85,131.665 251.5,131.5C 252.483,136.355 250.817,139.688 246.5,141.5C 245.503,134.532 245.17,127.532 245.5,120.5 Z"/></g>
<g><path style="opacity:0.869" fill="#00ae52" d="M 287.5,120.5 C 294.841,120.334 302.174,120.5 309.5,121C 308.5,122 307.5,123 306.5,124C 285.167,125.333 285.167,126.667 306.5,128C 308.406,129.856 309.24,132.023 309,134.5C 307.978,135.354 307.145,136.354 306.5,137.5C 299.167,138.833 291.833,138.833 284.5,137.5C 285.313,136.186 286.313,135.019 287.5,134C 307.304,133.468 307.304,132.468 287.5,131C 286.167,129.333 284.833,127.667 283.5,126C 284.965,124.226 286.298,122.392 287.5,120.5 Z"/></g>
<g><path style="opacity:0.856" fill="#00ae52" d="M 314.5,120.5 C 320.842,120.334 327.175,120.5 333.5,121C 332.5,122 331.5,123 330.5,124C 326.179,124.499 321.846,124.666 317.5,124.5C 317.5,127.5 317.5,130.5 317.5,133.5C 322.875,133.172 328.208,133.505 333.5,134.5C 332.687,135.814 331.687,136.981 330.5,138C 325.5,138.667 320.5,138.667 315.5,138C 312.124,135.935 310.791,132.935 311.5,129C 311.051,125.561 312.051,122.728 314.5,120.5 Z"/></g>
<g><path style="opacity:0.893" fill="#00ae52" d="M 334.5,120.5 C 336.5,120.5 338.5,120.5 340.5,120.5C 340.83,126.868 340.496,133.202 339.5,139.5C 338.167,140.167 336.833,140.833 335.5,141.5C 334.503,134.532 334.17,127.532 334.5,120.5 Z"/></g>
<g><path style="opacity:0.9" fill="#00ae52" d="M 343.5,120.5 C 350.841,120.334 358.174,120.5 365.5,121C 364.5,122 363.5,123 362.5,124C 358.179,124.499 353.846,124.666 349.5,124.5C 349.5,125.5 349.5,126.5 349.5,127.5C 353.846,127.334 358.179,127.501 362.5,128C 361.5,129 360.5,130 359.5,131C 356.118,131.176 352.785,131.676 349.5,132.5C 354.5,133.167 359.5,133.833 364.5,134.5C 363.687,135.814 362.687,136.981 361.5,138C 355.509,138.499 349.509,138.666 343.5,138.5C 343.5,132.5 343.5,126.5 343.5,120.5 Z"/></g>
<g><path style="opacity:0.886" fill="#00ae52" d="M 366.5,120.5 C 368.989,120.298 371.323,120.798 373.5,122C 376.5,124.5 379.5,127 382.5,129.5C 383.484,126.572 383.817,123.572 383.5,120.5C 385.5,120.5 387.5,120.5 389.5,120.5C 389.5,126.5 389.5,132.5 389.5,138.5C 387.473,138.662 385.473,138.495 383.5,138C 380,135.167 376.5,132.333 373,129.5C 372.824,132.882 372.324,136.215 371.5,139.5C 370.167,140.167 368.833,140.833 367.5,141.5C 366.503,134.532 366.17,127.532 366.5,120.5 Z"/></g>
<g><path style="opacity:0.856" fill="#00ae52" d="M 394.5,120.5 C 400.842,120.334 407.175,120.5 413.5,121C 412.5,122 411.5,123 410.5,124C 406.179,124.499 401.846,124.666 397.5,124.5C 397.5,127.5 397.5,130.5 397.5,133.5C 402.844,133.334 408.177,133.501 413.5,134C 412.167,135.333 410.833,136.667 409.5,138C 395.214,142.692 389.38,137.859 392,123.5C 393.045,122.627 393.878,121.627 394.5,120.5 Z"/></g>
<g><path style="opacity:0.884" fill="#00ae52" d="M 414.5,120.5 C 421.841,120.334 429.174,120.5 436.5,121C 435.5,122 434.5,123 433.5,124C 429.179,124.499 424.846,124.666 420.5,124.5C 420.5,125.5 420.5,126.5 420.5,127.5C 425.179,127.334 429.845,127.501 434.5,128C 433.5,129 432.5,130 431.5,131C 427.789,131.175 424.122,131.675 420.5,132.5C 425.802,133.329 431.136,133.829 436.5,134C 435.167,135.333 433.833,136.667 432.5,138C 426.509,138.499 420.509,138.666 414.5,138.5C 414.5,132.5 414.5,126.5 414.5,120.5 Z"/></g>
<g><path style="opacity:0.859" fill="#00ae52" d="M 457.5,120.5 C 461.846,120.334 466.179,120.501 470.5,121C 471.5,122 472.5,123 473.5,124C 469.833,124.333 466.167,124.667 462.5,125C 465.791,126.597 469.125,128.097 472.5,129.5C 475.889,127.51 479.556,127.01 483.5,128C 481.393,129.264 480.393,131.097 480.5,133.5C 495.138,138.12 494.471,139.62 478.5,138C 476.989,136.385 475.656,136.385 474.5,138C 468.5,138.667 462.5,138.667 456.5,138C 455.547,136.045 454.213,134.378 452.5,133C 454.019,131.649 455.352,130.149 456.5,128.5C 455.335,127.416 454.002,126.583 452.5,126C 454.373,124.296 456.04,122.463 457.5,120.5 Z M 462.5,130.5 C 469.146,133.248 468.812,133.915 461.5,132.5C 461.863,131.817 462.196,131.15 462.5,130.5 Z"/></g>
<g><path style="opacity:0.869" fill="#00ae52" d="M 507.5,121.5 C 523.328,120.339 539.328,120.172 555.5,121C 554.5,122 553.5,123 552.5,124C 548.179,124.499 543.846,124.666 539.5,124.5C 539.5,125.5 539.5,126.5 539.5,127.5C 543.846,127.334 548.179,127.501 552.5,128C 551.5,129 550.5,130 549.5,131C 546.118,131.176 542.785,131.676 539.5,132.5C 544.5,133.167 549.5,133.833 554.5,134.5C 553.687,135.814 552.687,136.981 551.5,138C 545.175,138.5 538.842,138.666 532.5,138.5C 532.666,132.824 532.499,127.157 532,121.5C 529.804,124.125 526.97,125.125 523.5,124.5C 523.666,129.179 523.499,133.845 523,138.5C 521.758,139.872 520.258,140.872 518.5,141.5C 517.505,135.872 517.171,130.206 517.5,124.5C 513.567,125.143 510.234,124.143 507.5,121.5 Z"/></g>
<g><path style="opacity:0.84" fill="#00ae52" d="M 559.5,120.5 C 568.167,120.5 576.833,120.5 585.5,120.5C 585.5,122.833 585.5,125.167 585.5,127.5C 588.833,127.5 592.167,127.5 595.5,127.5C 595.5,125.167 595.5,122.833 595.5,120.5C 597.5,120.5 599.5,120.5 601.5,120.5C 601.5,126.5 601.5,132.5 601.5,138.5C 599.5,138.5 597.5,138.5 595.5,138.5C 595.5,136.167 595.5,133.833 595.5,131.5C 592.167,131.5 588.833,131.5 585.5,131.5C 587.01,137.643 584.677,140.976 578.5,141.5C 578.666,134.825 578.5,128.158 578,121.5C 577.167,122.333 576.333,123.167 575.5,124C 571.179,124.499 566.846,124.666 562.5,124.5C 562.5,127.5 562.5,130.5 562.5,133.5C 567.544,133.173 572.544,133.506 577.5,134.5C 576.687,135.814 575.687,136.981 574.5,138C 569.5,138.667 564.5,138.667 559.5,138C 555.633,134.34 554.466,129.84 556,124.5C 557.376,123.295 558.542,121.962 559.5,120.5 Z"/></g>
<g><path style="opacity:0.884" fill="#00ae52" d="M 604.5,120.5 C 606.527,120.338 608.527,120.505 610.5,121C 614,123.833 617.5,126.667 621,129.5C 621.498,126.518 621.665,123.518 621.5,120.5C 623.5,120.5 625.5,120.5 627.5,120.5C 627.5,126.5 627.5,132.5 627.5,138.5C 625.473,138.662 623.473,138.495 621.5,138C 618,135.167 614.5,132.333 611,129.5C 610.824,132.882 610.324,136.215 609.5,139.5C 608.167,140.167 606.833,140.833 605.5,141.5C 604.503,134.532 604.17,127.532 604.5,120.5 Z"/></g>
<g><path style="opacity:0.883" fill="#00ae52" d="M 632.5,120.5 C 638.509,120.334 644.509,120.501 650.5,121C 651.333,121.833 652.167,122.667 653,123.5C 653.667,127.5 653.667,131.5 653,135.5C 652.167,136.333 651.333,137.167 650.5,138C 644.833,138.667 639.167,138.667 633.5,138C 630.124,135.935 628.791,132.935 629.5,129C 629.051,125.561 630.051,122.728 632.5,120.5 Z M 635.5,124.5 C 639.5,124.5 643.5,124.5 647.5,124.5C 647.5,127.5 647.5,130.5 647.5,133.5C 643.5,133.5 639.5,133.5 635.5,133.5C 635.5,130.5 635.5,127.5 635.5,124.5 Z"/></g>
<g><path style="opacity:0.881" fill="#00ae52" d="M 707.5,120.5 C 713.842,120.334 720.175,120.5 726.5,121C 725.5,122 724.5,123 723.5,124C 719.179,124.499 714.846,124.666 710.5,124.5C 710.5,127.5 710.5,130.5 710.5,133.5C 713.898,133.82 717.232,133.487 720.5,132.5C 717.169,132.14 714.503,130.64 712.5,128C 717.155,127.501 721.821,127.334 726.5,127.5C 727.382,131.909 726.048,135.409 722.5,138C 708.868,142.015 703.034,137.181 705,123.5C 706.045,122.627 706.878,121.627 707.5,120.5 Z"/></g>
<g><path style="opacity:0.853" fill="#00ae52" d="M 729.5,121.5 C 734.641,119.348 738.808,120.682 742,125.5C 744.987,120.848 749.154,119.348 754.5,121C 751.428,123.951 748.261,126.784 745,129.5C 744.824,132.882 744.324,136.215 743.5,139.5C 742.167,140.167 740.833,140.833 739.5,141.5C 738.673,137.541 738.173,133.541 738,129.5C 735.297,126.629 732.464,123.962 729.5,121.5 Z"/></g>
<g><path style="opacity:1" fill="#ac8a1d" d="M 118.5,116.5 C 116.328,115.552 114.328,115.885 112.5,117.5C 111.058,119.54 110.058,121.873 109.5,124.5C 103.005,126.387 103.338,127.387 110.5,127.5C 108.393,128.468 106.059,128.802 103.5,128.5C 103.737,124.727 103.237,121.06 102,117.5C 100.644,116.62 99.1439,116.286 97.5,116.5C 97.6107,115.883 97.944,115.383 98.5,115C 103.483,115.345 105.649,118.178 105,123.5C 106.011,124.337 107.178,124.67 108.5,124.5C 109.619,114.28 114.619,111.447 123.5,116C 123.957,115.586 124.291,115.086 124.5,114.5C 123.352,112.851 122.019,111.351 120.5,110C 120.833,109.833 121.167,109.667 121.5,109.5C 128.47,115.2 127.47,117.534 118.5,116.5 Z"/></g>
<g><path style="opacity:1" fill="#252424" d="M 156.5,124.5 C 155.2,123.399 154.7,122.066 155,120.5C 157.409,122.62 159.909,124.62 162.5,126.5C 163.287,125.758 163.953,124.925 164.5,124C 165.332,123.312 165.998,123.479 166.5,124.5C 165.5,126.167 164.167,127.5 162.5,128.5C 160.736,126.722 158.736,125.389 156.5,124.5 Z"/></g>
<g><path style="opacity:1" fill="#f1be22" d="M 112.5,117.5 C 112.247,121.04 111.581,124.373 110.5,127.5C 103.338,127.387 103.005,126.387 109.5,124.5C 110.058,121.873 111.058,119.54 112.5,117.5 Z"/></g>
<g><path style="opacity:1" fill="#282727" d="M 56.5,119.5 C 60.3761,120.014 61.7094,122.014 60.5,125.5C 58.6637,120.614 56.1637,120.281 53,124.5C 52.51,125.793 52.3433,127.127 52.5,128.5C 54.1992,128.34 55.8659,128.506 57.5,129C 54.0349,131.383 51.7016,130.55 50.5,126.5C 51.8019,123.534 53.8019,121.201 56.5,119.5 Z"/></g>
<g><path style="opacity:1" fill="#3e3a32" d="M 143.5,122.5 C 142.008,125.323 139.674,126.99 136.5,127.5C 138.55,125.453 140.883,123.786 143.5,122.5 Z"/></g>
<g><path style="opacity:1" fill="#2b2a2a" d="M 156.5,124.5 C 158.779,126.723 159.612,129.389 159,132.5C 153.605,135.39 150.105,133.724 148.5,127.5C 149.9,123.474 152.567,122.474 156.5,124.5 Z"/></g>
<g><path style="opacity:1" fill="#efefef" d="M 151.5,125.5 C 156.016,125.481 158.016,127.814 157.5,132.5C 151.953,133.04 149.953,130.707 151.5,125.5 Z"/></g>
<g><path style="opacity:1" fill="#232222" d="M 62.5,124.5 C 64.0281,124.517 64.5281,125.184 64,126.5C 61.7911,128.373 59.9578,130.54 58.5,133C 57.8333,133.667 57.1667,133.667 56.5,133C 58.7447,130.269 60.7447,127.436 62.5,124.5 Z"/></g>
<g><path style="opacity:1" fill="#303229" d="M 69.5,123.5 C 90.9789,137.932 113.312,139.265 136.5,127.5C 129.76,132.524 122.094,135.357 113.5,136C 96.774,138.586 82.1074,134.419 69.5,123.5 Z"/></g>
<g><path style="opacity:1" fill="#1c1b1b" d="M 65.5,126.5 C 67.487,127.164 69.1537,128.331 70.5,130C 68.9532,130.333 67.6199,129.833 66.5,128.5C 64.8987,129.035 64.3987,130.035 65,131.5C 66.2547,132.211 67.4214,133.044 68.5,134C 66.5355,134.624 64.8689,134.124 63.5,132.5C 62.914,132.709 62.414,133.043 62,133.5C 63,135.5 64,137.5 65,139.5C 63.0266,138.36 61.1933,137.027 59.5,135.5C 61.2622,132.299 63.2622,129.299 65.5,126.5 Z"/></g>
<g><path style="opacity:1" fill="#f5f5f5" d="M 20.5,162.5 C 22.1092,166.726 23.4425,171.06 24.5,175.5C 22.1722,178.66 19.3388,181.327 16,183.5C 16.1582,179.541 16.3249,175.541 16.5,171.5C 13.5,171.5 10.5,171.5 7.5,171.5C 3.56103,171.822 2.7277,170.489 5,167.5C 9.72065,161.111 15.3873,155.778 22,151.5C 22.5,151.833 23,152.167 23.5,152.5C 22.3873,155.443 21.054,158.277 19.5,161C 19.5699,161.765 19.9033,162.265 20.5,162.5 Z"/></g>
<g><path style="opacity:1" fill="#f9f9f9" d="M 192.5,185.5 C 188.997,182.497 185.664,179.33 182.5,176C 183.97,171.257 185.636,166.591 187.5,162C 186.094,160.022 185.094,157.855 184.5,155.5C 184.47,154.503 184.97,153.836 186,153.5C 195.433,157.932 202.599,164.766 207.5,174C 203.603,173.047 199.603,172.713 195.5,173C 195,173.5 194.5,174 194,174.5C 193.823,178.356 193.323,182.023 192.5,185.5 Z"/></g>
<g><path style="opacity:1" fill="#7f786f" d="M 118.5,157.5 C 112.726,158.897 106.726,159.564 100.5,159.5C 90.4343,158.609 80.4343,157.109 70.5,155C 57.0193,153.864 43.686,154.697 30.5,157.5C 33.4216,155.469 36.7549,154.302 40.5,154C 59.3491,151.36 77.8491,152.86 96,158.5C 103.3,158.442 110.8,158.108 118.5,157.5 Z"/></g>
<g><path style="opacity:1" fill="#6d6c6b" d="M 177.5,110.5 C 177.5,110.833 177.5,111.167 177.5,111.5C 166.042,135.77 147.042,150.603 120.5,156C 122.81,156.497 125.143,156.663 127.5,156.5C 124.713,157.477 121.713,157.81 118.5,157.5C 96.8415,159.251 76.8415,154.084 58.5,142C 53.6643,138.33 49.331,134.164 45.5,129.5C 45.5,129.167 45.5,128.833 45.5,128.5C 55.0723,138.557 66.4057,146.057 79.5,151C 122.712,162.333 155.378,148.833 177.5,110.5 Z"/></g>
<g><path style="opacity:1" fill="#30302f" d="M 87.5,137.5 C 90.0728,137.148 92.4062,137.648 94.5,139C 92.5273,139.495 90.5273,139.662 88.5,139.5C 88.5,140.5 88.5,141.5 88.5,142.5C 93.5,143.003 93.1667,143.336 87.5,143.5C 87.281,144.675 87.6143,145.675 88.5,146.5C 89.931,146.977 91.2643,147.643 92.5,148.5C 90.2287,149.363 87.8954,149.363 85.5,148.5C 85.4158,144.669 86.0825,141.002 87.5,137.5 Z"/></g>
<g><path style="opacity:1" fill="#1e1e1e" d="M 127.5,135.5 C 129.681,135.284 131.347,136.117 132.5,138C 126.281,137.06 124.948,139.393 128.5,145C 129.793,145.49 131.127,145.657 132.5,145.5C 132.281,144.325 132.614,143.325 133.5,142.5C 134.395,146.433 132.728,147.933 128.5,147C 124.92,143.442 124.587,139.609 127.5,135.5 Z"/></g>
<g><path style="opacity:1" fill="#1a1a1a" d="M 79.5,135.5 C 81.1992,135.34 82.8659,135.506 84.5,136C 85.5171,137.049 85.6838,138.216 85,139.5C 83.5219,136.007 81.5219,135.674 79,138.5C 78.5045,140.473 78.3379,142.473 78.5,144.5C 80.5753,144.302 82.5753,144.135 84.5,144C 82.1496,147.051 79.6496,147.217 77,144.5C 76.5145,141.124 77.3479,138.124 79.5,135.5 Z"/></g>
<g><path style="opacity:1" fill="#232322" d="M 100.5,138.5 C 103.592,139.495 104.259,141.495 102.5,144.5C 103.898,146.13 104.898,147.964 105.5,150C 105.167,150.167 104.833,150.333 104.5,150.5C 102.329,150.273 100.162,149.94 98,149.5C 98.6239,145.894 99.4572,142.228 100.5,138.5 Z"/></g>
<g><path style="opacity:1" fill="#f0f0f0" d="M 99.5,145.5 C 101.465,145.948 101.798,146.948 100.5,148.5C 99.6143,147.675 99.281,146.675 99.5,145.5 Z"/></g>
<g><path style="opacity:1" fill="#b9b9ba" d="M 100.5,140.5 C 102.337,140.639 102.67,141.306 101.5,142.5C 100.702,142.043 100.369,141.376 100.5,140.5 Z"/></g>
<g><path style="opacity:1" fill="#151515" d="M 72.5,143.5 C 73.0545,139.988 72.3878,136.988 70.5,134.5C 70.4148,133.005 71.0815,132.005 72.5,131.5C 73.3184,134.107 73.8184,136.774 74,139.5C 74.8333,137.833 75.6667,136.167 76.5,134.5C 77.1667,133.167 77.8333,133.167 78.5,134.5C 76.7247,137.738 74.7247,140.738 72.5,143.5 Z"/></g>
<g><path style="opacity:1" fill="#7f7f7f" d="M 70.5,135.5 C 70.5,135.167 70.5,134.833 70.5,134.5C 72.3878,136.988 73.0545,139.988 72.5,143.5C 71.8333,140.833 71.1667,138.167 70.5,135.5 Z"/></g>
<g><path style="opacity:1" fill="#1e1e1e" d="M 121.5,137.5 C 122.376,137.369 123.043,137.702 123.5,138.5C 121.955,139.452 120.288,139.785 118.5,139.5C 118.5,140.5 118.5,141.5 118.5,142.5C 124.453,142.372 124.787,143.039 119.5,144.5C 119.5,145.5 119.5,146.5 119.5,147.5C 121.527,147.338 123.527,147.505 125.5,148C 123.323,149.202 120.989,149.702 118.5,149.5C 117.841,146.545 117.508,143.545 117.5,140.5C 116.167,140.5 114.833,140.5 113.5,140.5C 114.192,143.897 114.192,147.23 113.5,150.5C 112.679,147.553 112.179,144.553 112,141.5C 111.25,140.874 110.416,140.374 109.5,140C 113.767,139.811 117.767,138.977 121.5,137.5 Z"/></g>
<g><path style="opacity:1" fill="#1b1b1b" d="M 138.5,132.5 C 140.835,135.5 142.335,138.834 143,142.5C 142.059,140.939 140.892,139.605 139.5,138.5C 138.833,138.833 138.167,139.167 137.5,139.5C 137.5,141.5 137.5,143.5 137.5,145.5C 135.838,142.176 134.171,138.842 132.5,135.5C 132.833,135.167 133.167,134.833 133.5,134.5C 134.506,138.681 136.506,139.348 139.5,136.5C 138.754,135.264 138.421,133.93 138.5,132.5 Z"/></g>
<g><path style="opacity:1" fill="#1e1d1d" d="M 70.5,134.5 C 70.5,134.833 70.5,135.167 70.5,135.5C 70.205,137.423 69.3717,139.09 68,140.5C 67.6381,138.021 68.4714,136.021 70.5,134.5 Z"/></g>
<g><path style="opacity:1" fill="#1e1e1e" d="M 148.5,132.5 C 150.339,133.508 151.672,135.008 152.5,137C 149.222,137.117 146.389,135.95 144,133.5C 144.926,135.706 145.592,138.039 146,140.5C 143.793,137.922 141.96,135.089 140.5,132C 143.18,131.665 145.513,132.499 147.5,134.5C 148.298,134.043 148.631,133.376 148.5,132.5 Z"/></g>
<g><path style="opacity:1" fill="#1b1b1b" d="M 148.5,132.5 C 147.163,131.685 146.163,130.518 145.5,129C 147.478,129.033 148.478,130.2 148.5,132.5 Z"/></g>
<g><path style="opacity:1" fill="#5a5754" d="M 177.5,156.5 C 178.209,157.404 179.209,157.737 180.5,157.5C 181.254,159.446 182.588,160.279 184.5,160C 183.331,157.993 182.665,155.827 182.5,153.5C 183.167,154.167 183.833,154.833 184.5,155.5C 185.094,157.855 186.094,160.022 187.5,162C 185.636,166.591 183.97,171.257 182.5,176C 185.664,179.33 188.997,182.497 192.5,185.5C 192.56,186.043 192.893,186.376 193.5,186.5C 194.176,185.398 194.842,184.398 195.5,183.5C 195.704,186.518 196.037,189.518 196.5,192.5C 196.167,192.5 195.833,192.5 195.5,192.5C 192.163,186.997 187.663,182.664 182,179.5C 181.115,182 179.948,184.333 178.5,186.5C 177.261,186.058 176.261,185.391 175.5,184.5C 176.5,184.5 177.5,184.5 178.5,184.5C 180.111,177.889 182.111,171.389 184.5,165C 184.244,162.523 182.911,160.856 180.5,160C 173.878,155.934 166.711,153.767 159,153.5C 148.479,154.391 137.979,155.391 127.5,156.5C 138.464,153.634 149.464,151.967 160.5,151.5C 166.733,151.472 172.4,153.139 177.5,156.5 Z"/></g>
<g><path style="opacity:1" fill="#f4f5f5" d="M 182.5,153.5 C 182.665,155.827 183.331,157.993 184.5,160C 182.588,160.279 181.254,159.446 180.5,157.5C 180.229,155.62 180.896,154.287 182.5,153.5 Z"/></g>
<g><path style="opacity:1" fill="#f6c121" d="M 175.5,184.5 C 167.424,179.151 158.424,176.817 148.5,177.5C 144.107,177.509 140.107,178.176 136.5,179.5C 123.185,180.704 109.852,181.704 96.5,182.5C 91.402,181.043 86.0687,180.376 80.5,180.5C 68.2233,178.742 55.89,178.242 43.5,179C 38.4784,179.396 33.8117,180.896 29.5,183.5C 28.4824,181.406 27.4824,179.406 26.5,177.5C 25.3397,173.531 24.1731,169.531 23,165.5C 22.6232,164.058 21.7899,163.058 20.5,162.5C 23.2958,160.661 26.2958,158.994 29.5,157.5C 29.8333,157.5 30.1667,157.5 30.5,157.5C 43.686,154.697 57.0193,153.864 70.5,155C 80.4343,157.109 90.4343,158.609 100.5,159.5C 106.726,159.564 112.726,158.897 118.5,157.5C 121.713,157.81 124.713,157.477 127.5,156.5C 137.979,155.391 148.479,154.391 159,153.5C 166.711,153.767 173.878,155.934 180.5,160C 182.911,160.856 184.244,162.523 184.5,165C 182.111,171.389 180.111,177.889 178.5,184.5C 177.5,184.5 176.5,184.5 175.5,184.5 Z"/></g>
<g><path style="opacity:1" fill="#706e6c" d="M 29.5,157.5 C 26.2958,158.994 23.2958,160.661 20.5,162.5C 19.9033,162.265 19.5699,161.765 19.5,161C 21.054,158.277 22.3873,155.443 23.5,152.5C 23,152.167 22.5,151.833 22,151.5C 15.3873,155.778 9.72065,161.111 5,167.5C 2.7277,170.489 3.56103,171.822 7.5,171.5C 6.04839,172.302 4.38172,172.802 2.5,173C 4.4727,173.495 6.4727,173.662 8.5,173.5C 5.65528,174.344 2.65528,175.01 -0.5,175.5C -0.5,174.5 -0.5,173.5 -0.5,172.5C 5.23474,163.901 12.2347,156.401 20.5,150C 27.1009,147.749 30.1009,150.249 29.5,157.5 Z"/></g>
<g><path style="opacity:1" fill="#f9f9f9" d="M 25.5,151.5 C 27.4411,153.011 27.9411,155.011 27,157.5C 25.9887,158.337 24.8221,158.67 23.5,158.5C 23.8782,156.079 24.5448,153.746 25.5,151.5 Z"/></g>
<g><path style="opacity:1" fill="#836413" d="M 30.5,167.5 C 29.8333,167.5 29.5,167.833 29.5,168.5C 27.4178,169.585 27.0844,171.085 28.5,173C 25.4161,169.434 26.5828,166.934 32,165.5C 32.5,165.667 33,165.833 33.5,166C 32.4734,166.513 31.4734,167.013 30.5,167.5 Z"/></g>
<g><path style="opacity:1" fill="#6d5615" d="M 47.5,165.5 C 48.9403,166.363 50.2736,166.363 51.5,165.5C 52.8333,167.5 52.8333,169.5 51.5,171.5C 50.7189,170.271 50.2189,168.938 50,167.5C 49.7508,168.624 49.2508,169.624 48.5,170.5C 47.5481,168.955 47.2148,167.288 47.5,165.5 Z"/></g>
<g><path style="opacity:1" fill="#362c13" d="M 156.5,164.5 C 157.097,164.735 157.43,165.235 157.5,166C 157,167.5 156.5,169 156,170.5C 155.322,168.402 155.489,166.402 156.5,164.5 Z"/></g>
<g><path style="opacity:1" fill="#70530f" d="M 61.5,166.5 C 62.782,167.708 62.782,169.042 61.5,170.5C 60.3744,169.192 60.3744,167.858 61.5,166.5 Z"/></g>
<g><path style="opacity:1" fill="#534014" d="M 63.5,166.5 C 63.56,165.957 63.8933,165.624 64.5,165.5C 65.8333,167.167 65.8333,168.833 64.5,170.5C 63.9117,168.988 63.5784,167.655 63.5,166.5 Z"/></g>
<g><path style="opacity:1" fill="#503e0e" d="M 71.5,166.5 C 72.3764,166.369 73.0431,166.702 73.5,167.5C 70.9181,173.934 70.2514,173.601 71.5,166.5 Z"/></g>
<g><path style="opacity:1" fill="#584510" d="M 146.5,169.5 C 145.162,172.034 144.162,171.7 143.5,168.5C 144,167.5 144.5,166.5 145,165.5C 145.21,167.058 145.71,168.391 146.5,169.5 Z"/></g>
<g><path style="opacity:1" fill="#443612" d="M 159.5,165.5 C 160.497,165.47 161.164,165.97 161.5,167C 159.937,172.608 159.271,172.108 159.5,165.5 Z"/></g>
<g><path style="opacity:1" fill="#7a5f17" d="M 166.5,166.5 C 172.565,165.605 174.232,167.605 171.5,172.5C 170.904,171.284 170.737,169.951 171,168.5C 170,169.833 169,171.167 168,172.5C 167.5,171.333 166.667,170.5 165.5,170C 166.337,168.989 166.67,167.822 166.5,166.5 Z"/></g>
<g><path style="opacity:1" fill="#6b5313" d="M 40.5,166.5 C 42.045,167.23 42.8784,168.563 43,170.5C 43.2189,169.062 43.7189,167.729 44.5,166.5C 45.9479,169.213 45.2812,171.213 42.5,172.5C 41.5233,170.589 40.8567,168.589 40.5,166.5 Z"/></g>
<g><path style="opacity:1" fill="#6f5717" d="M 67.5,164.5 C 68.3764,164.369 69.0431,164.702 69.5,165.5C 68.9588,167.535 68.2922,169.535 67.5,171.5C 66.4249,169.189 66.4249,166.856 67.5,164.5 Z"/></g>
<g><path style="opacity:1" fill="#775d15" d="M 146.5,169.5 C 146.709,168.078 147.209,166.745 148,165.5C 148.333,166.167 148.667,166.833 149,167.5C 152.638,163.541 154.138,164.541 153.5,170.5C 151.234,170.859 149.401,170.192 148,168.5C 147.617,169.056 147.117,169.389 146.5,169.5 Z"/></g>
<g><path style="opacity:1" fill="#614c14" d="M 162.5,167.5 C 163.586,167.62 164.253,168.287 164.5,169.5C 164.167,170.167 163.833,170.833 163.5,171.5C 162.571,170.311 162.238,168.978 162.5,167.5 Z"/></g>
<g><path style="opacity:1" fill="#8c6b17" d="M 176.5,167.5 C 179.674,167.952 180.007,168.952 177.5,170.5C 178.59,171.609 178.59,172.609 177.5,173.5C 175.454,171.719 175.12,169.719 176.5,167.5 Z"/></g>
<g><path style="opacity:1" fill="#826816" d="M 36.5,167.5 C 40.4388,169.702 40.4388,172.035 36.5,174.5C 33.9617,172.26 33.9617,169.927 36.5,167.5 Z"/></g>
<g><path style="opacity:1" fill="#775c14" d="M 59.5,161.5 C 60.2389,161.369 60.9056,161.536 61.5,162C 59.3742,164.433 58.0409,167.266 57.5,170.5C 56.8333,170.833 56.1667,171.167 55.5,171.5C 54.3861,170.277 54.2195,168.944 55,167.5C 57.07,165.93 58.57,163.93 59.5,161.5 Z"/></g>
<g><path style="opacity:1" fill="#816716" d="M 82.5,168.5 C 88.1203,168.005 89.1203,170.005 85.5,174.5C 84.8576,171.203 83.6909,170.869 82,173.5C 82.0187,171.893 82.1854,170.226 82.5,168.5 Z"/></g>
<g><path style="opacity:1" fill="#42320d" d="M 30.5,167.5 C 30.8807,168.931 31.8807,169.764 33.5,170C 31.3424,171.312 31.0091,172.978 32.5,175C 31.5165,175.591 30.8499,175.257 30.5,174C 29.7665,172.234 29.4332,170.401 29.5,168.5C 29.5,167.833 29.8333,167.5 30.5,167.5 Z"/></g>
<g><path style="opacity:1" fill="#6a5311" d="M 120.5,166.5 C 121.748,167.334 122.415,168.667 122.5,170.5C 122.167,171.833 121.833,173.167 121.5,174.5C 120.52,171.914 120.187,169.247 120.5,166.5 Z"/></g>
<g><path style="opacity:1" fill="#554114" d="M 140.5,170.5 C 139.791,171.404 138.791,171.737 137.5,171.5C 136.599,167.759 137.932,165.759 141.5,165.5C 141.784,167.415 141.451,169.081 140.5,170.5 Z"/></g>
<g><path style="opacity:1" fill="#f0c523" d="M 140.5,170.5 C 138.535,170.052 138.202,169.052 139.5,167.5C 140.386,168.325 140.719,169.325 140.5,170.5 Z"/></g>
<g><path style="opacity:1" fill="#665013" d="M 76.5,167.5 C 77.5,167.5 78.5,167.5 79.5,167.5C 79.7852,169.288 79.4519,170.955 78.5,172.5C 78.3309,171.603 77.9976,170.603 77.5,169.5C 76.7189,170.729 76.2189,172.062 76,173.5C 74.4463,171.511 74.6129,169.511 76.5,167.5 Z"/></g>
<g><path style="opacity:1" fill="#695013" d="M 127.5,167.5 C 128.693,167.97 129.36,168.97 129.5,170.5C 129.167,171.5 128.833,172.5 128.5,173.5C 127.534,171.604 127.201,169.604 127.5,167.5 Z"/></g>
<g><path style="opacity:1" fill="#745a14" d="M 105.5,165.5 C 109.5,166.167 109.5,166.833 105.5,167.5C 104.984,170.899 104.15,174.232 103,177.5C 101.951,178.517 100.784,178.684 99.5,178C 100.667,177.5 101.5,176.667 102,175.5C 102.013,171.695 103.179,168.362 105.5,165.5 Z"/></g>
<g><path style="opacity:1" fill="#68520f" d="M 124.5,168.5 C 125.649,168.791 126.316,169.624 126.5,171C 126.167,171.833 125.833,172.667 125.5,173.5C 124.548,171.955 124.215,170.288 124.5,168.5 Z"/></g>
<g><path style="opacity:1" fill="#5a4712" d="M 98.5,169.5 C 101.076,169.722 101.91,171.055 101,173.5C 100.692,172.692 100.192,172.025 99.5,171.5C 98.7189,172.729 98.2189,174.062 98,175.5C 96.0902,173.373 96.2569,171.373 98.5,169.5 Z"/></g>
<g><path style="opacity:1" fill="#6e6c6b" d="M 195.5,183.5 C 194.842,184.398 194.176,185.398 193.5,186.5C 192.893,186.376 192.56,186.043 192.5,185.5C 193.323,182.023 193.823,178.356 194,174.5C 194.5,174 195,173.5 195.5,173C 199.603,172.713 203.603,173.047 207.5,174C 202.599,164.766 195.433,157.932 186,153.5C 184.97,153.836 184.47,154.503 184.5,155.5C 183.833,154.833 183.167,154.167 182.5,153.5C 180.896,154.287 180.229,155.62 180.5,157.5C 179.209,157.737 178.209,157.404 177.5,156.5C 178.597,153.674 180.597,151.674 183.5,150.5C 196.942,155.442 206.276,164.609 211.5,178C 206.398,176.278 201.065,175.111 195.5,174.5C 195.5,177.5 195.5,180.5 195.5,183.5 Z"/></g>
<g><path style="opacity:1" fill="#7a7573" d="M 26.5,177.5 C 27.4824,179.406 28.4824,181.406 29.5,183.5C 33.8117,180.896 38.4784,179.396 43.5,179C 55.89,178.242 68.2233,178.742 80.5,180.5C 80.5,180.833 80.5,181.167 80.5,181.5C 79.8333,181.5 79.1667,181.5 78.5,181.5C 61.4187,177.917 44.752,179.25 28.5,185.5C 27.3005,183.229 26.3005,180.896 25.5,178.5C 26.1667,178.5 26.5,178.167 26.5,177.5 Z"/></g>
<g><path style="opacity:1" fill="#968d82" d="M 175.5,184.5 C 168.322,181.387 160.822,179.387 153,178.5C 147.55,179.43 142.05,179.763 136.5,179.5C 140.107,178.176 144.107,177.509 148.5,177.5C 158.424,176.817 167.424,179.151 175.5,184.5 Z"/></g>
<g><path style="opacity:1" fill="#b99d35" d="M 80.5,181.5 C 80.5,181.167 80.5,180.833 80.5,180.5C 86.0687,180.376 91.402,181.043 96.5,182.5C 91.1667,182.167 85.8333,181.833 80.5,181.5 Z"/></g>
<g><path style="opacity:1" fill="#a49c91" d="M 136.5,179.5 C 117.267,184.494 97.9339,185.161 78.5,181.5C 79.1667,181.5 79.8333,181.5 80.5,181.5C 85.8333,181.833 91.1667,182.167 96.5,182.5C 109.852,181.704 123.185,180.704 136.5,179.5 Z"/></g>
<g><path style="opacity:1" fill="#585552" d="M 20.5,162.5 C 21.7899,163.058 22.6232,164.058 23,165.5C 24.1731,169.531 25.3397,173.531 26.5,177.5C 26.5,178.167 26.1667,178.5 25.5,178.5C 20.2088,181.957 15.7088,186.29 12,191.5C 12.1112,187.55 12.9446,183.717 14.5,180C 13.9034,178.372 14.2367,176.705 15.5,175C 13.4062,173.648 11.0728,173.148 8.5,173.5C 6.4727,173.662 4.4727,173.495 2.5,173C 4.38172,172.802 6.04839,172.302 7.5,171.5C 10.5,171.5 13.5,171.5 16.5,171.5C 16.3249,175.541 16.1582,179.541 16,183.5C 19.3388,181.327 22.1722,178.66 24.5,175.5C 23.4425,171.06 22.1092,166.726 20.5,162.5 Z"/></g>
</svg>
