<?xml version="1.0" encoding="UTF-8"?>
<svg xmlns="http://www.w3.org/2000/svg" xmlns:xlink="http://www.w3.org/1999/xlink" width="55px" height="50px" viewBox="0 0 55 50" version="1.1">
<defs>
<filter id="alpha" filterUnits="objectBoundingBox" x="0%" y="0%" width="100%" height="100%">
  <feColorMatrix type="matrix" in="SourceGraphic" values="0 0 0 0 1 0 0 0 0 1 0 0 0 0 1 0 0 0 1 0"/>
</filter>
<mask id="mask0">
  <g filter="url(#alpha)">
<rect x="0" y="0" width="55" height="50" style="fill:rgb(0%,0%,0%);fill-opacity:0.780392;stroke:none;"/>
  </g>
</mask>
<clipPath id="clip1">
  <rect x="0" y="0" width="55" height="51"/>
</clipPath>
<g id="surface5" clip-path="url(#clip1)">
<path style=" stroke:none;fill-rule:evenodd;fill:rgb(6.27451%,5.882353%,4.705882%);fill-opacity:1;" d="M 24.195312 -0.152344 C 26.296875 -0.152344 28.402344 -0.152344 30.503906 -0.152344 C 40.871094 2.511719 46.480469 9.238281 47.335938 20.03125 C 47.042969 26.539062 44.4375 31.863281 39.523438 35.992188 C 39.019531 36.195312 38.519531 36.394531 38.019531 36.597656 C 38.121094 36.394531 38.21875 36.195312 38.320312 35.992188 C 39.207031 35.609375 39.90625 35.003906 40.421875 34.1875 C 40.625 34.1875 40.722656 34.085938 40.722656 33.886719 C 41.125 33.683594 41.425781 33.382812 41.625 32.980469 C 41.824219 32.980469 41.925781 32.882812 41.925781 32.679688 C 42.125 32.679688 42.226562 32.582031 42.226562 32.378906 C 42.425781 32.378906 42.527344 32.277344 42.527344 32.078125 C 42.785156 31.71875 43.085938 31.367188 43.429688 31.023438 C 41.554688 31.417969 40.703125 30.664062 40.875 28.765625 C 41.207031 28.523438 41.558594 28.320312 41.925781 28.164062 C 41.585938 26.785156 42.085938 25.832031 43.429688 25.300781 C 42.792969 24.949219 42.59375 24.496094 42.828125 23.945312 C 43.589844 24.769531 44.492188 25.371094 45.53125 25.753906 C 44.648438 25.644531 43.75 25.792969 42.828125 26.203125 C 43.054688 26.40625 43.152344 26.65625 43.128906 26.957031 C 44.089844 26.253906 44.742188 26.558594 45.082031 27.863281 C 46.308594 25.074219 46.808594 22.160156 46.585938 19.125 C 45.28125 19.527344 44.230469 20.28125 43.429688 21.386719 C 43.128906 21.585938 42.828125 21.585938 42.527344 21.386719 C 42.929688 20.832031 42.878906 20.679688 42.378906 20.933594 C 42.105469 23.003906 41.457031 24.910156 40.421875 26.65625 C 41.773438 22.710938 41.976562 18.691406 41.023438 14.609375 C 41.871094 16.277344 42.273438 18.082031 42.226562 20.03125 C 42.542969 20.074219 42.84375 20.023438 43.128906 19.878906 C 44.070312 19.207031 44.875 18.40625 45.53125 17.46875 C 45.816406 17.324219 46.117188 17.273438 46.433594 17.320312 C 46.285156 14.664062 45.484375 12.253906 44.03125 10.089844 C 43.898438 9.726562 43.699219 9.425781 43.429688 9.1875 C 43.15625 10.371094 42.804688 10.371094 42.378906 9.1875 C 41.566406 9.847656 40.714844 10.449219 39.824219 10.992188 C 39.722656 10.84375 39.621094 10.691406 39.523438 10.542969 C 40.257812 9.820312 41.058594 9.167969 41.925781 8.585938 C 41.496094 8.042969 41.597656 7.640625 42.226562 7.378906 C 42.125 7.078125 41.925781 6.878906 41.625 6.777344 C 41.324219 6.273438 40.925781 5.875 40.421875 5.574219 C 40.421875 5.371094 40.324219 5.269531 40.121094 5.269531 C 40.121094 5.070312 40.023438 4.96875 39.824219 4.96875 C 39.824219 4.769531 39.722656 4.667969 39.523438 4.667969 C 39.003906 4.152344 38.402344 3.75 37.71875 3.464844 C 37.617188 3.210938 37.414062 3.109375 37.117188 3.164062 C 37.117188 2.960938 37.015625 2.863281 36.816406 2.863281 C 36.714844 2.609375 36.515625 2.507812 36.214844 2.558594 C 35.832031 2.128906 35.332031 1.929688 34.714844 1.957031 C 25.085938 -1.503906 17.21875 0.90625 11.121094 9.1875 C 9.480469 11.761719 8.527344 14.574219 8.265625 17.621094 C 8.695312 17.597656 9.09375 17.695312 9.46875 17.921875 C 9.660156 17.425781 9.960938 17.023438 10.367188 16.71875 C 10.652344 17.183594 11 17.585938 11.421875 17.921875 C 12.75 17.851562 12.800781 18.304688 11.570312 19.277344 C 12.03125 19.609375 12.234375 20.0625 12.171875 20.632812 C 11.167969 20.433594 10.566406 20.835938 10.367188 21.835938 C 10.085938 21.371094 9.734375 20.96875 9.316406 20.632812 C 7.988281 20.703125 7.9375 20.25 9.167969 19.277344 C 8.703125 18.910156 8.351562 18.460938 8.113281 17.921875 C 7.546875 25.515625 10.300781 31.539062 16.378906 35.992188 C 16.480469 36.195312 16.582031 36.394531 16.679688 36.597656 C 16.179688 36.394531 15.679688 36.195312 15.175781 35.992188 C 8.65625 30.296875 6.304688 23.167969 8.113281 14.609375 C 10.769531 6.675781 16.128906 1.753906 24.195312 -0.152344 Z M 34.714844 1.957031 C 35.332031 1.929688 35.832031 2.128906 36.214844 2.558594 C 35.472656 3.429688 34.722656 4.335938 33.960938 5.269531 C 33.417969 5.097656 32.867188 4.945312 32.308594 4.820312 C 32.515625 4.496094 32.667969 4.144531 32.757812 3.765625 C 33.308594 4.175781 33.859375 4.273438 34.414062 4.066406 C 34.027344 3.570312 33.527344 3.21875 32.910156 3.011719 C 33.402344 2.46875 33.953125 2.417969 34.5625 2.863281 C 35.070312 2.65625 35.117188 2.355469 34.714844 1.957031 Z M 34.714844 1.957031 C 33.992188 1.699219 33.292969 1.699219 32.609375 1.957031 C 32.238281 3.027344 31.835938 4.082031 31.40625 5.121094 C 32.378906 5.5625 33.378906 5.914062 34.414062 6.175781 C 34.832031 5.839844 35.183594 5.441406 35.464844 4.96875 C 35.785156 5.730469 36.035156 6.535156 36.214844 7.378906 C 36.359375 6.378906 36.8125 5.574219 37.566406 4.96875 C 37.714844 4.476562 37.765625 3.976562 37.71875 3.464844 C 38.402344 3.75 39.003906 4.152344 39.523438 4.667969 C 37.914062 5.074219 37.613281 5.976562 38.621094 7.378906 C 38.226562 8.074219 37.828125 8.023438 37.417969 7.230469 C 37.847656 6.804688 37.796875 6.453125 37.269531 6.175781 C 36.398438 7.765625 36.847656 8.519531 38.621094 8.433594 C 39.40625 7.589844 39.40625 6.738281 38.621094 5.875 C 38.867188 5.605469 39.167969 5.507812 39.523438 5.574219 C 39.441406 6.015625 39.542969 6.417969 39.824219 6.777344 C 40.304688 6.53125 40.507812 6.128906 40.421875 5.574219 C 40.925781 5.875 41.324219 6.273438 41.625 6.777344 C 41.925781 6.878906 42.125 7.078125 42.226562 7.378906 C 41.597656 7.640625 41.496094 8.042969 41.925781 8.585938 C 41.058594 9.167969 40.257812 9.820312 39.523438 10.542969 C 39.621094 10.691406 39.722656 10.84375 39.824219 10.992188 C 40.714844 10.449219 41.566406 9.847656 42.378906 9.1875 C 42.804688 10.371094 43.15625 10.371094 43.429688 9.1875 C 43.699219 9.425781 43.898438 9.726562 44.03125 10.089844 C 42.882812 11.113281 41.679688 12.015625 40.421875 12.800781 C 40.324219 12.800781 40.222656 12.800781 40.121094 12.800781 C 40.175781 12.503906 40.074219 12.300781 39.824219 12.199219 C 39.75 11.625 39.449219 11.222656 38.921875 10.992188 C 38.746094 10.316406 38.347656 9.816406 37.71875 9.488281 C 37.617188 9.1875 37.417969 8.984375 37.117188 8.886719 C 36.976562 8.460938 36.675781 8.261719 36.214844 8.28125 C 36.214844 8.082031 36.117188 7.980469 35.914062 7.980469 C 35.773438 7.558594 35.472656 7.359375 35.011719 7.378906 C 34.390625 6.664062 33.585938 6.261719 32.609375 6.175781 C 32.394531 5.902344 32.09375 5.800781 31.707031 5.875 C 30.804688 5.367188 29.800781 5.167969 28.703125 5.269531 C 28.777344 3.761719 28.878906 2.257812 29.003906 0.753906 C 28.703125 0.753906 28.402344 0.753906 28.101562 0.753906 C 28.199219 2.171875 28.097656 3.578125 27.800781 4.96875 C 27.71875 3.640625 27.515625 2.234375 27.199219 0.753906 C 26.953125 1.539062 26.804688 2.339844 26.75 3.164062 C 26.429688 2.09375 25.78125 1.390625 24.796875 1.054688 C 24.796875 1.957031 24.796875 2.863281 24.796875 3.765625 C 24.371094 2.945312 24.171875 2.042969 24.195312 1.054688 C 23.839844 0.988281 23.539062 1.089844 23.292969 1.355469 C 23.648438 2.429688 23.847656 3.535156 23.894531 4.667969 C 23.496094 4.71875 23.144531 4.621094 22.839844 4.367188 C 22.625 3.398438 22.277344 2.492188 21.789062 1.65625 C 21.53125 3.234375 21.933594 4.640625 22.992188 5.875 C 22.375 5.84375 21.875 6.042969 21.488281 6.476562 C 21.089844 6.578125 20.6875 6.675781 20.285156 6.777344 C 20.542969 6.464844 20.746094 6.117188 20.886719 5.722656 C 20.472656 4.601562 19.921875 3.546875 19.234375 2.558594 C 19.085938 2.710938 18.933594 2.863281 18.785156 3.011719 C 19.285156 3.914062 19.785156 4.820312 20.285156 5.722656 C 19.957031 6.132812 19.558594 6.234375 19.085938 6.023438 C 18.722656 5.347656 18.320312 4.695312 17.882812 4.066406 C 17.621094 3.738281 17.320312 3.691406 16.980469 3.914062 C 17.5 5.109375 18.199219 6.164062 19.085938 7.078125 C 18.554688 6.964844 18.054688 6.765625 17.582031 6.476562 C 17.46875 5.308594 16.871094 4.753906 15.777344 4.820312 C 15.332031 5.292969 14.832031 5.695312 14.277344 6.023438 C 14.921875 6.921875 15.621094 7.773438 16.378906 8.585938 C 15.980469 9.085938 15.578125 9.589844 15.175781 10.089844 C 14.878906 9.988281 14.675781 9.789062 14.578125 9.488281 C 14.878906 9.085938 15.175781 8.683594 15.476562 8.28125 C 15.328125 8.183594 15.175781 8.082031 15.027344 7.980469 C 14.496094 8.234375 14.09375 8.636719 13.824219 9.1875 C 13.347656 8.460938 13.496094 7.808594 14.277344 7.230469 C 14.117188 7.019531 13.917969 6.871094 13.675781 6.777344 C 13.136719 7.402344 12.636719 8.054688 12.171875 8.734375 C 15.472656 10.851562 15.269531 11.199219 11.570312 9.789062 C 11.945312 10.667969 12.542969 11.371094 13.375 11.898438 C 12.472656 11.898438 11.570312 11.898438 10.667969 11.898438 C 10.667969 12.199219 10.667969 12.5 10.667969 12.800781 C 11.59375 13.011719 12.496094 13.3125 13.375 13.703125 C 13.652344 14.0625 13.753906 14.464844 13.675781 14.910156 C 13.246094 15.515625 13.046875 16.21875 13.074219 17.019531 C 13.074219 17.117188 13.074219 17.21875 13.074219 17.320312 C 12.875 18.167969 12.773438 19.070312 12.773438 20.03125 C 12.71875 21.417969 12.917969 22.722656 13.375 23.945312 C 13.554688 25.304688 14.054688 26.511719 14.878906 27.558594 C 14.855469 28.019531 15.054688 28.320312 15.476562 28.464844 C 15.550781 29.039062 15.851562 29.4375 16.378906 29.667969 C 16.679688 30.171875 17.082031 30.574219 17.582031 30.875 C 17.90625 31.503906 18.410156 31.902344 19.085938 32.078125 C 19.226562 32.5 19.527344 32.703125 19.988281 32.679688 C 22.15625 34.242188 24.609375 34.945312 27.351562 34.789062 C 30.355469 35.023438 33.011719 34.21875 35.3125 32.378906 C 35.773438 32.402344 36.074219 32.199219 36.214844 31.777344 C 36.417969 31.777344 36.515625 31.675781 36.515625 31.476562 C 37.519531 31.074219 38.21875 30.371094 38.621094 29.367188 C 38.820312 29.367188 38.921875 29.265625 38.921875 29.066406 C 39.34375 28.921875 39.542969 28.621094 39.523438 28.164062 C 39.945312 28.019531 40.144531 27.71875 40.121094 27.257812 C 40.375 27.15625 40.476562 26.957031 40.421875 26.65625 C 41.457031 24.910156 42.105469 23.003906 42.378906 20.933594 C 42.878906 20.679688 42.929688 20.832031 42.527344 21.386719 C 42.828125 21.585938 43.128906 21.585938 43.429688 21.386719 C 44.230469 20.28125 45.28125 19.527344 46.585938 19.125 C 46.808594 22.160156 46.308594 25.074219 45.082031 27.863281 C 44.742188 26.558594 44.089844 26.253906 43.128906 26.957031 C 43.152344 26.65625 43.054688 26.40625 42.828125 26.203125 C 43.75 25.792969 44.648438 25.644531 45.53125 25.753906 C 44.492188 25.371094 43.589844 24.769531 42.828125 23.945312 C 42.59375 24.496094 42.792969 24.949219 43.429688 25.300781 C 42.085938 25.832031 41.585938 26.785156 41.925781 28.164062 C 41.558594 28.320312 41.207031 28.523438 40.875 28.765625 C 40.703125 30.664062 41.554688 31.417969 43.429688 31.023438 C 43.085938 31.367188 42.785156 31.71875 42.527344 32.078125 C 42.566406 31.816406 42.464844 31.613281 42.226562 31.476562 C 41.925781 31.675781 41.625 31.878906 41.324219 32.078125 C 40.722656 31.578125 40.121094 31.074219 39.523438 30.574219 C 39.28125 30.710938 39.183594 30.910156 39.222656 31.175781 C 38.265625 31.378906 37.816406 31.984375 37.867188 32.980469 C 37.707031 32.449219 37.457031 32.347656 37.117188 32.679688 C 37.320312 33.089844 37.523438 33.492188 37.71875 33.886719 C 37.191406 33.773438 36.6875 33.570312 36.214844 33.28125 C 35.863281 33.410156 35.5625 33.609375 35.3125 33.886719 C 35.679688 34.253906 35.679688 34.605469 35.3125 34.941406 C 34.839844 34.894531 34.441406 34.644531 34.113281 34.1875 C 33.929688 34.222656 33.828125 34.324219 33.8125 34.488281 C 32.988281 34.328125 32.4375 34.628906 32.160156 35.390625 C 31.4375 35.058594 30.683594 35.007812 29.90625 35.242188 C 29.136719 35.242188 28.535156 35.492188 28.101562 35.992188 C 27.699219 35.992188 27.300781 35.992188 26.898438 35.992188 C 26.863281 35.667969 26.664062 35.464844 26.296875 35.390625 C 25.933594 35.464844 25.734375 35.667969 25.695312 35.992188 C 24.796875 35.992188 23.894531 35.992188 22.992188 35.992188 C 23.078125 35.757812 23.226562 35.554688 23.441406 35.390625 C 23.796875 35.761719 24.148438 35.761719 24.496094 35.390625 C 23.90625 34.777344 23.257812 34.679688 22.539062 35.089844 C 22.164062 34.320312 21.613281 34.121094 20.886719 34.488281 C 20.6875 34.285156 20.488281 34.085938 20.285156 33.886719 C 19.894531 34.3125 19.644531 34.8125 19.535156 35.390625 C 19.433594 34.6875 19.335938 33.984375 19.234375 33.28125 C 18.613281 32.804688 17.960938 32.402344 17.28125 32.078125 C 17.027344 31.738281 16.726562 31.738281 16.378906 32.078125 C 16.570312 31.066406 16.171875 30.464844 15.175781 30.269531 C 15.238281 29.480469 14.890625 28.976562 14.125 28.765625 C 13.566406 29.277344 12.914062 29.578125 12.171875 29.667969 C 11.847656 31.003906 12.351562 31.609375 13.675781 31.476562 C 13.351562 32.8125 13.851562 33.414062 15.175781 33.28125 C 14.902344 34.398438 15.203125 34.5 16.078125 33.585938 C 16.066406 33.910156 15.96875 34.210938 15.777344 34.488281 C 16.273438 34.832031 16.726562 35.234375 17.132812 35.691406 C 17.246094 35.523438 17.394531 35.425781 17.582031 35.390625 C 17.582031 35.59375 17.582031 35.792969 17.582031 35.992188 C 17.179688 35.992188 16.78125 35.992188 16.378906 35.992188 C 10.300781 31.539062 7.546875 25.515625 8.113281 17.921875 C 8.351562 18.460938 8.703125 18.910156 9.167969 19.277344 C 7.9375 20.25 7.988281 20.703125 9.316406 20.632812 C 9.734375 20.96875 10.085938 21.371094 10.367188 21.835938 C 10.566406 20.835938 11.167969 20.433594 12.171875 20.632812 C 12.234375 20.0625 12.03125 19.609375 11.570312 19.277344 C 12.800781 18.304688 12.75 17.851562 11.421875 17.921875 C 11 17.585938 10.652344 17.183594 10.367188 16.71875 C 9.960938 17.023438 9.660156 17.425781 9.46875 17.921875 C 9.09375 17.695312 8.695312 17.597656 8.265625 17.621094 C 8.527344 14.574219 9.480469 11.761719 11.121094 9.1875 C 17.21875 0.90625 25.085938 -1.503906 34.714844 1.957031 Z M 24.195312 5.269531 C 24.476562 4.804688 24.675781 4.300781 24.796875 3.765625 C 24.992188 4.132812 25.195312 4.535156 25.394531 4.96875 C 25.640625 4.289062 25.792969 3.585938 25.847656 2.863281 C 26.261719 3.539062 26.710938 4.191406 27.199219 4.820312 C 26.21875 5.132812 25.21875 5.285156 24.195312 5.269531 Z M 35.914062 3.464844 C 37.433594 4.117188 37.433594 4.464844 35.914062 4.519531 C 35.714844 4.222656 35.714844 3.871094 35.914062 3.464844 Z M 15.777344 5.574219 C 16.878906 5.714844 16.929688 6.117188 15.929688 6.777344 C 15.398438 6.421875 15.347656 6.019531 15.777344 5.574219 Z M 18.785156 7.679688 C 18.484375 8.082031 18.183594 8.484375 17.882812 8.886719 C 17.683594 8.886719 17.480469 8.886719 17.28125 8.886719 C 17.171875 8.320312 16.871094 7.871094 16.378906 7.53125 C 16.480469 7.429688 16.582031 7.328125 16.679688 7.230469 C 17.378906 7.277344 18.082031 7.425781 18.785156 7.679688 Z M 19.085938 7.078125 C 19.285156 7.078125 19.484375 7.078125 19.6875 7.078125 C 19.585938 7.277344 19.484375 7.480469 19.386719 7.679688 C 19.183594 7.679688 18.984375 7.679688 18.785156 7.679688 C 18.882812 7.480469 18.984375 7.277344 19.085938 7.078125 Z M 44.03125 10.089844 C 45.484375 12.253906 46.285156 14.664062 46.433594 17.320312 C 46.117188 17.273438 45.816406 17.324219 45.53125 17.46875 C 44.875 18.40625 44.070312 19.207031 43.128906 19.878906 C 42.84375 20.023438 42.542969 20.074219 42.226562 20.03125 C 42.273438 18.082031 41.871094 16.277344 41.023438 14.609375 C 40.984375 14.089844 40.886719 13.589844 40.722656 13.101562 C 41.253906 12.875 41.804688 12.671875 42.378906 12.5 C 43.214844 12.804688 44.066406 12.855469 44.933594 12.652344 C 44.367188 12.292969 43.765625 11.992188 43.128906 11.746094 C 43.761719 11.367188 44.0625 10.8125 44.03125 10.089844 Z M 13.675781 11.296875 C 14.191406 11.332031 14.691406 11.433594 15.175781 11.597656 C 15.09375 11.835938 14.941406 12.035156 14.726562 12.199219 C 14.382812 11.855469 14.03125 11.554688 13.675781 11.296875 Z M 14.277344 13.402344 C 13.984375 13.257812 13.683594 13.105469 13.375 12.953125 C 13.871094 12.734375 14.171875 12.882812 14.277344 13.402344 Z M 10.066406 17.621094 C 10.585938 17.722656 10.738281 18.023438 10.519531 18.523438 C 10.207031 18.300781 10.058594 18 10.066406 17.621094 Z M 46.433594 17.621094 C 46.792969 18.222656 46.589844 18.472656 45.832031 18.375 C 46.097656 18.160156 46.296875 17.910156 46.433594 17.621094 Z M 8.867188 18.222656 C 9.523438 18.226562 9.773438 18.527344 9.617188 19.125 C 9.304688 18.863281 9.054688 18.5625 8.867188 18.222656 Z M 11.269531 18.222656 C 11.917969 18.390625 11.867188 18.691406 11.121094 19.125 C 10.980469 18.800781 11.027344 18.5 11.269531 18.222656 Z M 9.167969 20.03125 C 9.25 19.792969 9.402344 19.589844 9.617188 19.425781 C 9.777344 19.824219 9.625 20.023438 9.167969 20.03125 Z M 10.96875 19.425781 C 11.308594 19.613281 11.609375 19.867188 11.871094 20.179688 C 11.273438 20.335938 10.972656 20.085938 10.96875 19.425781 Z M 10.066406 20.03125 C 10.621094 20.070312 10.71875 20.273438 10.367188 20.632812 C 10.128906 20.496094 10.027344 20.292969 10.066406 20.03125 Z M 11.269531 24.847656 C 12.230469 24.75 12.53125 25.101562 12.171875 25.902344 C 11.679688 26.050781 11.179688 26.101562 10.667969 26.054688 C 10.675781 25.542969 10.878906 25.140625 11.269531 24.847656 Z M 43.128906 26.957031 C 43.265625 27.914062 43.566406 28.015625 44.03125 27.257812 C 44.335938 27.410156 44.386719 27.609375 44.179688 27.863281 C 43.40625 28.308594 42.753906 28.15625 42.226562 27.410156 C 42.449219 27.097656 42.75 26.945312 43.128906 26.957031 Z M 44.632812 28.464844 C 44.484375 29.164062 44.183594 29.765625 43.730469 30.269531 C 43.789062 29.703125 43.589844 29.25 43.128906 28.914062 C 43.652344 28.808594 44.15625 28.660156 44.632812 28.464844 Z M 41.324219 29.066406 C 42.386719 28.882812 42.9375 29.285156 42.976562 30.269531 C 41.957031 30.585938 41.40625 30.183594 41.324219 29.066406 Z M 13.976562 31.175781 C 13.925781 30.5625 13.976562 29.960938 14.125 29.367188 C 14.375 29.761719 14.523438 30.214844 14.578125 30.722656 C 14.414062 30.9375 14.210938 31.089844 13.976562 31.175781 Z M 12.773438 29.96875 C 13.363281 30.105469 13.464844 30.40625 13.074219 30.875 C 12.808594 30.625 12.707031 30.324219 12.773438 29.96875 Z M 16.378906 32.078125 C 16.179688 32.480469 15.878906 32.78125 15.476562 32.980469 C 15.515625 32.757812 15.46875 32.558594 15.328125 32.378906 C 15.023438 32.632812 14.671875 32.730469 14.277344 32.679688 C 14.179688 31.574219 14.679688 31.074219 15.777344 31.175781 C 15.714844 31.679688 15.914062 31.980469 16.378906 32.078125 Z M 38.621094 32.078125 C 39.621094 32.078125 40.121094 32.582031 40.121094 33.585938 C 39.027344 33.6875 38.523438 33.183594 38.621094 32.078125 Z M 40.722656 32.378906 C 41.023438 32.582031 41.324219 32.78125 41.625 32.980469 C 41.425781 33.382812 41.125 33.683594 40.722656 33.886719 C 40.722656 33.382812 40.722656 32.882812 40.722656 32.378906 Z M 17.28125 32.980469 C 18.136719 32.992188 18.484375 33.390625 18.332031 34.1875 C 17.84375 33.875 17.492188 33.472656 17.28125 32.980469 Z M 17.582031 35.390625 C 17.328125 34.886719 16.929688 34.535156 16.378906 34.335938 C 16.480469 34.238281 16.582031 34.136719 16.679688 34.035156 C 17.214844 34.050781 17.714844 34.25 18.183594 34.636719 C 18.011719 34.9375 17.8125 35.1875 17.582031 35.390625 Z M 38.621094 33.886719 C 39.199219 34.394531 39.800781 34.496094 40.421875 34.1875 C 39.90625 35.003906 39.207031 35.609375 38.320312 35.992188 C 38.121094 35.992188 37.917969 35.992188 37.71875 35.992188 C 37.617188 35.59375 37.519531 35.191406 37.417969 34.789062 C 37.921875 34.863281 38.371094 35.066406 38.769531 35.390625 C 38.886719 34.878906 38.835938 34.378906 38.621094 33.886719 Z M 18.785156 35.992188 C 18.582031 35.992188 18.382812 35.992188 18.183594 35.992188 C 18.558594 34.445312 18.757812 34.445312 18.785156 35.992188 Z M 22.390625 35.992188 C 21.789062 35.992188 21.1875 35.992188 20.585938 35.992188 C 21.183594 34.390625 21.78125 34.390625 22.390625 35.992188 Z M 34.414062 35.992188 C 33.8125 35.992188 33.210938 35.992188 32.609375 35.992188 C 32.582031 35.542969 32.785156 35.242188 33.210938 35.089844 C 33.804688 35.183594 34.207031 35.488281 34.414062 35.992188 Z M 36.214844 35.992188 C 35.816406 35.992188 35.414062 35.992188 35.011719 35.992188 C 35.472656 35.308594 35.875 35.308594 36.214844 35.992188 Z M 36.214844 35.992188 "/>
</g>
<mask id="mask1">
  <g filter="url(#alpha)">
<rect x="0" y="0" width="55" height="50" style="fill:rgb(0%,0%,0%);fill-opacity:0.768627;stroke:none;"/>
  </g>
</mask>
<clipPath id="clip2">
  <rect x="0" y="0" width="55" height="51"/>
</clipPath>
<g id="surface8" clip-path="url(#clip2)">
<path style=" stroke:none;fill-rule:evenodd;fill:rgb(0%,0%,0%);fill-opacity:1;" d="M 34.714844 1.957031 C 35.117188 2.355469 35.070312 2.65625 34.5625 2.863281 C 33.953125 2.417969 33.402344 2.46875 32.910156 3.011719 C 33.527344 3.21875 34.027344 3.570312 34.414062 4.066406 C 33.859375 4.273438 33.308594 4.175781 32.757812 3.765625 C 32.667969 4.144531 32.515625 4.496094 32.308594 4.820312 C 32.867188 4.945312 33.417969 5.097656 33.960938 5.269531 C 34.722656 4.335938 35.472656 3.429688 36.214844 2.558594 C 36.320312 2.8125 36.519531 2.914062 36.816406 2.863281 C 37.015625 2.863281 37.117188 2.960938 37.117188 3.164062 C 37.21875 3.414062 37.421875 3.515625 37.71875 3.464844 C 37.765625 3.976562 37.714844 4.476562 37.566406 4.96875 C 36.8125 5.574219 36.359375 6.378906 36.214844 7.378906 C 36.035156 6.535156 35.785156 5.730469 35.464844 4.96875 C 35.183594 5.441406 34.832031 5.839844 34.414062 6.175781 C 33.378906 5.914062 32.378906 5.5625 31.40625 5.121094 C 31.835938 4.082031 32.238281 3.027344 32.609375 1.957031 C 33.292969 1.699219 33.992188 1.699219 34.714844 1.957031 Z M 35.914062 3.464844 C 35.714844 3.871094 35.714844 4.222656 35.914062 4.519531 C 37.433594 4.464844 37.433594 4.117188 35.914062 3.464844 Z M 35.914062 3.464844 "/>
</g>
<mask id="mask2">
  <g filter="url(#alpha)">
<rect x="0" y="0" width="55" height="50" style="fill:rgb(0%,0%,0%);fill-opacity:0.72549;stroke:none;"/>
  </g>
</mask>
<clipPath id="clip3">
  <rect x="0" y="0" width="55" height="51"/>
</clipPath>
<g id="surface11" clip-path="url(#clip3)">
<path style=" stroke:none;fill-rule:evenodd;fill:rgb(0.392157%,0%,0%);fill-opacity:1;" d="M 24.796875 3.765625 C 24.675781 4.300781 24.476562 4.804688 24.195312 5.269531 C 23.390625 5.371094 23.390625 5.472656 24.195312 5.574219 C 24.089844 5.824219 23.890625 5.925781 23.59375 5.875 C 23.390625 5.875 23.191406 5.875 22.992188 5.875 C 21.933594 4.640625 21.53125 3.234375 21.789062 1.65625 C 22.277344 2.492188 22.625 3.398438 22.839844 4.367188 C 23.144531 4.621094 23.496094 4.71875 23.894531 4.667969 C 23.847656 3.535156 23.648438 2.429688 23.292969 1.355469 C 23.539062 1.089844 23.839844 0.988281 24.195312 1.054688 C 24.171875 2.042969 24.371094 2.945312 24.796875 3.765625 Z M 24.796875 3.765625 "/>
</g>
<mask id="mask3">
  <g filter="url(#alpha)">
<rect x="0" y="0" width="55" height="50" style="fill:rgb(0%,0%,0%);fill-opacity:0.733333;stroke:none;"/>
  </g>
</mask>
<clipPath id="clip4">
  <rect x="0" y="0" width="55" height="51"/>
</clipPath>
<g id="surface14" clip-path="url(#clip4)">
<path style=" stroke:none;fill-rule:evenodd;fill:rgb(0%,0%,0%);fill-opacity:1;" d="M 29.304688 0.753906 C 29.589844 0.890625 29.839844 1.089844 30.054688 1.355469 C 30.15625 2.160156 30.253906 2.960938 30.355469 3.765625 C 30.707031 3.0625 31.054688 2.359375 31.40625 1.65625 C 31.667969 1.332031 31.96875 1.28125 32.308594 1.507812 C 30.269531 6.261719 29.269531 6.011719 29.304688 0.753906 Z M 29.304688 0.753906 "/>
</g>
<mask id="mask4">
  <g filter="url(#alpha)">
<rect x="0" y="0" width="55" height="50" style="fill:rgb(0%,0%,0%);fill-opacity:0.658824;stroke:none;"/>
  </g>
</mask>
<clipPath id="clip5">
  <rect x="0" y="0" width="55" height="51"/>
</clipPath>
<g id="surface17" clip-path="url(#clip5)">
<path style=" stroke:none;fill-rule:evenodd;fill:rgb(3.137255%,5.098039%,2.745098%);fill-opacity:1;" d="M 31.707031 5.875 C 29.214844 5.609375 26.707031 5.511719 24.195312 5.574219 C 24.195312 5.472656 24.195312 5.371094 24.195312 5.269531 C 25.21875 5.285156 26.21875 5.132812 27.199219 4.820312 C 26.710938 4.191406 26.261719 3.539062 25.847656 2.863281 C 25.792969 3.585938 25.640625 4.289062 25.394531 4.96875 C 25.195312 4.535156 24.992188 4.132812 24.796875 3.765625 C 24.796875 2.863281 24.796875 1.957031 24.796875 1.054688 C 25.78125 1.390625 26.429688 2.09375 26.75 3.164062 C 26.804688 2.339844 26.953125 1.539062 27.199219 0.753906 C 27.515625 2.234375 27.71875 3.640625 27.800781 4.96875 C 28.097656 3.578125 28.199219 2.171875 28.101562 0.753906 C 28.402344 0.753906 28.703125 0.753906 29.003906 0.753906 C 28.878906 2.257812 28.777344 3.761719 28.703125 5.269531 C 29.800781 5.167969 30.804688 5.367188 31.707031 5.875 Z M 31.707031 5.875 "/>
</g>
<mask id="mask5">
  <g filter="url(#alpha)">
<rect x="0" y="0" width="55" height="50" style="fill:rgb(0%,0%,0%);fill-opacity:0.745098;stroke:none;"/>
  </g>
</mask>
<clipPath id="clip6">
  <rect x="0" y="0" width="55" height="51"/>
</clipPath>
<g id="surface20" clip-path="url(#clip6)">
<path style=" stroke:none;fill-rule:evenodd;fill:rgb(0%,0%,0%);fill-opacity:1;" d="M 20.285156 6.777344 C 19.988281 6.726562 19.789062 6.824219 19.6875 7.078125 C 19.484375 7.078125 19.285156 7.078125 19.085938 7.078125 C 18.199219 6.164062 17.5 5.109375 16.980469 3.914062 C 17.320312 3.691406 17.621094 3.738281 17.882812 4.066406 C 18.320312 4.695312 18.722656 5.347656 19.085938 6.023438 C 19.558594 6.234375 19.957031 6.132812 20.285156 5.722656 C 19.785156 4.820312 19.285156 3.914062 18.785156 3.011719 C 18.933594 2.863281 19.085938 2.710938 19.234375 2.558594 C 19.921875 3.546875 20.472656 4.601562 20.886719 5.722656 C 20.746094 6.117188 20.542969 6.464844 20.285156 6.777344 Z M 20.285156 6.777344 "/>
</g>
<mask id="mask6">
  <g filter="url(#alpha)">
<rect x="0" y="0" width="55" height="50" style="fill:rgb(0%,0%,0%);fill-opacity:0.764706;stroke:none;"/>
  </g>
</mask>
<clipPath id="clip7">
  <rect x="0" y="0" width="55" height="51"/>
</clipPath>
<g id="surface23" clip-path="url(#clip7)">
<path style=" stroke:none;fill-rule:evenodd;fill:rgb(0.392157%,0.392157%,0%);fill-opacity:1;" d="M 19.085938 7.078125 C 18.984375 7.277344 18.882812 7.480469 18.785156 7.679688 C 18.082031 7.425781 17.378906 7.277344 16.679688 7.230469 C 16.582031 7.328125 16.480469 7.429688 16.378906 7.53125 C 16.871094 7.871094 17.171875 8.320312 17.28125 8.886719 C 17.082031 8.886719 16.980469 8.984375 16.980469 9.1875 C 16.78125 9.1875 16.679688 9.289062 16.679688 9.488281 C 16.429688 9.589844 16.328125 9.792969 16.378906 10.089844 C 16.179688 10.089844 16.078125 10.191406 16.078125 10.390625 C 15.878906 10.390625 15.777344 10.492188 15.777344 10.691406 C 15.578125 10.691406 15.476562 10.792969 15.476562 10.992188 C 15.226562 11.097656 15.125 11.296875 15.175781 11.597656 C 15.277344 11.597656 15.378906 11.597656 15.476562 11.597656 C 15.191406 12.28125 14.792969 12.882812 14.277344 13.402344 C 14.304688 14.023438 14.105469 14.523438 13.675781 14.910156 C 13.753906 14.464844 13.652344 14.0625 13.375 13.703125 C 12.496094 13.3125 11.59375 13.011719 10.667969 12.800781 C 10.667969 12.5 10.667969 12.199219 10.667969 11.898438 C 11.570312 11.898438 12.472656 11.898438 13.375 11.898438 C 12.542969 11.371094 11.945312 10.667969 11.570312 9.789062 C 15.269531 11.199219 15.472656 10.851562 12.171875 8.734375 C 12.636719 8.054688 13.136719 7.402344 13.675781 6.777344 C 13.917969 6.871094 14.117188 7.019531 14.277344 7.230469 C 13.496094 7.808594 13.347656 8.460938 13.824219 9.1875 C 14.09375 8.636719 14.496094 8.234375 15.027344 7.980469 C 15.175781 8.082031 15.328125 8.183594 15.476562 8.28125 C 15.175781 8.683594 14.878906 9.085938 14.578125 9.488281 C 14.675781 9.789062 14.878906 9.988281 15.175781 10.089844 C 15.578125 9.589844 15.980469 9.085938 16.378906 8.585938 C 15.621094 7.773438 14.921875 6.921875 14.277344 6.023438 C 14.832031 5.695312 15.332031 5.292969 15.777344 4.820312 C 16.871094 4.753906 17.46875 5.308594 17.582031 6.476562 C 18.054688 6.765625 18.554688 6.964844 19.085938 7.078125 Z M 15.777344 5.574219 C 15.347656 6.019531 15.398438 6.421875 15.929688 6.777344 C 16.929688 6.117188 16.878906 5.714844 15.777344 5.574219 Z M 13.675781 11.296875 C 14.191406 11.332031 14.691406 11.433594 15.175781 11.597656 C 15.09375 11.835938 14.941406 12.035156 14.726562 12.199219 C 14.382812 11.855469 14.03125 11.554688 13.675781 11.296875 Z M 14.277344 13.402344 C 14.171875 12.882812 13.871094 12.734375 13.375 12.953125 C 13.683594 13.105469 13.984375 13.257812 14.277344 13.402344 Z M 14.277344 13.402344 "/>
</g>
<mask id="mask7">
  <g filter="url(#alpha)">
<rect x="0" y="0" width="55" height="50" style="fill:rgb(0%,0%,0%);fill-opacity:0.764706;stroke:none;"/>
  </g>
</mask>
<clipPath id="clip8">
  <rect x="0" y="0" width="55" height="51"/>
</clipPath>
<g id="surface26" clip-path="url(#clip8)">
<path style=" stroke:none;fill-rule:evenodd;fill:rgb(0%,0%,0%);fill-opacity:1;" d="M 39.523438 4.667969 C 39.722656 4.667969 39.824219 4.769531 39.824219 4.96875 C 40.023438 4.96875 40.121094 5.070312 40.121094 5.269531 C 40.324219 5.269531 40.421875 5.371094 40.421875 5.574219 C 40.507812 6.128906 40.304688 6.53125 39.824219 6.777344 C 39.542969 6.417969 39.441406 6.015625 39.523438 5.574219 C 39.167969 5.507812 38.867188 5.605469 38.621094 5.875 C 39.40625 6.738281 39.40625 7.589844 38.621094 8.433594 C 36.847656 8.519531 36.398438 7.765625 37.269531 6.175781 C 37.796875 6.453125 37.847656 6.804688 37.417969 7.230469 C 37.828125 8.023438 38.226562 8.074219 38.621094 7.378906 C 37.613281 5.976562 37.914062 5.074219 39.523438 4.667969 Z M 39.523438 4.667969 "/>
</g>
<mask id="mask8">
  <g filter="url(#alpha)">
<rect x="0" y="0" width="55" height="50" style="fill:rgb(0%,0%,0%);fill-opacity:0.14902;stroke:none;"/>
  </g>
</mask>
<clipPath id="clip9">
  <rect x="0" y="0" width="55" height="51"/>
</clipPath>
<g id="surface29" clip-path="url(#clip9)">
<path style=" stroke:none;fill-rule:evenodd;fill:rgb(7.843138%,7.450981%,4.313726%);fill-opacity:1;" d="M 32.609375 6.175781 C 33.585938 6.261719 34.390625 6.664062 35.011719 7.378906 C 34.117188 7.128906 33.316406 6.730469 32.609375 6.175781 Z M 32.609375 6.175781 "/>
</g>
<mask id="mask9">
  <g filter="url(#alpha)">
<rect x="0" y="0" width="55" height="50" style="fill:rgb(0%,0%,0%);fill-opacity:0.74902;stroke:none;"/>
  </g>
</mask>
<clipPath id="clip10">
  <rect x="0" y="0" width="55" height="51"/>
</clipPath>
<g id="surface32" clip-path="url(#clip10)">
<path style=" stroke:none;fill-rule:evenodd;fill:rgb(0%,0%,0%);fill-opacity:1;" d="M 41.625 6.777344 C 40.910156 7.648438 40.109375 8.5 39.222656 9.335938 C 38.878906 9.5625 38.578125 9.511719 38.320312 9.1875 C 39.167969 8.488281 39.96875 7.734375 40.722656 6.925781 C 41.007812 6.78125 41.308594 6.730469 41.625 6.777344 Z M 41.625 6.777344 "/>
</g>
<mask id="mask10">
  <g filter="url(#alpha)">
<rect x="0" y="0" width="55" height="50" style="fill:rgb(0%,0%,0%);fill-opacity:0.368627;stroke:none;"/>
  </g>
</mask>
<clipPath id="clip11">
  <rect x="0" y="0" width="55" height="51"/>
</clipPath>
<g id="surface35" clip-path="url(#clip11)">
<path style=" stroke:none;fill-rule:evenodd;fill:rgb(9.019608%,9.019608%,5.882353%);fill-opacity:1;" d="M 35.011719 7.378906 C 35.472656 7.359375 35.773438 7.558594 35.914062 7.980469 C 35.457031 8.003906 35.15625 7.804688 35.011719 7.378906 Z M 35.011719 7.378906 "/>
</g>
<mask id="mask11">
  <g filter="url(#alpha)">
<rect x="0" y="0" width="55" height="50" style="fill:rgb(0%,0%,0%);fill-opacity:0.380392;stroke:none;"/>
  </g>
</mask>
<clipPath id="clip12">
  <rect x="0" y="0" width="55" height="51"/>
</clipPath>
<g id="surface38" clip-path="url(#clip12)">
<path style=" stroke:none;fill-rule:evenodd;fill:rgb(8.627451%,11.372549%,7.058824%);fill-opacity:1;" d="M 36.214844 8.28125 C 36.675781 8.261719 36.976562 8.460938 37.117188 8.886719 C 36.660156 8.90625 36.359375 8.707031 36.214844 8.28125 Z M 36.214844 8.28125 "/>
</g>
<mask id="mask12">
  <g filter="url(#alpha)">
<rect x="0" y="0" width="55" height="50" style="fill:rgb(0%,0%,0%);fill-opacity:0.87451;stroke:none;"/>
  </g>
</mask>
<clipPath id="clip13">
  <rect x="0" y="0" width="55" height="51"/>
</clipPath>
<g id="surface41" clip-path="url(#clip13)">
<path style=" stroke:none;fill-rule:evenodd;fill:rgb(14.901961%,34.901962%,17.647059%);fill-opacity:1;" d="M 18.785156 7.679688 C 18.984375 7.679688 19.183594 7.679688 19.386719 7.679688 C 19.058594 8.308594 18.558594 8.710938 17.882812 8.886719 C 18.183594 8.484375 18.484375 8.082031 18.785156 7.679688 Z M 18.785156 7.679688 "/>
</g>
<mask id="mask13">
  <g filter="url(#alpha)">
<rect x="0" y="0" width="55" height="50" style="fill:rgb(0%,0%,0%);fill-opacity:0.917647;stroke:none;"/>
  </g>
</mask>
<clipPath id="clip14">
  <rect x="0" y="0" width="55" height="51"/>
</clipPath>
<g id="surface44" clip-path="url(#clip14)">
<path style=" stroke:none;fill-rule:evenodd;fill:rgb(8.627451%,15.686275%,9.019608%);fill-opacity:1;" d="M 17.28125 8.886719 C 17.480469 8.886719 17.683594 8.886719 17.882812 8.886719 C 17.582031 9.386719 17.179688 9.789062 16.679688 10.089844 C 16.679688 9.890625 16.679688 9.6875 16.679688 9.488281 C 16.878906 9.488281 16.980469 9.386719 16.980469 9.1875 C 17.179688 9.1875 17.28125 9.085938 17.28125 8.886719 Z M 17.28125 8.886719 "/>
</g>
<mask id="mask14">
  <g filter="url(#alpha)">
<rect x="0" y="0" width="55" height="50" style="fill:rgb(0%,0%,0%);fill-opacity:0.690196;stroke:none;"/>
  </g>
</mask>
<clipPath id="clip15">
  <rect x="0" y="0" width="55" height="51"/>
</clipPath>
<g id="surface47" clip-path="url(#clip15)">
<path style=" stroke:none;fill-rule:evenodd;fill:rgb(0%,0%,0%);fill-opacity:1;" d="M 44.03125 10.089844 C 44.0625 10.8125 43.761719 11.367188 43.128906 11.746094 C 43.765625 11.992188 44.367188 12.292969 44.933594 12.652344 C 44.066406 12.855469 43.214844 12.804688 42.378906 12.5 C 41.804688 12.671875 41.253906 12.875 40.722656 13.101562 C 40.722656 12.902344 40.625 12.800781 40.421875 12.800781 C 41.679688 12.015625 42.882812 11.113281 44.03125 10.089844 Z M 44.03125 10.089844 "/>
</g>
<mask id="mask15">
  <g filter="url(#alpha)">
<rect x="0" y="0" width="55" height="50" style="fill:rgb(0%,0%,0%);fill-opacity:0.988235;stroke:none;"/>
  </g>
</mask>
<clipPath id="clip16">
  <rect x="0" y="0" width="55" height="51"/>
</clipPath>
<g id="surface50" clip-path="url(#clip16)">
<path style=" stroke:none;fill-rule:evenodd;fill:rgb(11.372549%,23.137255%,12.156863%);fill-opacity:1;" d="M 15.777344 10.691406 C 15.878906 10.691406 15.980469 10.691406 16.078125 10.691406 C 16.101562 11.152344 15.902344 11.453125 15.476562 11.597656 C 15.476562 11.394531 15.476562 11.195312 15.476562 10.992188 C 15.679688 10.992188 15.777344 10.894531 15.777344 10.691406 Z M 15.777344 10.691406 "/>
</g>
<mask id="mask16">
  <g filter="url(#alpha)">
<rect x="0" y="0" width="55" height="50" style="fill:rgb(0%,0%,0%);fill-opacity:0.811765;stroke:none;"/>
  </g>
</mask>
<clipPath id="clip17">
  <rect x="0" y="0" width="55" height="51"/>
</clipPath>
<g id="surface53" clip-path="url(#clip17)">
<path style=" stroke:none;fill-rule:evenodd;fill:rgb(9.019608%,3.921569%,3.529412%);fill-opacity:1;" d="M 40.121094 12.800781 C 40.222656 12.800781 40.324219 12.800781 40.421875 12.800781 C 40.625 12.800781 40.722656 12.902344 40.722656 13.101562 C 40.886719 13.589844 40.984375 14.089844 41.023438 14.609375 C 40.570312 14.101562 40.269531 13.5 40.121094 12.800781 Z M 40.121094 12.800781 "/>
</g>
<mask id="mask17">
  <g filter="url(#alpha)">
<rect x="0" y="0" width="55" height="50" style="fill:rgb(0%,0%,0%);fill-opacity:0.905882;stroke:none;"/>
  </g>
</mask>
<clipPath id="clip18">
  <rect x="0" y="0" width="55" height="51"/>
</clipPath>
<g id="surface56" clip-path="url(#clip18)">
<path style=" stroke:none;fill-rule:evenodd;fill:rgb(10.980392%,11.764706%,7.843138%);fill-opacity:1;" d="M 13.675781 14.910156 C 13.773438 15.730469 13.574219 16.433594 13.074219 17.019531 C 13.046875 16.21875 13.246094 15.515625 13.675781 14.910156 Z M 13.675781 14.910156 "/>
</g>
<mask id="mask18">
  <g filter="url(#alpha)">
<rect x="0" y="0" width="55" height="50" style="fill:rgb(0%,0%,0%);fill-opacity:0.721569;stroke:none;"/>
  </g>
</mask>
<clipPath id="clip19">
  <rect x="0" y="0" width="55" height="51"/>
</clipPath>
<g id="surface59" clip-path="url(#clip19)">
<path style=" stroke:none;fill-rule:evenodd;fill:rgb(8.235294%,1.960784%,1.960784%);fill-opacity:1;" d="M 13.074219 17.320312 C 13.03125 19.535156 13.132812 21.746094 13.375 23.945312 C 12.917969 22.722656 12.71875 21.417969 12.773438 20.03125 C 12.773438 19.070312 12.875 18.167969 13.074219 17.320312 Z M 13.074219 17.320312 "/>
</g>
<mask id="mask19">
  <g filter="url(#alpha)">
<rect x="0" y="0" width="55" height="50" style="fill:rgb(0%,0%,0%);fill-opacity:0.694118;stroke:none;"/>
  </g>
</mask>
<clipPath id="clip20">
  <rect x="0" y="0" width="55" height="51"/>
</clipPath>
<g id="surface62" clip-path="url(#clip20)">
<path style=" stroke:none;fill-rule:evenodd;fill:rgb(0%,0%,0%);fill-opacity:1;" d="M 12.773438 26.355469 C 13.378906 26.648438 13.777344 27.152344 13.976562 27.863281 C 13.875 27.960938 13.773438 28.0625 13.675781 28.164062 C 13.234375 27.898438 12.984375 27.496094 12.921875 26.957031 C 12.582031 27.433594 12.429688 27.933594 12.472656 28.464844 C 12.105469 28.234375 11.804688 27.933594 11.570312 27.558594 C 11.152344 27.90625 10.753906 27.90625 10.367188 27.558594 C 11.480469 27.1875 11.429688 26.785156 10.21875 26.355469 C 9.964844 24.640625 10.714844 23.988281 12.472656 24.398438 C 13.128906 24.96875 13.230469 25.621094 12.773438 26.355469 Z M 11.269531 24.847656 C 10.878906 25.140625 10.675781 25.542969 10.667969 26.054688 C 11.179688 26.101562 11.679688 26.050781 12.171875 25.902344 C 12.53125 25.101562 12.230469 24.75 11.269531 24.847656 Z M 11.269531 24.847656 "/>
</g>
<mask id="mask20">
  <g filter="url(#alpha)">
<rect x="0" y="0" width="55" height="50" style="fill:rgb(0%,0%,0%);fill-opacity:0.403922;stroke:none;"/>
  </g>
</mask>
<clipPath id="clip21">
  <rect x="0" y="0" width="55" height="51"/>
</clipPath>
<g id="surface65" clip-path="url(#clip21)">
<path style=" stroke:none;fill-rule:evenodd;fill:rgb(8.627451%,7.058824%,4.313726%);fill-opacity:1;" d="M 40.121094 27.257812 C 40.144531 27.71875 39.945312 28.019531 39.523438 28.164062 C 39.5 27.703125 39.699219 27.402344 40.121094 27.257812 Z M 40.121094 27.257812 "/>
</g>
<mask id="mask21">
  <g filter="url(#alpha)">
<rect x="0" y="0" width="55" height="50" style="fill:rgb(0%,0%,0%);fill-opacity:0.282353;stroke:none;"/>
  </g>
</mask>
<clipPath id="clip22">
  <rect x="0" y="0" width="55" height="51"/>
</clipPath>
<g id="surface68" clip-path="url(#clip22)">
<path style=" stroke:none;fill-rule:evenodd;fill:rgb(7.843138%,5.490196%,3.137255%);fill-opacity:1;" d="M 14.878906 27.558594 C 15.300781 27.703125 15.5 28.003906 15.476562 28.464844 C 15.054688 28.320312 14.855469 28.019531 14.878906 27.558594 Z M 14.878906 27.558594 "/>
</g>
<mask id="mask22">
  <g filter="url(#alpha)">
<rect x="0" y="0" width="55" height="50" style="fill:rgb(0%,0%,0%);fill-opacity:0.372549;stroke:none;"/>
  </g>
</mask>
<clipPath id="clip23">
  <rect x="0" y="0" width="55" height="51"/>
</clipPath>
<g id="surface71" clip-path="url(#clip23)">
<path style=" stroke:none;fill-rule:evenodd;fill:rgb(8.627451%,7.058824%,4.313726%);fill-opacity:1;" d="M 39.523438 28.164062 C 39.542969 28.621094 39.34375 28.921875 38.921875 29.066406 C 38.898438 28.605469 39.097656 28.304688 39.523438 28.164062 Z M 39.523438 28.164062 "/>
</g>
<mask id="mask23">
  <g filter="url(#alpha)">
<rect x="0" y="0" width="55" height="50" style="fill:rgb(0%,0%,0%);fill-opacity:0.713725;stroke:none;"/>
  </g>
</mask>
<clipPath id="clip24">
  <rect x="0" y="0" width="55" height="51"/>
</clipPath>
<g id="surface74" clip-path="url(#clip24)">
<path style=" stroke:none;fill-rule:evenodd;fill:rgb(0%,0%,0%);fill-opacity:1;" d="M 15.175781 30.269531 C 16.171875 30.464844 16.570312 31.066406 16.378906 32.078125 C 15.914062 31.980469 15.714844 31.679688 15.777344 31.175781 C 14.679688 31.074219 14.179688 31.574219 14.277344 32.679688 C 14.671875 32.730469 15.023438 32.632812 15.328125 32.378906 C 15.46875 32.558594 15.515625 32.757812 15.476562 32.980469 C 15.277344 32.980469 15.175781 33.082031 15.175781 33.28125 C 13.851562 33.414062 13.351562 32.8125 13.675781 31.476562 C 12.351562 31.609375 11.847656 31.003906 12.171875 29.667969 C 12.914062 29.578125 13.566406 29.277344 14.125 28.765625 C 14.890625 28.976562 15.238281 29.480469 15.175781 30.269531 Z M 13.976562 31.175781 C 14.210938 31.089844 14.414062 30.9375 14.578125 30.722656 C 14.523438 30.214844 14.375 29.761719 14.125 29.367188 C 13.976562 29.960938 13.925781 30.5625 13.976562 31.175781 Z M 12.773438 29.96875 C 12.707031 30.324219 12.808594 30.625 13.074219 30.875 C 13.464844 30.40625 13.363281 30.105469 12.773438 29.96875 Z M 12.773438 29.96875 "/>
</g>
<mask id="mask24">
  <g filter="url(#alpha)">
<rect x="0" y="0" width="55" height="50" style="fill:rgb(0%,0%,0%);fill-opacity:0.180392;stroke:none;"/>
  </g>
</mask>
<clipPath id="clip25">
  <rect x="0" y="0" width="55" height="51"/>
</clipPath>
<g id="surface77" clip-path="url(#clip25)">
<path style=" stroke:none;fill-rule:evenodd;fill:rgb(8.235294%,8.235294%,5.490196%);fill-opacity:1;" d="M 15.476562 28.464844 C 16.007812 28.695312 16.308594 29.09375 16.378906 29.667969 C 15.851562 29.4375 15.550781 29.039062 15.476562 28.464844 Z M 15.476562 28.464844 "/>
</g>
<mask id="mask25">
  <g filter="url(#alpha)">
<rect x="0" y="0" width="55" height="50" style="fill:rgb(0%,0%,0%);fill-opacity:0.745098;stroke:none;"/>
  </g>
</mask>
<clipPath id="clip26">
  <rect x="0" y="0" width="55" height="51"/>
</clipPath>
<g id="surface80" clip-path="url(#clip26)">
<path style=" stroke:none;fill-rule:evenodd;fill:rgb(2.352941%,2.352941%,2.352941%);fill-opacity:1;" d="M 42.527344 32.078125 C 42.328125 32.078125 42.226562 32.179688 42.226562 32.378906 C 42.027344 32.378906 41.925781 32.480469 41.925781 32.679688 C 41.726562 32.679688 41.625 32.78125 41.625 32.980469 C 41.324219 32.78125 41.023438 32.582031 40.722656 32.378906 C 40.722656 32.882812 40.722656 33.382812 40.722656 33.886719 C 40.523438 33.886719 40.421875 33.984375 40.421875 34.1875 C 39.800781 34.496094 39.199219 34.394531 38.621094 33.886719 C 38.835938 34.378906 38.886719 34.878906 38.769531 35.390625 C 38.371094 35.066406 37.921875 34.863281 37.417969 34.789062 C 37.519531 35.191406 37.617188 35.59375 37.71875 35.992188 C 37.519531 35.992188 37.316406 35.992188 37.117188 35.992188 C 37.015625 35.191406 36.917969 35.191406 36.816406 35.992188 C 36.683594 36.296875 36.484375 36.296875 36.214844 35.992188 C 35.875 35.308594 35.472656 35.308594 35.011719 35.992188 C 34.8125 35.992188 34.613281 35.992188 34.414062 35.992188 C 34.207031 35.488281 33.804688 35.183594 33.210938 35.089844 C 32.785156 35.242188 32.582031 35.542969 32.609375 35.992188 C 32.609375 36.195312 32.609375 36.394531 32.609375 36.597656 C 32.410156 36.394531 32.207031 36.195312 32.007812 35.992188 C 31.507812 35.59375 31.007812 35.59375 30.503906 35.992188 C 30.941406 36.234375 31.441406 36.386719 32.007812 36.445312 C 30.355469 37.085938 30.457031 37.488281 32.308594 37.652344 C 31.78125 38.046875 31.183594 38.199219 30.503906 38.101562 C 30.519531 37.378906 30.421875 36.675781 30.203125 35.992188 C 30.105469 35.59375 30.003906 35.59375 29.90625 35.992188 C 29.402344 36.429688 29.152344 37.03125 29.152344 37.800781 C 29.003906 37.207031 28.953125 36.605469 29.003906 35.992188 C 28.703125 35.992188 28.402344 35.992188 28.101562 35.992188 C 28.535156 35.492188 29.136719 35.242188 29.90625 35.242188 C 30.683594 35.007812 31.4375 35.058594 32.160156 35.390625 C 32.4375 34.628906 32.988281 34.328125 33.8125 34.488281 C 33.828125 34.324219 33.929688 34.222656 34.113281 34.1875 C 34.441406 34.644531 34.839844 34.894531 35.3125 34.941406 C 35.679688 34.605469 35.679688 34.253906 35.3125 33.886719 C 35.5625 33.609375 35.863281 33.410156 36.214844 33.28125 C 36.6875 33.570312 37.191406 33.773438 37.71875 33.886719 C 37.523438 33.492188 37.320312 33.089844 37.117188 32.679688 C 37.457031 32.347656 37.707031 32.449219 37.867188 32.980469 C 37.816406 31.984375 38.265625 31.378906 39.222656 31.175781 C 39.183594 30.910156 39.28125 30.710938 39.523438 30.574219 C 40.121094 31.074219 40.722656 31.578125 41.324219 32.078125 C 41.625 31.878906 41.925781 31.675781 42.226562 31.476562 C 42.464844 31.613281 42.566406 31.816406 42.527344 32.078125 Z M 38.621094 32.078125 C 38.523438 33.183594 39.027344 33.6875 40.121094 33.585938 C 40.121094 32.582031 39.621094 32.078125 38.621094 32.078125 Z M 34.414062 35.992188 C 33.8125 35.992188 33.210938 35.992188 32.609375 35.992188 C 32.582031 35.542969 32.785156 35.242188 33.210938 35.089844 C 33.804688 35.183594 34.207031 35.488281 34.414062 35.992188 Z M 36.214844 35.992188 C 35.816406 35.992188 35.414062 35.992188 35.011719 35.992188 C 35.472656 35.308594 35.875 35.308594 36.214844 35.992188 Z M 36.214844 35.992188 "/>
</g>
<mask id="mask26">
  <g filter="url(#alpha)">
<rect x="0" y="0" width="55" height="50" style="fill:rgb(0%,0%,0%);fill-opacity:0.211765;stroke:none;"/>
  </g>
</mask>
<clipPath id="clip27">
  <rect x="0" y="0" width="55" height="51"/>
</clipPath>
<g id="surface83" clip-path="url(#clip27)">
<path style=" stroke:none;fill-rule:evenodd;fill:rgb(5.882353%,1.176471%,2.352941%);fill-opacity:1;" d="M 38.621094 29.367188 C 38.21875 30.371094 37.519531 31.074219 36.515625 31.476562 C 37.117188 30.671875 37.820312 29.96875 38.621094 29.367188 Z M 38.621094 29.367188 "/>
</g>
<mask id="mask27">
  <g filter="url(#alpha)">
<rect x="0" y="0" width="55" height="50" style="fill:rgb(0%,0%,0%);fill-opacity:0.717647;stroke:none;"/>
  </g>
</mask>
<clipPath id="clip28">
  <rect x="0" y="0" width="55" height="51"/>
</clipPath>
<g id="surface86" clip-path="url(#clip28)">
<path style=" stroke:none;fill-rule:evenodd;fill:rgb(0%,0%,0%);fill-opacity:1;" d="M 17.28125 32.078125 C 17.960938 32.402344 18.613281 32.804688 19.234375 33.28125 C 19.335938 33.984375 19.433594 34.6875 19.535156 35.390625 C 19.644531 34.8125 19.894531 34.3125 20.285156 33.886719 C 20.488281 34.085938 20.6875 34.285156 20.886719 34.488281 C 21.613281 34.121094 22.164062 34.320312 22.539062 35.089844 C 23.257812 34.679688 23.90625 34.777344 24.496094 35.390625 C 24.148438 35.761719 23.796875 35.761719 23.441406 35.390625 C 23.226562 35.554688 23.078125 35.757812 22.992188 35.992188 C 23.324219 36.230469 23.726562 36.382812 24.195312 36.445312 C 23.703125 36.59375 23.203125 36.644531 22.691406 36.597656 C 22.742188 36.296875 22.644531 36.097656 22.390625 35.992188 C 21.78125 34.390625 21.183594 34.390625 20.585938 35.992188 C 20.585938 36.296875 20.585938 36.597656 20.585938 36.898438 C 20.316406 36.683594 20.214844 36.382812 20.285156 35.992188 C 19.800781 35.953125 19.449219 36.152344 19.234375 36.597656 C 19.152344 36.320312 19 36.121094 18.785156 35.992188 C 18.757812 34.445312 18.558594 34.445312 18.183594 35.992188 C 17.984375 35.992188 17.78125 35.992188 17.582031 35.992188 C 17.582031 35.792969 17.582031 35.59375 17.582031 35.390625 C 17.394531 35.425781 17.246094 35.523438 17.132812 35.691406 C 16.726562 35.234375 16.273438 34.832031 15.777344 34.488281 C 15.96875 34.210938 16.066406 33.910156 16.078125 33.585938 C 15.203125 34.5 14.902344 34.398438 15.175781 33.28125 C 15.378906 33.28125 15.476562 33.183594 15.476562 32.980469 C 15.878906 32.78125 16.179688 32.480469 16.378906 32.078125 C 16.726562 31.738281 17.027344 31.738281 17.28125 32.078125 Z M 17.28125 32.980469 C 17.492188 33.472656 17.84375 33.875 18.332031 34.1875 C 18.484375 33.390625 18.136719 32.992188 17.28125 32.980469 Z M 17.582031 35.390625 C 17.8125 35.1875 18.011719 34.9375 18.183594 34.636719 C 17.714844 34.25 17.214844 34.050781 16.679688 34.035156 C 16.582031 34.136719 16.480469 34.238281 16.378906 34.335938 C 16.929688 34.535156 17.328125 34.886719 17.582031 35.390625 Z M 18.785156 35.992188 C 18.582031 35.992188 18.382812 35.992188 18.183594 35.992188 C 18.558594 34.445312 18.757812 34.445312 18.785156 35.992188 Z M 22.390625 35.992188 C 21.789062 35.992188 21.1875 35.992188 20.585938 35.992188 C 21.183594 34.390625 21.78125 34.390625 22.390625 35.992188 Z M 22.390625 35.992188 "/>
</g>
<mask id="mask28">
  <g filter="url(#alpha)">
<rect x="0" y="0" width="55" height="50" style="fill:rgb(0%,0%,0%);fill-opacity:0.333333;stroke:none;"/>
  </g>
</mask>
<clipPath id="clip29">
  <rect x="0" y="0" width="55" height="51"/>
</clipPath>
<g id="surface89" clip-path="url(#clip29)">
<path style=" stroke:none;fill-rule:evenodd;fill:rgb(7.843138%,0.392157%,1.568628%);fill-opacity:1;" d="M 36.214844 31.777344 C 36.074219 32.199219 35.773438 32.402344 35.3125 32.378906 C 35.457031 31.957031 35.757812 31.753906 36.214844 31.777344 Z M 36.214844 31.777344 "/>
</g>
<mask id="mask29">
  <g filter="url(#alpha)">
<rect x="0" y="0" width="55" height="50" style="fill:rgb(0%,0%,0%);fill-opacity:0.945098;stroke:none;"/>
  </g>
</mask>
<clipPath id="clip30">
  <rect x="0" y="0" width="55" height="51"/>
</clipPath>
<g id="surface92" clip-path="url(#clip30)">
<path style=" stroke:none;fill-rule:evenodd;fill:rgb(10.196079%,7.058824%,5.490196%);fill-opacity:1;" d="M 19.085938 32.078125 C 19.542969 32.054688 19.84375 32.257812 19.988281 32.679688 C 19.527344 32.703125 19.226562 32.5 19.085938 32.078125 Z M 19.085938 32.078125 "/>
</g>
<mask id="mask30">
  <g filter="url(#alpha)">
<rect x="0" y="0" width="55" height="50" style="fill:rgb(0%,0%,0%);fill-opacity:0.992157;stroke:none;"/>
  </g>
</mask>
<clipPath id="clip31">
  <rect x="0" y="0" width="55" height="51"/>
</clipPath>
<g id="surface95" clip-path="url(#clip31)">
<path style=" stroke:none;fill-rule:evenodd;fill:rgb(9.803922%,1.568628%,3.137255%);fill-opacity:1;" d="M 35.3125 32.378906 C 33.011719 34.21875 30.355469 35.023438 27.351562 34.789062 C 24.609375 34.945312 22.15625 34.242188 19.988281 32.679688 C 25.144531 35.164062 30.253906 35.0625 35.3125 32.378906 Z M 35.3125 32.378906 "/>
</g>
<mask id="mask31">
  <g filter="url(#alpha)">
<rect x="0" y="0" width="55" height="50" style="fill:rgb(0%,0%,0%);fill-opacity:0.796078;stroke:none;"/>
  </g>
</mask>
<clipPath id="clip32">
  <rect x="0" y="0" width="55" height="51"/>
</clipPath>
<g id="surface98" clip-path="url(#clip32)">
<path style=" stroke:none;fill-rule:evenodd;fill:rgb(0%,0%,0%);fill-opacity:1;" d="M 26.898438 35.992188 C 26.898438 36.195312 26.796875 36.296875 26.597656 36.296875 C 26.34375 35.957031 26.042969 35.957031 25.695312 36.296875 C 25.695312 36.195312 25.695312 36.09375 25.695312 35.992188 C 25.734375 35.667969 25.933594 35.464844 26.296875 35.390625 C 26.664062 35.464844 26.863281 35.667969 26.898438 35.992188 Z M 26.898438 35.992188 "/>
</g>
</defs>
<g id="surface1">
<use xlink:href="#surface5" mask="url(#mask0)"/>
<use xlink:href="#surface8" mask="url(#mask1)"/>
<use xlink:href="#surface11" mask="url(#mask2)"/>
<use xlink:href="#surface14" mask="url(#mask3)"/>
<use xlink:href="#surface17" mask="url(#mask4)"/>
<use xlink:href="#surface20" mask="url(#mask5)"/>
<use xlink:href="#surface23" mask="url(#mask6)"/>
<use xlink:href="#surface26" mask="url(#mask7)"/>
<path style=" stroke:none;fill-rule:evenodd;fill:rgb(9.411765%,80.784315%,38.431373%);fill-opacity:1;" d="M 24.195312 5.574219 C 26.707031 5.511719 29.214844 5.609375 31.707031 5.875 C 32.09375 5.800781 32.394531 5.902344 32.609375 6.175781 C 33.316406 6.730469 34.117188 7.128906 35.011719 7.378906 C 35.15625 7.804688 35.457031 8.003906 35.914062 7.980469 C 36.117188 7.980469 36.214844 8.082031 36.214844 8.28125 C 36.359375 8.707031 36.660156 8.90625 37.117188 8.886719 C 37.417969 8.984375 37.617188 9.1875 37.71875 9.488281 C 37.894531 10.164062 38.292969 10.667969 38.921875 10.992188 C 38.992188 11.566406 39.292969 11.96875 39.824219 12.199219 C 40.074219 12.300781 40.175781 12.503906 40.121094 12.800781 C 40.269531 13.5 40.570312 14.101562 41.023438 14.609375 C 41.976562 18.691406 41.773438 22.710938 40.421875 26.65625 C 40.476562 26.957031 40.375 27.15625 40.121094 27.257812 C 39.699219 27.402344 39.5 27.703125 39.523438 28.164062 C 39.097656 28.304688 38.898438 28.605469 38.921875 29.066406 C 38.921875 29.265625 38.820312 29.367188 38.621094 29.367188 C 37.820312 29.96875 37.117188 30.671875 36.515625 31.476562 C 36.515625 31.675781 36.417969 31.777344 36.214844 31.777344 C 35.757812 31.753906 35.457031 31.957031 35.3125 32.378906 C 30.253906 35.0625 25.144531 35.164062 19.988281 32.679688 C 19.84375 32.257812 19.542969 32.054688 19.085938 32.078125 C 18.757812 31.449219 18.257812 31.046875 17.582031 30.875 C 17.082031 30.574219 16.679688 30.171875 16.378906 29.667969 C 16.308594 29.09375 16.007812 28.695312 15.476562 28.464844 C 15.5 28.003906 15.300781 27.703125 14.878906 27.558594 C 14.054688 26.511719 13.554688 25.304688 13.375 23.945312 C 13.132812 21.746094 13.03125 19.535156 13.074219 17.320312 C 13.074219 17.21875 13.074219 17.117188 13.074219 17.019531 C 13.574219 16.433594 13.773438 15.730469 13.675781 14.910156 C 14.105469 14.523438 14.304688 14.023438 14.277344 13.402344 C 14.792969 12.882812 15.191406 12.28125 15.476562 11.597656 C 15.902344 11.453125 16.101562 11.152344 16.078125 10.691406 C 16.078125 10.59375 16.078125 10.492188 16.078125 10.390625 C 16.28125 10.390625 16.378906 10.292969 16.378906 10.089844 C 16.480469 10.089844 16.582031 10.089844 16.679688 10.089844 C 17.179688 9.789062 17.582031 9.386719 17.882812 8.886719 C 18.558594 8.710938 19.058594 8.308594 19.386719 7.679688 C 19.84375 7.703125 20.144531 7.5 20.285156 7.078125 C 20.285156 6.976562 20.285156 6.878906 20.285156 6.777344 C 20.6875 6.675781 21.089844 6.578125 21.488281 6.476562 C 22.285156 6.503906 22.988281 6.300781 23.59375 5.875 C 23.890625 5.925781 24.089844 5.824219 24.195312 5.574219 Z M 24.195312 5.574219 "/>
<path style=" stroke:none;fill-rule:evenodd;fill:rgb(14.117648%,34.509805%,17.647059%);fill-opacity:1;" d="M 22.992188 5.875 C 23.191406 5.875 23.390625 5.875 23.59375 5.875 C 22.988281 6.300781 22.285156 6.503906 21.488281 6.476562 C 21.875 6.042969 22.375 5.84375 22.992188 5.875 Z M 22.992188 5.875 "/>
<use xlink:href="#surface29" mask="url(#mask8)"/>
<use xlink:href="#surface32" mask="url(#mask9)"/>
<path style=" stroke:none;fill-rule:evenodd;fill:rgb(12.54902%,19.215687%,10.980392%);fill-opacity:1;" d="M 19.6875 7.078125 C 19.886719 7.078125 20.085938 7.078125 20.285156 7.078125 C 20.144531 7.5 19.84375 7.703125 19.386719 7.679688 C 19.484375 7.480469 19.585938 7.277344 19.6875 7.078125 Z M 19.6875 7.078125 "/>
<use xlink:href="#surface35" mask="url(#mask10)"/>
<path style=" stroke:none;fill-rule:evenodd;fill:rgb(96.470588%,75.294119%,13.333334%);fill-opacity:1;" d="M 37.417969 22.441406 C 37.46875 22.839844 37.367188 23.1875 37.117188 23.492188 C 37.96875 24.097656 38.769531 24.75 39.523438 25.453125 C 39.382812 25.992188 39.03125 26.292969 38.46875 26.355469 C 35.195312 25.433594 34.746094 26.285156 37.117188 28.914062 C 36.847656 29.289062 36.496094 29.539062 36.066406 29.667969 C 35.214844 29.140625 34.414062 28.539062 33.660156 27.863281 C 32.824219 28.875 32.773438 29.980469 33.511719 31.175781 C 32.988281 31.691406 32.386719 31.941406 31.707031 31.925781 C 30.035156 28.792969 29.035156 29.042969 28.703125 32.679688 C 28.101562 32.679688 27.5 32.679688 26.898438 32.679688 C 26.863281 31.667969 26.765625 30.664062 26.597656 29.667969 C 26.1875 29.621094 25.785156 29.671875 25.394531 29.820312 C 24.898438 30.667969 24.300781 31.417969 23.59375 32.078125 C 23.054688 31.9375 22.753906 31.585938 22.691406 31.023438 C 22.800781 30.285156 23 29.582031 23.292969 28.914062 C 22.828125 28.558594 22.328125 28.457031 21.789062 28.613281 C 21.109375 29.132812 20.460938 29.683594 19.835938 30.269531 C 19.429688 29.914062 19.078125 29.511719 18.785156 29.066406 C 20.894531 26.261719 20.292969 25.558594 16.980469 26.957031 C 16.613281 26.839844 16.414062 26.589844 16.378906 26.203125 C 16.992188 25.441406 17.691406 24.738281 18.484375 24.097656 C 18.347656 23.972656 18.246094 23.820312 18.183594 23.644531 C 17.097656 23.347656 15.996094 23.246094 14.878906 23.34375 C 14.878906 22.839844 14.878906 22.339844 14.878906 21.835938 C 15.890625 21.699219 16.894531 21.5 17.882812 21.234375 C 17.882812 20.832031 17.882812 20.433594 17.882812 20.03125 C 16.972656 19.9375 16.074219 19.789062 15.175781 19.578125 C 14.90625 19.066406 14.804688 18.515625 14.878906 17.921875 C 15.878906 17.921875 16.878906 17.921875 17.882812 17.921875 C 17.832031 17.523438 17.929688 17.171875 18.183594 16.867188 C 17.382812 16.265625 16.582031 15.664062 15.777344 15.058594 C 15.964844 14.53125 16.316406 14.179688 16.832031 14.007812 C 20.296875 15.191406 20.847656 14.386719 18.484375 11.597656 C 18.777344 11.148438 19.128906 10.75 19.535156 10.390625 C 22.257812 13.132812 23.109375 12.679688 22.089844 9.035156 C 22.460938 8.800781 22.859375 8.648438 23.292969 8.585938 C 23.929688 9.050781 24.429688 9.652344 24.796875 10.390625 C 25.257812 10.679688 25.761719 10.777344 26.296875 10.691406 C 26.464844 9.695312 26.5625 8.691406 26.597656 7.679688 C 27.199219 7.679688 27.800781 7.679688 28.402344 7.679688 C 28.621094 11.210938 29.523438 11.460938 31.105469 8.433594 C 31.40625 8.234375 31.707031 8.234375 32.007812 8.433594 C 32.128906 9.480469 32.230469 10.535156 32.308594 11.597656 C 32.507812 11.695312 32.710938 11.796875 32.910156 11.898438 C 33.625 11.179688 34.425781 10.578125 35.3125 10.089844 C 35.777344 10.304688 36.078125 10.65625 36.214844 11.144531 C 35.683594 11.960938 35.335938 12.8125 35.164062 13.703125 C 35.363281 13.90625 35.566406 14.105469 35.765625 14.308594 C 36.851562 13.402344 37.953125 13.300781 39.070312 14.007812 C 39.273438 14.207031 39.273438 14.40625 39.070312 14.609375 C 38.414062 15.039062 37.8125 15.539062 37.269531 16.113281 C 37.066406 16.414062 37.066406 16.71875 37.269531 17.019531 C 38.308594 17.207031 39.359375 17.410156 40.421875 17.621094 C 40.523438 17.820312 40.625 18.023438 40.722656 18.222656 C 39.792969 18.769531 38.792969 19.070312 37.71875 19.125 C 37.671875 19.539062 37.722656 19.941406 37.867188 20.332031 C 38.699219 20.722656 39.550781 21.074219 40.421875 21.386719 C 40.675781 21.691406 40.773438 22.042969 40.722656 22.441406 C 39.621094 22.441406 38.519531 22.441406 37.417969 22.441406 Z M 37.417969 22.441406 "/>
<use xlink:href="#surface38" mask="url(#mask11)"/>
<use xlink:href="#surface41" mask="url(#mask12)"/>
<use xlink:href="#surface44" mask="url(#mask13)"/>
<path style=" stroke:none;fill-rule:evenodd;fill:rgb(11.372549%,23.137255%,12.54902%);fill-opacity:1;" d="M 37.71875 9.488281 C 38.347656 9.816406 38.746094 10.316406 38.921875 10.992188 C 38.292969 10.667969 37.894531 10.164062 37.71875 9.488281 Z M 37.71875 9.488281 "/>
<use xlink:href="#surface47" mask="url(#mask14)"/>
<use xlink:href="#surface50" mask="url(#mask15)"/>
<path style=" stroke:none;fill-rule:evenodd;fill:rgb(12.54902%,20%,11.372549%);fill-opacity:1;" d="M 38.921875 10.992188 C 39.449219 11.222656 39.75 11.625 39.824219 12.199219 C 39.292969 11.96875 38.992188 11.566406 38.921875 10.992188 Z M 38.921875 10.992188 "/>
<path style=" stroke:none;fill-rule:evenodd;fill:rgb(96.862745%,98.823529%,96.470588%);fill-opacity:1;" d="M 29.90625 16.113281 C 28.640625 16.976562 27.238281 17.226562 25.695312 16.867188 C 25.148438 16.667969 24.746094 16.316406 24.496094 15.8125 C 24.773438 14.304688 25.222656 14.304688 25.847656 15.8125 C 26.324219 14.785156 26.976562 13.878906 27.800781 13.101562 C 28.652344 14.007812 29.351562 15.011719 29.90625 16.113281 Z M 29.90625 16.113281 "/>
<use xlink:href="#surface53" mask="url(#mask16)"/>
<path style=" stroke:none;fill-rule:evenodd;fill:rgb(10.196079%,83.137256%,39.215687%);fill-opacity:1;" d="M 24.496094 15.8125 C 24.746094 16.316406 25.148438 16.667969 25.695312 16.867188 C 27.238281 17.226562 28.640625 16.976562 29.90625 16.113281 C 32.226562 18.433594 34.730469 20.542969 37.417969 22.441406 C 35.859375 25.019531 33.65625 26.523438 30.804688 26.957031 C 31.34375 26.542969 31.945312 26.242188 32.609375 26.054688 C 32.875 25.804688 32.976562 25.503906 32.910156 25.152344 C 31.988281 25.246094 31.085938 25.144531 30.203125 24.847656 C 29.941406 24.535156 29.738281 24.183594 29.605469 23.796875 C 29.863281 21.417969 29.363281 21.265625 28.101562 23.34375 C 26.984375 23.859375 26.085938 23.609375 25.394531 22.589844 C 24.921875 22.378906 24.523438 22.480469 24.195312 22.890625 C 25.613281 25.007812 25.011719 25.859375 22.390625 25.453125 C 22.390625 25.753906 22.390625 26.054688 22.390625 26.355469 C 20.539062 25.550781 19.234375 24.195312 18.484375 22.289062 C 19.960938 20.003906 21.664062 17.894531 23.59375 15.964844 C 23.878906 15.820312 24.179688 15.769531 24.496094 15.8125 Z M 24.496094 15.8125 "/>
<use xlink:href="#surface56" mask="url(#mask17)"/>
<use xlink:href="#surface59" mask="url(#mask18)"/>
<use xlink:href="#surface62" mask="url(#mask19)"/>
<path style=" stroke:none;fill-rule:evenodd;fill:rgb(23.529412%,69.411767%,31.764707%);fill-opacity:1;" d="M 22.390625 26.355469 C 23.296875 26.519531 23.949219 26.921875 24.34375 27.558594 C 23.558594 27.34375 22.90625 26.941406 22.390625 26.355469 Z M 22.390625 26.355469 "/>
<use xlink:href="#surface65" mask="url(#mask20)"/>
<use xlink:href="#surface68" mask="url(#mask21)"/>
<use xlink:href="#surface71" mask="url(#mask22)"/>
<use xlink:href="#surface74" mask="url(#mask23)"/>
<use xlink:href="#surface77" mask="url(#mask24)"/>
<use xlink:href="#surface80" mask="url(#mask25)"/>
<use xlink:href="#surface83" mask="url(#mask26)"/>
<path style=" stroke:none;fill-rule:evenodd;fill:rgb(11.372549%,13.333334%,8.627451%);fill-opacity:1;" d="M 17.582031 30.875 C 18.257812 31.046875 18.757812 31.449219 19.085938 32.078125 C 18.410156 31.902344 17.90625 31.503906 17.582031 30.875 Z M 17.582031 30.875 "/>
<use xlink:href="#surface86" mask="url(#mask27)"/>
<use xlink:href="#surface89" mask="url(#mask28)"/>
<use xlink:href="#surface92" mask="url(#mask29)"/>
<use xlink:href="#surface95" mask="url(#mask30)"/>
<use xlink:href="#surface98" mask="url(#mask31)"/>
<path style=" stroke:none;fill-rule:evenodd;fill:rgb(97.647059%,97.647059%,97.647059%);fill-opacity:1;" d="M -0.148438 35.992188 C 4.960938 35.992188 10.066406 35.992188 15.175781 35.992188 C 15.679688 36.195312 16.179688 36.394531 16.679688 36.597656 C 17.707031 37.511719 18.910156 38.113281 20.285156 38.402344 C 20.617188 38.722656 21.019531 38.972656 21.488281 39.15625 C 21.203125 39.300781 20.902344 39.351562 20.585938 39.308594 C 17.4375 38.941406 14.332031 38.941406 11.269531 39.308594 C 10.550781 39.234375 9.949219 39.433594 9.46875 39.910156 C 9.027344 39.890625 8.628906 39.988281 8.265625 40.210938 C 8.664062 38.351562 7.960938 37.699219 6.160156 38.253906 C 5.992188 38.367188 5.894531 38.519531 5.859375 38.703125 C 6.1875 38.691406 6.488281 38.59375 6.761719 38.402344 C 7.003906 38.542969 7.101562 38.742188 7.0625 39.007812 C 6.609375 39.511719 6.308594 40.113281 6.160156 40.8125 C 6.160156 41.015625 6.160156 41.214844 6.160156 41.414062 C 6.210938 41.914062 6.410156 42.316406 6.761719 42.621094 C 7.191406 43.226562 7.390625 43.929688 7.363281 44.730469 C 6.480469 45.460938 5.628906 46.265625 4.808594 47.136719 C 4.902344 46.554688 4.902344 45.949219 4.808594 45.332031 C 4.363281 46.40625 4.164062 47.511719 4.207031 48.644531 C 4.949219 47.601562 5.800781 46.648438 6.761719 45.78125 C 7.269531 45.636719 7.671875 45.789062 7.964844 46.234375 C 7.898438 46.589844 8 46.890625 8.265625 47.136719 C 9.972656 46.519531 11.675781 46.015625 13.375 45.632812 C 15.882812 45.777344 18.386719 45.976562 20.886719 46.234375 C 21.1875 46.234375 21.488281 46.234375 21.789062 46.234375 C 23.371094 46.660156 25.023438 46.863281 26.75 46.835938 C 28.277344 46.882812 29.730469 46.683594 31.105469 46.234375 C 31.308594 46.234375 31.507812 46.234375 31.707031 46.234375 C 34.890625 45.753906 38.09375 45.554688 41.324219 45.632812 C 42.527344 45.800781 43.628906 46.199219 44.632812 46.835938 C 44.832031 47.070312 45.082031 47.269531 45.382812 47.441406 C 45.839844 46.921875 46.140625 46.320312 46.285156 45.632812 C 47.171875 46.199219 48.023438 46.804688 48.839844 47.441406 C 48.894531 47.949219 49.144531 48.351562 49.589844 48.644531 C 49.738281 47.949219 49.789062 47.246094 49.742188 46.535156 C 49.742188 45.832031 49.742188 45.128906 49.742188 44.425781 C 50.964844 44.453125 52.117188 44.753906 53.195312 45.332031 C 53.199219 44.632812 52.949219 44.03125 52.445312 43.523438 C 51.574219 44.007812 50.570312 44.308594 49.441406 44.425781 C 49.261719 45.375 49.0625 46.277344 48.839844 47.136719 C 48 46.449219 47.199219 45.695312 46.433594 44.878906 C 46.867188 43.632812 47.265625 42.378906 47.636719 41.113281 C 47.328125 40.753906 47.074219 40.351562 46.886719 39.910156 C 46.816406 40.28125 46.664062 40.582031 46.433594 40.8125 C 46.136719 40.863281 45.9375 40.765625 45.832031 40.511719 C 45.753906 39.929688 45.902344 39.429688 46.285156 39.007812 C 46.382812 39.207031 46.484375 39.40625 46.585938 39.609375 C 46.914062 39.167969 47.367188 38.914062 47.9375 38.855469 C 47.375 38.464844 46.777344 38.363281 46.132812 38.554688 C 45.808594 39.113281 45.410156 39.566406 44.933594 39.910156 C 44.351562 39.371094 43.652344 39.070312 42.828125 39.007812 C 41.324219 38.605469 39.824219 38.605469 38.320312 39.007812 C 36.527344 39.039062 34.824219 39.339844 33.210938 39.910156 C 32.808594 39.910156 32.410156 39.910156 32.007812 39.910156 C 31.398438 39.957031 30.796875 39.90625 30.203125 39.757812 C 31.496094 39.585938 32.699219 39.234375 33.8125 38.703125 C 35.390625 38.316406 36.792969 37.613281 38.019531 36.597656 C 38.519531 36.394531 39.019531 36.195312 39.523438 35.992188 C 44.632812 35.992188 49.742188 35.992188 54.851562 35.992188 C 54.851562 40.613281 54.851562 45.230469 54.851562 49.847656 C 36.515625 49.847656 18.183594 49.847656 -0.148438 49.847656 C -0.148438 45.230469 -0.148438 40.613281 -0.148438 35.992188 Z M -0.148438 35.992188 "/>
<path style=" stroke:none;fill-rule:evenodd;fill:rgb(90.980393%,90.980393%,90.980393%);fill-opacity:1;" d="M 16.378906 35.992188 C 16.78125 35.992188 17.179688 35.992188 17.582031 35.992188 C 17.78125 35.992188 17.984375 35.992188 18.183594 35.992188 C 18.382812 35.992188 18.582031 35.992188 18.785156 35.992188 C 19 36.121094 19.152344 36.320312 19.234375 36.597656 C 19.449219 36.152344 19.800781 35.953125 20.285156 35.992188 C 20.214844 36.382812 20.316406 36.683594 20.585938 36.898438 C 20.585938 36.597656 20.585938 36.296875 20.585938 35.992188 C 21.1875 35.992188 21.789062 35.992188 22.390625 35.992188 C 22.644531 36.097656 22.742188 36.296875 22.691406 36.597656 C 23.203125 36.644531 23.703125 36.59375 24.195312 36.445312 C 23.726562 36.382812 23.324219 36.230469 22.992188 35.992188 C 23.894531 35.992188 24.796875 35.992188 25.695312 35.992188 C 25.695312 36.09375 25.695312 36.195312 25.695312 36.296875 C 25.054688 38.160156 25.558594 38.761719 27.199219 38.101562 C 27.003906 37.730469 26.957031 37.328125 27.050781 36.898438 C 26.421875 37.117188 26.269531 36.917969 26.597656 36.296875 C 26.796875 36.296875 26.898438 36.195312 26.898438 35.992188 C 27.300781 35.992188 27.699219 35.992188 28.101562 35.992188 C 28.402344 35.992188 28.703125 35.992188 29.003906 35.992188 C 28.953125 36.605469 29.003906 37.207031 29.152344 37.800781 C 29.152344 37.03125 29.402344 36.429688 29.90625 35.992188 C 30.003906 35.992188 30.105469 35.992188 30.203125 35.992188 C 30.421875 36.675781 30.519531 37.378906 30.503906 38.101562 C 31.183594 38.199219 31.78125 38.046875 32.308594 37.652344 C 30.457031 37.488281 30.355469 37.085938 32.007812 36.445312 C 31.441406 36.386719 30.941406 36.234375 30.503906 35.992188 C 31.007812 35.992188 31.507812 35.992188 32.007812 35.992188 C 32.207031 36.195312 32.410156 36.394531 32.609375 36.597656 C 32.609375 36.394531 32.609375 36.195312 32.609375 35.992188 C 33.210938 35.992188 33.8125 35.992188 34.414062 35.992188 C 34.613281 35.992188 34.8125 35.992188 35.011719 35.992188 C 35.414062 35.992188 35.816406 35.992188 36.214844 35.992188 C 36.484375 36.296875 36.683594 36.296875 36.816406 35.992188 C 36.917969 35.992188 37.015625 35.992188 37.117188 35.992188 C 37.316406 35.992188 37.519531 35.992188 37.71875 35.992188 C 37.917969 35.992188 38.121094 35.992188 38.320312 35.992188 C 38.21875 36.195312 38.121094 36.394531 38.019531 36.597656 C 36.792969 37.613281 35.390625 38.316406 33.8125 38.703125 C 32.261719 38.96875 30.761719 39.269531 29.304688 39.609375 C 26.214844 39.792969 23.210938 39.390625 20.285156 38.402344 C 18.910156 38.113281 17.707031 37.511719 16.679688 36.597656 C 16.582031 36.394531 16.480469 36.195312 16.378906 35.992188 Z M 16.378906 35.992188 "/>
<path style=" stroke:none;fill-rule:evenodd;fill:rgb(5.882353%,5.882353%,5.882353%);fill-opacity:1;" d="M 22.691406 36.597656 C 22.691406 36.898438 22.691406 37.199219 22.691406 37.5 C 23.792969 37.664062 23.695312 37.765625 22.390625 37.800781 C 22.308594 37.320312 22.410156 36.917969 22.691406 36.597656 Z M 22.691406 36.597656 "/>
<path style=" stroke:none;fill-rule:evenodd;fill:rgb(33.725491%,33.725491%,33.725491%);fill-opacity:1;" d="M 26.597656 36.296875 C 26.269531 36.917969 26.421875 37.117188 27.050781 36.898438 C 26.957031 37.328125 27.003906 37.730469 27.199219 38.101562 C 25.558594 38.761719 25.054688 38.160156 25.695312 36.296875 C 26.042969 35.957031 26.34375 35.957031 26.597656 36.296875 Z M 26.597656 36.296875 "/>
<path style=" stroke:none;fill-rule:evenodd;fill:rgb(12.156863%,12.156863%,12.156863%);fill-opacity:1;" d="M 20.585938 36.898438 C 21.105469 36.800781 21.605469 36.753906 22.089844 36.746094 C 21.59375 37.253906 21.09375 37.300781 20.585938 36.898438 Z M 20.585938 36.898438 "/>
<path style=" stroke:none;fill-rule:evenodd;fill:rgb(17.254902%,17.254902%,17.254902%);fill-opacity:1;" d="M 32.609375 36.597656 C 33.324219 37.46875 33.875 37.371094 34.261719 36.296875 C 34.445312 37.375 33.996094 37.726562 32.910156 37.347656 C 32.683594 37.148438 32.582031 36.894531 32.609375 36.597656 Z M 32.609375 36.597656 "/>
<path style=" stroke:none;fill-rule:evenodd;fill:rgb(93.333334%,93.333334%,93.333334%);fill-opacity:1;" d="M 7.664062 40.511719 C 7.464844 40.511719 7.261719 40.511719 7.0625 40.511719 C 6.882812 40.078125 6.882812 39.578125 7.0625 39.007812 C 7.28125 38.878906 7.429688 38.679688 7.511719 38.402344 C 8.058594 39.066406 8.105469 39.769531 7.664062 40.511719 Z M 7.664062 40.511719 "/>
<path style=" stroke:none;fill-rule:evenodd;fill:rgb(20.392157%,18.039216%,17.254902%);fill-opacity:1;" d="M 45.832031 40.511719 C 45.375 40.535156 45.074219 40.332031 44.933594 39.910156 C 45.410156 39.566406 45.808594 39.113281 46.132812 38.554688 C 46.777344 38.363281 47.375 38.464844 47.9375 38.855469 C 47.367188 38.914062 46.914062 39.167969 46.585938 39.609375 C 46.484375 39.40625 46.382812 39.207031 46.285156 39.007812 C 45.902344 39.429688 45.753906 39.929688 45.832031 40.511719 Z M 45.832031 40.511719 "/>
<path style=" stroke:none;fill-rule:evenodd;fill:rgb(17.254902%,17.254902%,18.039216%);fill-opacity:1;" d="M 11.269531 39.308594 C 14.332031 38.941406 17.4375 38.941406 20.585938 39.308594 C 20.585938 39.40625 20.585938 39.507812 20.585938 39.609375 C 17.488281 39.367188 14.382812 39.265625 11.269531 39.308594 Z M 11.269531 39.308594 "/>
<path style=" stroke:none;fill-rule:evenodd;fill:rgb(45.882353%,39.215687%,22.352941%);fill-opacity:1;" d="M 38.320312 39.007812 C 39.824219 38.605469 41.324219 38.605469 42.828125 39.007812 C 42.828125 39.105469 42.828125 39.207031 42.828125 39.308594 C 41.425781 39.308594 40.023438 39.308594 38.621094 39.308594 C 38.621094 39.105469 38.519531 39.007812 38.320312 39.007812 Z M 38.320312 39.007812 "/>
<path style=" stroke:none;fill-rule:evenodd;fill:rgb(33.725491%,31.37255%,28.235295%);fill-opacity:1;" d="M 8.265625 40.210938 C 8.164062 40.464844 7.960938 40.5625 7.664062 40.511719 C 8.105469 39.769531 8.058594 39.066406 7.511719 38.402344 C 7.429688 38.679688 7.28125 38.878906 7.0625 39.007812 C 7.101562 38.742188 7.003906 38.542969 6.761719 38.402344 C 6.488281 38.59375 6.1875 38.691406 5.859375 38.703125 C 5.894531 38.519531 5.992188 38.367188 6.160156 38.253906 C 7.960938 37.699219 8.664062 38.351562 8.265625 40.210938 Z M 8.265625 40.210938 "/>
<path style=" stroke:none;fill-rule:evenodd;fill:rgb(19.215687%,20.392157%,20.784314%);fill-opacity:1;" d="M 11.269531 39.308594 C 10.753906 39.679688 10.152344 39.882812 9.46875 39.910156 C 9.949219 39.433594 10.550781 39.234375 11.269531 39.308594 Z M 11.269531 39.308594 "/>
<path style=" stroke:none;fill-rule:evenodd;fill:rgb(38.039216%,38.039216%,38.82353%);fill-opacity:1;" d="M 20.285156 38.402344 C 23.210938 39.390625 26.214844 39.792969 29.304688 39.609375 C 29.304688 39.707031 29.304688 39.808594 29.304688 39.910156 C 26.96875 40.019531 24.664062 39.820312 22.390625 39.308594 C 22.027344 39.382812 21.824219 39.582031 21.789062 39.910156 C 21.308594 39.992188 20.910156 39.890625 20.585938 39.609375 C 20.585938 39.507812 20.585938 39.40625 20.585938 39.308594 C 20.902344 39.351562 21.203125 39.300781 21.488281 39.15625 C 21.019531 38.972656 20.617188 38.722656 20.285156 38.402344 Z M 20.285156 38.402344 "/>
<path style=" stroke:none;fill-rule:evenodd;fill:rgb(23.921569%,23.529412%,21.960784%);fill-opacity:1;" d="M 38.320312 39.007812 C 38.519531 39.007812 38.621094 39.105469 38.621094 39.308594 C 36.8125 39.457031 35.007812 39.660156 33.210938 39.910156 C 34.824219 39.339844 36.527344 39.039062 38.320312 39.007812 Z M 38.320312 39.007812 "/>
<path style=" stroke:none;fill-rule:evenodd;fill:rgb(28.627452%,27.058825%,25.490198%);fill-opacity:1;" d="M 5.859375 38.703125 C 4.96875 39.75 4.019531 40.753906 3.003906 41.71875 C 2.804688 41.515625 2.804688 41.316406 3.003906 41.113281 C 3.835938 40.128906 4.789062 39.324219 5.859375 38.703125 Z M 5.859375 38.703125 "/>
<path style=" stroke:none;fill-rule:evenodd;fill:rgb(94.117647%,72.941178%,12.156863%);fill-opacity:1;" d="M 11.269531 39.308594 C 14.382812 39.265625 17.488281 39.367188 20.585938 39.609375 C 20.910156 39.890625 21.308594 39.992188 21.789062 39.910156 C 21.988281 40.011719 22.191406 40.109375 22.390625 40.210938 C 24.636719 40.585938 26.839844 40.585938 29.003906 40.210938 C 29.203125 40.210938 29.402344 40.210938 29.605469 40.210938 C 30.472656 40.304688 31.273438 40.203125 32.007812 39.910156 C 32.410156 39.910156 32.808594 39.910156 33.210938 39.910156 C 35.007812 39.660156 36.8125 39.457031 38.621094 39.308594 C 40.023438 39.308594 41.425781 39.308594 42.828125 39.308594 C 43.503906 39.59375 44.203125 39.796875 44.933594 39.910156 C 45.074219 40.332031 45.375 40.535156 45.832031 40.511719 C 45.9375 40.765625 46.136719 40.863281 46.433594 40.8125 C 46.691406 41.125 46.890625 41.476562 47.035156 41.867188 C 46.523438 43.304688 46.074219 44.761719 45.683594 46.234375 C 45.46875 46.679688 45.121094 46.878906 44.632812 46.835938 C 43.628906 46.199219 42.527344 45.800781 41.324219 45.632812 C 39.273438 45.285156 37.171875 45.234375 35.011719 45.480469 C 33.832031 45.554688 32.730469 45.804688 31.707031 46.234375 C 31.507812 46.234375 31.308594 46.234375 31.105469 46.234375 C 28.003906 46.609375 24.898438 46.609375 21.789062 46.234375 C 21.488281 46.234375 21.1875 46.234375 20.886719 46.234375 C 18.425781 45.390625 15.921875 45.191406 13.375 45.632812 C 11.71875 45.453125 10.167969 45.753906 8.714844 46.535156 C 8.445312 46.464844 8.195312 46.363281 7.964844 46.234375 C 7.992188 45.617188 7.792969 45.113281 7.363281 44.730469 C 7.390625 43.929688 7.191406 43.226562 6.761719 42.621094 C 6.84375 42.054688 6.644531 41.652344 6.160156 41.414062 C 6.160156 41.214844 6.160156 41.015625 6.160156 40.8125 C 6.550781 40.882812 6.851562 40.785156 7.0625 40.511719 C 7.261719 40.511719 7.464844 40.511719 7.664062 40.511719 C 7.960938 40.5625 8.164062 40.464844 8.265625 40.210938 C 8.628906 39.988281 9.027344 39.890625 9.46875 39.910156 C 10.152344 39.882812 10.753906 39.679688 11.269531 39.308594 Z M 11.269531 39.308594 "/>
<path style=" stroke:none;fill-rule:evenodd;fill:rgb(12.54902%,13.725491%,15.686275%);fill-opacity:1;" d="M 42.828125 39.308594 C 42.828125 39.207031 42.828125 39.105469 42.828125 39.007812 C 43.652344 39.070312 44.351562 39.371094 44.933594 39.910156 C 44.203125 39.796875 43.503906 39.59375 42.828125 39.308594 Z M 42.828125 39.308594 "/>
<path style=" stroke:none;fill-rule:evenodd;fill:rgb(28.235295%,27.843139%,27.058825%);fill-opacity:1;" d="M 48.539062 39.609375 C 48.554688 39.445312 48.65625 39.34375 48.839844 39.308594 C 50.378906 40.695312 50.277344 40.796875 48.539062 39.609375 Z M 48.539062 39.609375 "/>
<path style=" stroke:none;fill-rule:evenodd;fill:rgb(92.941177%,92.941177%,92.54902%);fill-opacity:1;" d="M 29.304688 39.910156 C 29.503906 39.910156 29.605469 40.011719 29.605469 40.210938 C 29.402344 40.210938 29.203125 40.210938 29.003906 40.210938 C 26.738281 40.144531 24.535156 40.144531 22.390625 40.210938 C 22.191406 40.109375 21.988281 40.011719 21.789062 39.910156 C 21.824219 39.582031 22.027344 39.382812 22.390625 39.308594 C 24.664062 39.820312 26.96875 40.019531 29.304688 39.910156 Z M 29.304688 39.910156 "/>
<path style=" stroke:none;fill-rule:evenodd;fill:rgb(49.803922%,49.803922%,49.803922%);fill-opacity:1;" d="M 33.8125 38.703125 C 32.699219 39.234375 31.496094 39.585938 30.203125 39.757812 C 30.796875 39.90625 31.398438 39.957031 32.007812 39.910156 C 31.273438 40.203125 30.472656 40.304688 29.605469 40.210938 C 29.605469 40.011719 29.503906 39.910156 29.304688 39.910156 C 29.304688 39.808594 29.304688 39.707031 29.304688 39.609375 C 30.761719 39.269531 32.261719 38.96875 33.8125 38.703125 Z M 33.8125 38.703125 "/>
<path style=" stroke:none;fill-rule:evenodd;fill:rgb(30.980393%,30.980393%,30.588236%);fill-opacity:1;" d="M 7.0625 39.007812 C 6.882812 39.578125 6.882812 40.078125 7.0625 40.511719 C 6.851562 40.785156 6.550781 40.882812 6.160156 40.8125 C 6.308594 40.113281 6.609375 39.511719 7.0625 39.007812 Z M 7.0625 39.007812 "/>
<path style=" stroke:none;fill-rule:evenodd;fill:rgb(45.09804%,45.09804%,44.705883%);fill-opacity:1;" d="M 22.390625 40.210938 C 24.535156 40.144531 26.738281 40.144531 29.003906 40.210938 C 26.839844 40.585938 24.636719 40.585938 22.390625 40.210938 Z M 22.390625 40.210938 "/>
<path style=" stroke:none;fill-rule:evenodd;fill:rgb(35.294119%,35.294119%,34.117648%);fill-opacity:1;" d="M 51.84375 42.621094 C 51.089844 42.289062 50.789062 41.785156 50.941406 41.113281 C 51.378906 41.546875 51.679688 42.050781 51.84375 42.621094 Z M 51.84375 42.621094 "/>
<path style=" stroke:none;fill-rule:evenodd;fill:rgb(20.392157%,21.568628%,22.745098%);fill-opacity:1;" d="M 6.160156 41.414062 C 6.644531 41.652344 6.84375 42.054688 6.761719 42.621094 C 6.410156 42.316406 6.210938 41.914062 6.160156 41.414062 Z M 6.160156 41.414062 "/>
<path style=" stroke:none;fill-rule:evenodd;fill:rgb(58.431375%,44.705883%,7.450981%);fill-opacity:1;" d="M 8.867188 42.019531 C 9.609375 42.203125 9.609375 42.507812 8.867188 42.921875 C 9.066406 43.023438 9.265625 43.121094 9.46875 43.222656 C 8.90625 43.683594 8.707031 44.1875 8.867188 44.730469 C 8.28125 43.757812 8.28125 42.851562 8.867188 42.019531 Z M 8.867188 42.019531 "/>
<path style=" stroke:none;fill-rule:evenodd;fill:rgb(32.941177%,25.098041%,4.705882%);fill-opacity:1;" d="M 13.074219 42.320312 C 13.375 42.320312 13.675781 42.320312 13.976562 42.320312 C 13.988281 43.640625 13.839844 43.742188 13.523438 42.621094 C 13.210938 43.742188 13.0625 43.640625 13.074219 42.320312 Z M 13.074219 42.320312 "/>
<path style=" stroke:none;fill-rule:evenodd;fill:rgb(49.411765%,37.64706%,5.490196%);fill-opacity:1;" d="M 43.128906 42.621094 C 44.238281 42.433594 44.488281 42.734375 43.878906 43.523438 C 43.78125 43.324219 43.679688 43.121094 43.578125 42.921875 C 42.859375 44.097656 42.707031 43.996094 43.128906 42.621094 Z M 43.128906 42.621094 "/>
<path style=" stroke:none;fill-rule:evenodd;fill:rgb(56.862748%,43.529412%,7.058824%);fill-opacity:1;" d="M 15.777344 41.113281 C 16.53125 41.117188 16.582031 41.320312 15.929688 41.71875 C 15.78125 42.3125 15.730469 42.914062 15.777344 43.523438 C 15.378906 43.523438 14.976562 43.523438 14.578125 43.523438 C 14.519531 43.042969 14.671875 42.640625 15.027344 42.320312 C 15.128906 42.519531 15.226562 42.722656 15.328125 42.921875 C 15.421875 42.292969 15.574219 41.691406 15.777344 41.113281 Z M 15.777344 41.113281 "/>
<path style=" stroke:none;fill-rule:evenodd;fill:rgb(62.352943%,47.450981%,7.450981%);fill-opacity:1;" d="M 39.824219 41.71875 C 40.085938 41.675781 40.285156 41.777344 40.421875 42.019531 C 40.058594 42.386719 40.058594 42.738281 40.421875 43.074219 C 40.265625 43.28125 40.066406 43.429688 39.824219 43.523438 C 39.320312 43.523438 38.820312 43.523438 38.320312 43.523438 C 38.113281 43.367188 37.960938 43.164062 37.867188 42.921875 C 37.195312 43.726562 36.746094 43.574219 36.515625 42.46875 C 36.96875 41.816406 37.316406 41.867188 37.566406 42.621094 C 37.667969 42.417969 37.769531 42.21875 37.867188 42.019531 C 38.167969 42.320312 38.46875 42.621094 38.769531 42.921875 C 38.941406 41.757812 39.191406 41.757812 39.523438 42.921875 C 39.800781 42.5625 39.902344 42.160156 39.824219 41.71875 Z M 39.824219 41.71875 "/>
<path style=" stroke:none;fill-rule:evenodd;fill:rgb(31.764707%,31.764707%,30.980393%);fill-opacity:1;" d="M 51.84375 42.621094 C 52.265625 42.761719 52.46875 43.0625 52.445312 43.523438 C 52.023438 43.382812 51.824219 43.082031 51.84375 42.621094 Z M 51.84375 42.621094 "/>
<path style=" stroke:none;fill-rule:evenodd;fill:rgb(48.235294%,36.862746%,4.705882%);fill-opacity:1;" d="M 32.007812 43.222656 C 32.328125 42.941406 32.730469 42.839844 33.210938 42.921875 C 33.222656 44.246094 33.074219 44.34375 32.757812 43.222656 C 32.527344 43.554688 32.277344 43.554688 32.007812 43.222656 Z M 32.007812 43.222656 "/>
<path style=" stroke:none;fill-rule:evenodd;fill:rgb(50.196081%,38.431373%,5.882353%);fill-opacity:1;" d="M 26.898438 42.621094 C 27.21875 43.289062 27.167969 43.992188 26.75 44.730469 C 26.582031 44.011719 26.632812 43.308594 26.898438 42.621094 Z M 26.898438 42.621094 "/>
<path style=" stroke:none;fill-rule:evenodd;fill:rgb(10.196079%,9.803922%,9.019608%);fill-opacity:1;" d="M 1.351562 43.523438 C 2.625 43.804688 3.925781 43.90625 5.257812 43.824219 C 5.304688 44.140625 5.253906 44.445312 5.109375 44.730469 C 4.804688 44.378906 4.40625 44.179688 3.90625 44.125 C 2.941406 44.414062 1.988281 44.414062 1.050781 44.125 C 1.160156 43.921875 1.261719 43.71875 1.351562 43.523438 Z M 1.351562 43.523438 "/>
<path style=" stroke:none;fill-rule:evenodd;fill:rgb(71.764708%,54.901963%,9.019608%);fill-opacity:1;" d="M 16.980469 42.019531 C 17.414062 42.277344 17.816406 42.277344 18.183594 42.019531 C 18.511719 42.386719 18.910156 42.636719 19.386719 42.769531 C 19.207031 43.226562 19.007812 43.675781 18.785156 44.125 C 18.476562 43.71875 18.074219 43.519531 17.582031 43.523438 C 17.480469 42.320312 17.382812 42.320312 17.28125 43.523438 C 16.097656 43.621094 15.847656 43.21875 16.53125 42.320312 C 16.855469 43.050781 17.007812 42.953125 16.980469 42.019531 Z M 16.980469 42.019531 "/>
<path style=" stroke:none;fill-rule:evenodd;fill:rgb(24.705882%,21.960784%,16.862746%);fill-opacity:1;" d="M 13.375 45.632812 C 15.921875 45.191406 18.425781 45.390625 20.886719 46.234375 C 18.386719 45.976562 15.882812 45.777344 13.375 45.632812 Z M 13.375 45.632812 "/>
<path style=" stroke:none;fill-rule:evenodd;fill:rgb(26.666668%,25.490198%,23.137255%);fill-opacity:1;" d="M 48.839844 47.136719 C 48.839844 47.238281 48.839844 47.339844 48.839844 47.441406 C 48.023438 46.804688 47.171875 46.199219 46.285156 45.632812 C 46.140625 46.320312 45.839844 46.921875 45.382812 47.441406 C 45.082031 47.269531 44.832031 47.070312 44.632812 46.835938 C 45.121094 46.878906 45.46875 46.679688 45.683594 46.234375 C 46.074219 44.761719 46.523438 43.304688 47.035156 41.867188 C 46.890625 41.476562 46.691406 41.125 46.433594 40.8125 C 46.664062 40.582031 46.816406 40.28125 46.886719 39.910156 C 47.074219 40.351562 47.328125 40.753906 47.636719 41.113281 C 47.265625 42.378906 46.867188 43.632812 46.433594 44.878906 C 47.199219 45.695312 48 46.449219 48.839844 47.136719 Z M 48.839844 47.136719 "/>
<path style=" stroke:none;fill-rule:evenodd;fill:rgb(31.37255%,30.588236%,29.411766%);fill-opacity:1;" d="M 41.324219 45.632812 C 38.09375 45.554688 34.890625 45.753906 31.707031 46.234375 C 32.730469 45.804688 33.832031 45.554688 35.011719 45.480469 C 37.171875 45.234375 39.273438 45.285156 41.324219 45.632812 Z M 41.324219 45.632812 "/>
<path style=" stroke:none;fill-rule:evenodd;fill:rgb(27.450982%,25.490198%,24.313726%);fill-opacity:1;" d="M 13.375 45.632812 C 11.675781 46.015625 9.972656 46.519531 8.265625 47.136719 C 8 46.890625 7.898438 46.589844 7.964844 46.234375 C 8.195312 46.363281 8.445312 46.464844 8.714844 46.535156 C 10.167969 45.753906 11.71875 45.453125 13.375 45.632812 Z M 13.375 45.632812 "/>
<path style=" stroke:none;fill-rule:evenodd;fill:rgb(19.215687%,17.647059%,15.686275%);fill-opacity:1;" d="M 21.789062 46.234375 C 24.898438 46.609375 28.003906 46.609375 31.105469 46.234375 C 29.730469 46.683594 28.277344 46.882812 26.75 46.835938 C 25.023438 46.863281 23.371094 46.660156 21.789062 46.234375 Z M 21.789062 46.234375 "/>
<path style=" stroke:none;fill-rule:evenodd;fill:rgb(54.509807%,53.725493%,52.549022%);fill-opacity:1;" d="M 52.445312 43.523438 C 52.949219 44.03125 53.199219 44.632812 53.195312 45.332031 C 52.117188 44.753906 50.964844 44.453125 49.742188 44.425781 C 49.742188 45.128906 49.742188 45.832031 49.742188 46.535156 C 49.558594 46.957031 49.257812 47.257812 48.839844 47.441406 C 48.839844 47.339844 48.839844 47.238281 48.839844 47.136719 C 49.0625 46.277344 49.261719 45.375 49.441406 44.425781 C 50.570312 44.308594 51.574219 44.007812 52.445312 43.523438 Z M 52.445312 43.523438 "/>
<path style=" stroke:none;fill-rule:evenodd;fill:rgb(22.352941%,20.392157%,18.431373%);fill-opacity:1;" d="M 7.363281 44.730469 C 7.792969 45.113281 7.992188 45.617188 7.964844 46.234375 C 7.671875 45.789062 7.269531 45.636719 6.761719 45.78125 C 5.800781 46.648438 4.949219 47.601562 4.207031 48.644531 C 4.164062 47.511719 4.363281 46.40625 4.808594 45.332031 C 4.902344 45.949219 4.902344 46.554688 4.808594 47.136719 C 5.628906 46.265625 6.480469 45.460938 7.363281 44.730469 Z M 7.363281 44.730469 "/>
<path style=" stroke:none;fill-rule:evenodd;fill:rgb(22.352941%,19.607843%,16.862746%);fill-opacity:1;" d="M 49.742188 46.535156 C 49.789062 47.246094 49.738281 47.949219 49.589844 48.644531 C 49.144531 48.351562 48.894531 47.949219 48.839844 47.441406 C 49.257812 47.257812 49.558594 46.957031 49.742188 46.535156 Z M 49.742188 46.535156 "/>
</g>
</svg>
